SplineFontDB: 3.2
FontName: SpencerianCursive
FullName: Spencerian Cursive
FamilyName: Spencerian Cursive
Weight: Regular

StartChar: O
Encoding: 40 79 0
Width: 2754
VWidth: 0
Flags: HW
HStem: 2439 19<1843.94 1973>
VStem: 225 58<593.212 1136.74> 2469 19<1382.88 1647>
LayerCount: 6
Fore
SplineSet
1973 2458 m 3
 1265 2458 225 1869 225 866 c 3
 225 -742 2488 142 2488 1507 c 3
 2488 3101 93.1416015625 1924.5078125 481 477 c 1
 500 483 l 1
 119.794921875 1901.9453125 2469 3070 2469 1507 c 3
 2469 195 283 -707.004882812 283 856 c 3
 283 1902 1305 2439 1973 2439 c 0
 1973 2458 l 3
EndSplineSet
EndChar

StartChar: A
Encoding: 26 65 1
Width: 4105
VWidth: 0
Flags: HW
HStem: 0 21G<2170 2392.18> 2435 20G<3430.9 3784>
AnchorPoint: "Cursive 1" 3779 2450 entry 0
AnchorPoint: "Cursive 1" 2610 853 exit 0
LayerCount: 6
Back
Refer: 164 -1 S 1 0 0 1 2097 1639 2
Refer: 184 -1 N 1 0 0 1 296 0 2
Fore
SplineSet
3770 2455 m 1
 3784 2442 l 1
 3108.17773438 1691.42382812 2596.3515625 917.171875 2188 0 c 1
 2170 8 l 1
 2579.55078125 927.8671875 3091.79980469 1701.78222656 3770 2455 c 1
EndSplineSet
Layer: 2
SplineSet
2171.89648438 0 m 1
 2578.52539062 925.155273438 3127.19433594 1751.49804688 3772.546875 2457.59960938 c 1
 3788.92675781 2457.59960938 l 1
 3147.2109375 1747.01855469 2599.9296875 921.624023438 2188.28710938 0 c 1
 2171.89648438 0 l 1
  Spiro
    3772.54 2457.6 v
    3788.92 2457.6 v
    2877.46 1269.76 o
    2188.28 0 v
    2171.89 0 v
    2855.84 1269.76 o
    0 0 z
  EndSpiro
3788.91992188 2457.59960938 m 5
 3332.27734375 2134.75195312 2932.48339844 1748.54980469 2573.24023438 1327.09960938 c 4
 2268.41503906 969.491210938 2008.79492188 566.670898438 1646.41992188 267.528320312 c 4
 1467.03417969 119.444335938 1257.4296875 4.3544921875 1009.35253906 4.3544921875 c 4
 617.938476562 4.3544921875 295.96484375 292.556640625 295.96484375 685.6171875 c 4
 295.96484375 1053.05273438 584.334960938 1289.71386719 943.41015625 1289.71386719 c 4
 1319.45605469 1289.71386719 1591.6640625 1075.07324219 1761.11035156 840.967773438 c 5
 1752.91992188 832.776367188 l 5
 1577.13964844 1074.08691406 1309.62402344 1266.55078125 951.408203125 1266.55078125 c 4
 595.52734375 1266.55078125 315.672851562 1039.8359375 315.672851562 683.5703125 c 4
 315.672851562 311.830078125 627.6171875 36.4560546875 972.4296875 36.4560546875 c 4
 1241.21386719 36.4560546875 1443.3984375 181.829101562 1597.26953125 316.6796875 c 4
 1951.23144531 626.887695312 2240.00195312 1003.65039062 2556.84960938 1351.6796875 c 4
 2925.90234375 1757.05175781 3309.28027344 2149.25 3772.54003906 2457.59960938 c 5
 3788.91992188 2457.59960938 l 5
  Spiro
    3788.92 2457.6 v
    3190.91 1974.27 o
    2573.24 1327.1 o
    1646.42 267.528 o
    1048.41 5.384 o
    368.469 390.408 o
    352.085 939.272 o
    1269.59 1225.99 o
    1761.11 840.968 v
    1752.92 832.776 v
    1113.94 1250.57 o
    360.277 906.504 o
    442.197 308.488 o
    925.53 38.152 o
    1597.27 316.68 o
    2556.85 1351.68 o
    3174.52 1990.66 o
    3772.54 2457.6 v
    0 0 z
  EndSpiro
2606.61914062 864.967773438 m 1
 2598.42675781 848.583984375 l 1
 2449.62988281 923.078125 2246.56152344 770.506835938 2355.45117188 615.368164062 c 0
 2404.0078125 546.184570312 2510.95996094 522.309570312 2609.08300781 558.967773438 c 0
 2729.28125 603.83203125 2822.07421875 711.03515625 2885.14746094 815.81640625 c 1
 2901.53125 815.81640625 l 1
 2837.29492188 708.584960938 2742.8984375 603.592773438 2622.53125 554.967773438 c 0
 2483.34179688 498.748046875 2319.33398438 552.782226562 2311.70703125 692.935546875 c 0
 2303.91503906 836.543945312 2467.94726562 921.998046875 2606.61914062 864.967773438 c 1
  Spiro
    2606.61 864.968 v
    2598.42 848.584 v
    2369.04 807.624 o
    2328.08 692.936 o
    2418.2 561.864 o
    2770.45 668.36 o
    2885.14 815.816 v
    2901.52 815.816 v
    2786.84 668.36 o
    2426.39 545.48 o
    2311.7 692.936 o
    2385.43 840.392 o
    0 0 z
  EndSpiro
EndSplineSet
MultipleSubs2: "'ccmp' [Uppercase]" AMN A A_
EndChar

StartChar: N
Encoding: 39 78 2
Width: 2511
VWidth: 0
Flags: HW
HStem: 16.3838 32.7686<-973.437 -698.681> 2437.6 20G<1604.81 1758.45>
VStem: -1533.43 25.6934<574.053 818.98>
AnchorPoint: "Cursive 1" 1748 2450 entry 0
LayerCount: 6
Back
Refer: 164 -1 S 1 0 0 1 66 1639 2
Fore
SplineSet
281 110 m 0
 426.150390625 508.795898438 1301.50195312 1851.70605469 1742 2458 c 1
 1757 2446 l 1
 1321.79980469 1842.03710938 441.28125 496.485351562 299 102 c 0
 262.2109375 0 274.774414062 -8.6044921875 344 80 c 0
 1043.10253906 974.809570312 1515.01074219 1309.2578125 2220 1638 c 1
 2227 1620 l 1
 1535.28808594 1297.52636719 1044.52929688 945.719726562 358 67 c 0
 278.0859375 -35.2861328125 233.124023438 -21.5380859375 281 110 c 0
EndSplineSet
MultipleSubs2: "'ccmp' [Uppercase]" AMN N
EndChar

StartChar: M
Encoding: 38 77 3
Width: 2937
VWidth: 0
Flags: HW
HStem: 2438 20G<1510 1745 2117 2663>
AnchorPoint: "Cursive 1" 1198 279 exit 0
AnchorPoint: "Cursive 1" 1736 2450 entry 0
LayerCount: 6
Back
Refer: 228 -1 S 1 0 0 1 -1686 0 2
Refer: 164 -1 N 1 0 0 1 54 1639 2
Fore
SplineSet
269 110 m 0
 414 509 1290 1852 1730 2458 c 1
 1745 2446 l 1
 1310 1842 429 496 287 102 c 0
 250 0 263 -9 332 80 c 0
 1031 975 1585 1658 2649 2458 c 1
 2663 2445 l 1
 2170 1879 1437.90332031 819.329101562 1206 273 c 1
NamedP: "67 degree"
 1188 280 l 1
 1428.42089844 846.395507812 2101 1811 2590 2389 c 1
 1583 1609 1018 926 346 67 c 0
 266 -35 221 -22 269 110 c 0
EndSplineSet
Layer: 2
SplineSet
269 110 m 4
 414 509 1290 1852 1730 2458 c 5
 1745 2446 l 5
 1310 1842 429 496 287 102 c 4
 250 0 263 -9 332 80 c 4
 1031 975 1585 1658 2649 2458 c 5
 2660 2443 l 5
 1609 1641 1033 946 346 67 c 4
 266 -35 221 -22 269 110 c 4
1188 281 m 5
 1437 871 2157 1891 2649 2458 c 5
 2663 2445 l 5
 2170 1879 1441 818 1206 273 c 5
 1188 281 l 5
EndSplineSet
MultipleSubs2: "'ccmp' [Uppercase]" AMN M M_
EndChar

StartChar: T
Encoding: 45 84 4
Width: 4724
VWidth: 0
Flags: HW
HStem: 16.3838 32.7686<1197.02 1461.86> 2437.6 20G<4600.35 4674.99>
VStem: 629.148 26.1143<569.25 818.978> 2151.86 8.19141<1851.39 1882.3> 2391.18 18.0713<1871.39 2002.28> 2921.9 16.3838<2084.1 2231.41>
LayerCount: 6
Fore
SplineSet
3393 2089 m 1
 2570.49316406 1614.12597656 2126 689 1755 327 c 0
 1526.06054688 103.615234375 1237.30957031 0 969 0 c 0
 39.578125 0 9.998046875 1314 1097 1314 c 0
 1493.24707031 1314 1717.42578125 1081.05566406 1879 933 c 1
 1866.00097656 919 l 1
 1697.97558594 1072.96679688 1453.03515625 1295 1097 1295 c 0
 35.99609375 1295 79.9638671875 26 969 26 c 0
 1217.65527344 26 1499.32421875 140.8203125 1734 375.051757812 c 0
 2289 929 2573.70703125 1636.59960938 3385 2105 c 1
 3393 2089 l 1
4384 2458 m 1
 4393 2441 l 1
 3658.47167969 2016.91992188 3425 2439 2843 2439 c 0
 2750.61621094 2439 2654.90039062 2425.43457031 2565.05761719 2398.70507812 c 1
 2634.46679688 2346.21972656 2680 2256.33105469 2680 2126 c 0
 2680 1754.99902344 2126 1525 2126 1944 c 0
 2126 2179.79980469 2300.0078125 2332.04003906 2517.36328125 2405.69628906 c 1
 2304.06445312 2534.42871094 1894 2294.22753906 1894 1851 c 1
 1875 1851 l 1
 1875 2334.77050781 2312.79003906 2552.60351562 2542.66992188 2413.86035156 c 1
 2639.09570312 2443.42578125 2742.84765625 2458 2843 2458 c 0
 3418 2458 3665.42382812 2043.12988281 4384 2458 c 1
2539.26757812 2390.61523438 m 1
 2321.77539062 2318.80664062 2145 2167.95410156 2145 1944 c 0
 2145 1554.90625 2643 1782.94726562 2643 2126 c 0
 2643 2255.13964844 2602.03613281 2341.59863281 2539.26757812 2390.61523438 c 1
EndSplineSet
Layer: 2
SplineSet
4384 2458 m 5
 4393 2441 l 5
 3658.47167969 2016.91992188 3425 2439 2843 2439 c 7
 2515 2439 2145 2268.00195312 2145 1944 c 7
 2145 1554.90625 2643 1782.94726562 2643 2126 c 7
 2643 2678.20410156 1894 2450.02050781 1894 1851 c 4
 1875 1851 l 7
 1875 2507.00097656 2680 2674 2680 2126 c 7
 2680 1754.99902344 2126 1525 2126 1944 c 7
 2126 2292 2505 2458 2843 2458 c 7
 3418 2458 3665.42382812 2043.12988281 4384 2458 c 5
  Spiro
    4384 2458 v
    4393 2441 v
    3794.52 2252 o
    3339.85 2345.42 o
    2843 2439 o
    2516.57 2382.78 o
    2252.87 2216.11 o
    2145 1944 o
    2273.89 1742.05 o
    2514.11 1840.09 o
    2643 2126 o
    2449.15 2433.17 o
    2087.85 2310.93 o
    1894 1851 o
    1875 1851 o
    2083.35 2335.32 o
    2471.65 2443.94 o
    2680 2126 o
    2536.62 1821.04 o
    2269.38 1722.56 o
    2126 1944 o
    2236.57 2231.7 o
    2507.21 2402.19 o
    2843 2458 o
    3337.95 2365.94 o
    3793.39 2273.61 o
    0 0 z
  EndSpiro
3393 2089 m 5
 2570.49316406 1614.12597656 2126 689 1755 327 c 4
 1526.06054688 103.615234375 1237.30957031 0 969 0 c 7
 39.578125 0 9.998046875 1314 1097 1314 c 7
 1493.24707031 1314 1717.42578125 1081.05566406 1879 933 c 5
 1866.00097656 919 l 5
 1697.97558594 1072.96679688 1453.03515625 1295 1097 1295 c 7
 35.99609375 1295 79.9638671875 26 969 26 c 7
 1217.65527344 26 1499.32421875 140.8203125 1734 375.051757812 c 4
 2289 929 2573.70703125 1636.59960938 3385 2105 c 5
 3393 2089 l 5
EndSplineSet
EndChar

StartChar: F
Encoding: 31 70 5
Width: 4681
VWidth: 0
Flags: HW
HStem: 16.3838 32.7686<929.33 1194.1> 2437.6 20G<4340.36 4415>
VStem: 1891.86 8.19141<1851.39 1882.3> 2131.19 18.0713<1871.39 2002.28> 2498.07 32.7676<942.08 972.811> 2661.91 16.3838<2084.1 2231.41>
LayerCount: 6
Fore
SplineSet
4390 2458 m 1
 4399 2441 l 1
 3664.47167969 2016.91992188 3431 2439 2849 2439 c 0
 2756.61621094 2439 2660.90039062 2425.43457031 2571.05761719 2398.70507812 c 1
 2640.46679688 2346.21972656 2686 2256.33105469 2686 2126 c 0
 2686 1754.99902344 2132 1525 2132 1944 c 0
 2132 2179.79980469 2306.0078125 2332.04003906 2523.36328125 2405.69628906 c 1
 2310.06445312 2534.42871094 1900 2294.22753906 1900 1851 c 1
 1881 1851 l 1
 1881 2334.77050781 2318.79003906 2552.60351562 2548.66992188 2413.86035156 c 1
 2645.09570312 2443.42578125 2748.84765625 2458 2849 2458 c 0
 3424 2458 3671.42382812 2043.12988281 4390 2458 c 1
2601 1090 m 2
 2596 1090 2532 969 2535 942 c 1
 2498 942 l 1
 2572.61425781 1071.33203125 l 1
 2467.47949219 1015.74609375 2368.56445312 989.693359375 2273.52929688 983.893554688 c 1
 2076.54785156 716.984375 1912.63476562 474.95703125 1761 327 c 0
 1532.06054688 103.615234375 1243.30957031 0 975 0 c 0
 45.578125 0 15.998046875 1314 1103 1314 c 0
 1561.72167969 1314 1874.65039062 984.745117188 2260.27539062 999.883789062 c 1
 2560.62011719 1397.43359375 2865.23046875 1801.44726562 3391 2105 c 1
 3399 2089 l 1
 2920.02246094 1812.46191406 2569.23535156 1383.23535156 2286.50292969 1001.44335938 c 1
 2381.33398438 1009.0078125 2480.77832031 1037.94042969 2588 1098 c 1
 2601 1090 l 2
2247.36621094 982.798828125 m 1
 1858.29589844 973.939453125 1531.546875 1295 1103 1295 c 0
 41.99609375 1295 85.9638671875 26 975 26 c 0
 1223.65527344 26 1505.32421875 140.8203125 1740 375.051757812 c 0
 1930.17089844 564.862304688 2088.60644531 772.712890625 2247.36621094 982.798828125 c 1
2545.26757812 2390.61523438 m 1
 2327.77539062 2318.80664062 2151 2167.95410156 2151 1944 c 0
 2151 1554.90625 2649 1782.94726562 2649 2126 c 0
 2649 2255.13964844 2608.03613281 2341.59863281 2545.26757812 2390.61523438 c 1
EndSplineSet
Layer: 2
SplineSet
2601 1090 m 29
 2596 1090 2532 969 2535 942 c 13
 2498 942 l 5
 2588 1098 l 5
 2601 1090 l 29
  Spiro
    2601 1090 v
    2581.03 1057.69 o
    2549.64 992.305 o
    2535 942 v
    2498 942 v
    2588 1098 v
    0 0 z
  EndSpiro
4390 2458 m 5
 4399 2441 l 5
 3664.47167969 2016.91992188 3431 2439 2849 2439 c 7
 2521 2439 2151 2268.00195312 2151 1944 c 7
 2151 1554.90625 2649 1782.94726562 2649 2126 c 7
 2649 2678.20410156 1900 2450.02050781 1900 1851 c 4
 1881 1851 l 7
 1881 2507.00097656 2686 2674 2686 2126 c 7
 2686 1754.99902344 2132 1525 2132 1944 c 7
 2132 2292 2511 2458 2849 2458 c 7
 3424 2458 3671.42382812 2043.12988281 4390 2458 c 5
3399 2089 m 5
 2576.49316406 1614.12597656 2132 689 1761 327 c 4
 1532.06054688 103.615234375 1243.30957031 0 975 0 c 7
 45.578125 0 15.998046875 1314 1103 1314 c 7
 1683.8984375 1314 2031 786 2588 1098 c 5
 2594 1083 l 5
 2034 768 1652.04785156 1295 1103 1295 c 7
 41.99609375 1295 85.9638671875 26 975 26 c 7
 1223.65527344 26 1505.32421875 140.8203125 1740 375.051757812 c 4
 2295 929 2579.70703125 1636.59960938 3391 2105 c 5
 3399 2089 l 5
EndSplineSet
EndChar

StartChar: K
Encoding: 36 75 6
Width: 4090
VWidth: 0
Flags: HW
HStem: 0 8.19238<2241.85 2346.5> 1129.84 6.13574<2131.04 2203.48> 1302.53 8.19141<2076.64 2119.43> 2449.41 8.19141<3466.16 3596>
VStem: 25.9824 25.9688<569.36 818.968>
AnchorPoint: "Cursive 1" 2299 277 exit 0
LayerCount: 6
Back
Refer: 218 -1 S 1 0 0 1 358 0 2
Refer: 143 -1 N 1 0 0 1 1227 0 2
Fore
SplineSet
3811 2439 m 0
 3811 2458 l 3
 2875 2458 3045.0336438 1215 2515 1215 c 3
 2257 1215 2239 1358 2322 1358 c 3
 2677 1358 2361 579 2289 277 c 1
 2308 273 l 1
 2381.8125 569.046875 2707 1377 2322 1377 c 3
 2219 1377 2220 1196 2515 1196 c 3
 3065.93012261 1196 2890 2439 3811 2439 c 0
2884 2114 m 1
 2167 1261 1267 525 238 0 c 1
 229 17 l 1
 1251 538 2158 1278 2869 2126 c 1
 2884 2114 l 1
2884 2114 m 1
 2418 1333 l 2
 2154 888 1703 -3 917 -3 c 3
 473 -3 244 384 244 674 c 3
 244 1428 1316 1571 1732 851 c 1
 1715 841 l 1
 1309 1545 264 1408 264 673 c 3
 264 402 477 32 917 32 c 3
 1549 32 2075 823 2400 1352 c 2
 2867 2123 l 1
 2884 2114 l 1
EndSplineSet
Layer: 2
SplineSet
2315 1281 m 3
 2209.92382812 1281 2182 1159 2383 1159 c 3
 3111 1159 2892 2439 3811 2439 c 0
 3811 2458 l 3
 2875 2458 3087 1178 2383 1178 c 3
 2224 1178 2229.99414062 1260 2314 1260 c 3
 2508.0234375 1260 2593.13183594 863.655273438 2034 148 c 9
 2049 136 l 17
 2616.4921875 862.356445312 2528.03710938 1281 2315 1281 c 3
2884 2114 m 1
 2167 1261 1267 525 238 0 c 1
 229 17 l 1
 1251 538 2158 1278 2869 2126 c 1
 2884 2114 l 1
2884 2114 m 1
 2418 1333 l 2
 2154 888 1703 -3 917 -3 c 3
 473 -3 244 384 244 674 c 3
 244 1428 1316 1571 1732 851 c 1
 1715 841 l 1
 1309 1545 264 1408 264 673 c 3
 264 402 477 32 917 32 c 3
 1549 32 2075 823 2400 1352 c 2
 2867 2123 l 1
 2884 2114 l 1
EndSplineSet
MultipleSubs2: "'ccmp' [Uppercase]" K K_
EndChar

StartChar: H
Encoding: 33 72 7
Width: 4648
VWidth: 0
Flags: HW
HStem: 0 21G<2386.53 2414> 782.816 20G<3115.9 3148.38> 853.656 14.7197<2702.62 2818.17> 2437.6 20G<4176.3 4360.8>
VStem: 323.839 25.9688<569.36 818.968>
AnchorPoint: "Cursive 1" 2861 853 exit 0
LayerCount: 6
Back
Refer: 184 -1 S 1 0 0 1 547 0 2
Fore
SplineSet
4344 2440 m 1
 3676 2143 3282 1590 2936 965 c 2
 2403 0 l 1
 2386 9 l 1
 2919 975 l 2
 3262 1599 3668 2161 4336 2458 c 1
 4344 2440 l 1
546 154 m 1
 386 293 304 501 304 674 c 0
 304 1391 1275 1556 1727 950 c 1
 2170 1306 2574 1703 2929 2126 c 1
 2944 2114 l 1
 2478 1333 l 2
 2214 888 1763 -3 977 -3 c 0
 807 -3 668 54 562 141 c 1
 475 93 387 45 298 0 c 1
 289 17 l 1
 375 61 461 107 546 154 c 1
1711 938 m 1
 1269 1531 324 1372 324 673 c 0
 324 506 405 300 571 168 c 1
 973 393 1354 653 1711 938 c 1
1738 934 m 1
 1757 908 1775 880 1792 851 c 1
 1775 841 l 1
 1759 869 1741 896 1723 922 c 1
 1368 638 989 380 588 155 c 1
 688 80 818 32 977 32 c 0
 1609 32 2135 823 2460 1352 c 1
 2866 2023 l 1
 2527 1631 2149 1265 1738 934 c 1
EndSplineSet
Layer: 2
SplineSet
4344 2440 m 1
 3676 2143 3282 1590 2936 965 c 1
 2403 0 l 1
 2386 9 l 1
 2919 975 l 1
 3262 1599 3668 2161 4336 2458 c 1
 4344 2440 l 1
  Spiro
    4344 2440 v
    3759.47 2064.93 o
    3305.97 1558.63 o
    2936 965 v
    2403 0 v
    2386 9 v
    2919 975 v
    3289.96 1570.25 o
    3748.48 2080.64 o
    4336 2458 v
    0 0 z
  EndSpiro
2944 2114 m 5
 2227 1261 1327 525 298 0 c 5
 289 17 l 5
 1310.76171875 537.61328125 2217.63964844 1278.234375 2929 2126 c 5
 2944 2114 l 5
2944 2114 m 5
 2478 1333 l 6
 2214 888 1762.59277344 -3 977 -3 c 7
 532.990234375 -3 304 383.916015625 304 674 c 7
 304 1428 1376.29492188 1571.02246094 1792 851 c 5
 1775 841 l 5
 1368.5 1545.07910156 324 1408 324 673 c 7
 324 402.44140625 536.862304688 32 977 32 c 7
 1609.01269531 32 2134.61035156 823.2421875 2460 1352 c 6
 2927 2123 l 5
 2944 2114 l 5
EndSplineSet
MultipleSubs2: "'ccmp' [Uppercase]" H A_
EndChar

StartChar: P
Encoding: 41 80 8
Width: 3386
VWidth: 0
Flags: HW
HStem: 16.3838 32.7686<824.334 1108.27> 1261.57 8.19141<2332.99 2355.49>
LayerCount: 6
Fore
SplineSet
2229 1196 m 0
 2784 1196 3115 1675 3034 2043 c 1
 3066 2060 3100 2077 3134 2094 c 1
 3123 2110 l 1
 3091 2094 3059 2078 3029 2062 c 1
 2971 2282 2762 2458 2360 2458 c 0
 830 2458 -354 0 596 0 c 0
 897 0 1307 215 1704 694 c 0
 1834 851 1944 1027 2077 1208 c 1
 2120 1201 2170 1196 2229 1196 c 0
3010 2052 m 1
 2533 1797 2254 1509 2039 1236 c 1
 1921 1265 1870 1315 1855 1329 c 1
 1842 1315 l 1
 1855 1304 1903 1251 2026 1219 c 1
 1890 1045 1779 878 1656 730 c 0
 1264 259 882 19 596 19 c 0
 -318 19 853 2439 2360 2439 c 0
 2751 2439 2955 2267 3010 2052 c 1
3015 2033 m 1
 3091 1677 2771 1215 2229 1215 c 0
 2176 1215 2130 1219 2090 1225 c 1
 2293 1499 2553 1785 3015 2033 c 1
EndSplineSet
Layer: 2
SplineSet
2229 1196 m 7
 3129.98632812 1196 3438.36621094 2458 2360 2458 c 7
 829.860351562 2458 -354.213867188 0 596 0 c 7
 897 0 1307 215 1704 694 c 4
 2050 1112 2256 1667 3134 2094 c 5
 3123 2110 l 5
 2240 1676 1989 1131 1656 730 c 4
 1264 259 882 19 596 19 c 7
 -317.69140625 19 852.813476562 2439 2360 2439 c 7
 3404 2439 3112.00097656 1215 2229 1215 c 7
 1970.765625 1215 1876 1309 1855 1329 c 13
 1842 1315 l 21
 1861.24511719 1300 1948.984375 1196 2229 1196 c 7
EndSplineSet
EndChar

StartChar: B
Encoding: 27 66 9
Width: 3380
VWidth: 0
Flags: HW
HStem: -122.332 10.9229<1271.84 1415.89> 16.3838 32.7686<471.96 755.955> 1219.7 14.2236<2066.6 2248.58> 1327.1 8.19238<1446.7 1456.33>
VStem: 809.16 32.7676<293.858 631.687> 1962.55 13.959<1287.15 1340.11>
LayerCount: 6
Fore
SplineSet
3158 2094 m 1
 2280 1667 2074 1112 1728 694 c 0
 1331 215 921 0 620 0 c 3
 -330.213867188 0 853.860351562 2458 2384 2458 c 3
 3462.36621094 2458 3153.98632812 1196 2253 1196 c 3
 1958 1196 1957 1377 2060 1377 c 3
 2108.76464844 1377 2293.36425781 1323.57128906 2293.36425781 914 c 3
 2293.36425781 359.995117188 1798.01953125 -271 1165 -271 c 3
 268 -271 528 924 1411 1176 c 1
 1416 1157 l 1
 517 894 330 -252 1165 -252 c 3
 1792 -252 2273.56445312 375.873046875 2273.56445312 914 c 3
 2273.56445312 1277.18457031 2126.70800781 1358 2060 1358 c 3
 1976.78320312 1358 1994.765625 1215 2253 1215 c 3
 3136.00097656 1215 3428 2439 2384 2439 c 3
 876.813476562 2439 -293.69140625 19 620 19 c 3
 906 19 1288 259 1680 730 c 0
 2013 1131 2264 1676 3147 2110 c 1
 3158 2094 l 1
EndSplineSet
Layer: 2
SplineSet
3034.06640625 2052.09570312 m 1
 2978.88769531 2267.07617188 2775.27148438 2439 2384 2439 c 0
 876.813476562 2439 -293.69140625 19 620 19 c 0
 628.048828125 19 636.174804688 19.1904296875 644.374023438 19.5703125 c 1
 494.55859375 390.130859375 807.0546875 1003.63964844 1411 1176 c 1
 1416 1157 l 1
 797.790039062 976.14453125 516.271484375 377.733398438 672.252929688 21.56640625 c 1
 951.665039062 48.4921875 1311.41210938 287.130859375 1680 730 c 0
 1806.33105469 882.12890625 1920.86035156 1054.98242188 2062.57324219 1234.63769531 c 1
 1966.63867188 1287.79882812 1987.69238281 1377 2060 1377 c 0
 2077.53320312 1377 2112.62792969 1370.09277344 2150.38769531 1342.20703125 c 1
 2353.95898438 1582.49316406 2618.51660156 1829.83691406 3034.06640625 2052.09570312 c 1
2074.37890625 1249.54003906 m 1
 2095.203125 1275.70996094 2116.625 1302.01660156 2138.76367188 1328.41601562 c 1
 2109.30761719 1350.16601562 2080.76953125 1358 2060 1358 c 0
 2003.40429688 1358 1993.6171875 1291.85742188 2074.37890625 1249.54003906 c 1
2222.8828125 1215.68066406 m 1
 2207.15820312 1251.40332031 2188.98925781 1278.87011719 2170.19433594 1299.69726562 c 1
 2152.56933594 1277.046875 2135.41015625 1254.44238281 2118.63476562 1231.91015625 c 1
 2146.76269531 1223.52246094 2181.26757812 1217.61035156 2222.8828125 1215.68066406 c 1
2244.12792969 1215.05664062 m 0
 2247.05273438 1215.01953125 2250.01074219 1215 2253 1215 c 0
 2795.30957031 1215 3114.69335938 1676.69335938 3038.56152344 2032.96679688 c 1
 2626.109375 1811.51953125 2375.34667969 1560.59765625 2181.65234375 1314.34277344 c 1
 2203.95507812 1290.69238281 2225.77539062 1258.53710938 2244.12792969 1215.05664062 c 0
2251.66796875 1196.00097656 m 1
 2276.52148438 1128.93261719 2293.36425781 1037.71289062 2293.36425781 914 c 0
 2293.36425781 359.995117188 1798.01953125 -271 1165 -271 c 0
 891.990234375 -271 726.158203125 -160.302734375 652.448242188 0.814453125 c 1
 641.499023438 0.2705078125 630.680664062 0 620 0 c 0
 -330.213867188 0 853.860351562 2458 2384 2458 c 0
 2786.25292969 2458 2995.54785156 2282.39941406 3053.10351562 2062.20410156 c 1
 3083.58886719 2078.27539062 3114.87597656 2094.2109375 3147 2110 c 1
 3158 2094 l 1
 3123.54199219 2077.2421875 3090.11914062 2060.28710938 3057.68261719 2043.15039062 c 1
 3138.44824219 1675.30957031 2808.26074219 1196 2253 1196 c 0
 2252.55566406 1196 2252.11132812 1196.00097656 2251.66796875 1196.00097656 c 1
2230.83007812 1196.35253906 m 1
 2180.46875 1197.98339844 2139.45898438 1205.16796875 2106.69726562 1215.80078125 c 1
 1970.93457031 1031.76953125 1859.59277344 852.9765625 1728 694 c 0
 1357.19824219 246.609375 975.055664062 29.525390625 680.978515625 2.8232421875 c 1
 755.850585938 -148.775390625 914.397460938 -252 1165 -252 c 0
 1792 -252 2273.56445312 375.873046875 2273.56445312 914 c 0
 2273.56445312 1038.67480469 2256.25878906 1130.07421875 2230.83007812 1196.35253906 c 1
EndSplineSet
EndChar

StartChar: R
Encoding: 43 82 10
Width: 3531
VWidth: 0
Flags: HW
HStem: 0 19<570.368 737.43> 1196 19<2182.45 2404.46> 1358 19<2059.6 2144.24> 2090 20G<2735.5 3188> 2439 19<2272.69 2554.31>
VStem: 2057 19<273 302.214>
AnchorPoint: "Cursive 1" 2067 276 exit 0
LayerCount: 6
Back
Refer: 218 -1 S 1 0 0 1 126 0 2
Fore
SplineSet
2057 277 m 1
 2129 579 2445 1358 2090 1358 c 3
 2007 1358 2025 1215 2283 1215 c 3
 3166 1215 3458 2439 2414 2439 c 3
 907 2439 -264 19 650 19 c 3
 936 19 1318 259 1710 730 c 0
 2043 1131 2294 1676 3177 2110 c 1
 3188 2094 l 1
 2310 1667 2104 1112 1758 694 c 0
 1361 215 951 0 650 0 c 3
 -300 0 884 2458 2414 2458 c 3
 3492 2458 3184 1196 2283 1196 c 3
 1988 1196 1987 1377 2090 1377 c 3
 2475 1377 2149.8125 569.046875 2076 273 c 1
 2057 277 l 1
EndSplineSet
MultipleSubs2: "'ccmp' [Uppercase]" R K_
EndChar

StartChar: G
Encoding: 32 71 11
Width: 3048
VWidth: 0
Flags: HW
HStem: 16.3838 32.7686<975.012 1239.76> 622.592 16.3838<1462.9 1634.51>
VStem: 407.199 26.1348<569.264 818.977> 2802.13 8.21582<2321.86 2380.92>
LayerCount: 6
Fore
SplineSet
1397.47460938 779.072265625 m 1
 1120.05078125 546.428710938 826.802734375 333.729492188 521.502929688 150.321289062 c 1
 628.391601562 73.5830078125 768.853515625 26 941 26 c 0
 1190 26 1471 141 1706 375 c 0
 1955.31445312 623.404296875 2149.15722656 902.442382812 2361.35644531 1177.4609375 c 1
 1859.78027344 745.291992188 1536.30078125 663.833007812 1397.47460938 779.072265625 c 1
1414.12304688 793.07421875 m 1
 1555.16308594 681.359375 1893.046875 780.02734375 2425 1259 c 1
 2440 1247 l 1
 2149 883 1927 523 1727 327 c 0
 1498 104 1209 0 941 0 c 0
 756.5234375 0 607.49609375 51.8134765625 495.625976562 134.864257812 c 1
 416.52734375 87.8798828125 336.629882812 42.8720703125 256 0 c 1
 246 20 l 1
 323.807617188 61.37109375 400.763671875 104.53515625 476.840820312 149.379882812 c 1
 48.62109375 493.735351562 210.166992188 1314 1069 1314 c 0
 1187.30664062 1314 1290.16699219 1293.09863281 1380.59863281 1259.87011719 c 1
 1494.90527344 1551.0703125 1770.32226562 1917.59863281 2212 2238.49609375 c 0
 2829.34863281 2687.02539062 2894.828125 2383.66210938 2545 1952 c 0
 2293.63378906 1641.83203125 2014.14355469 1339.03417969 1712.140625 1057.50292969 c 1
 1763.61328125 1013.87402344 1809.26660156 970.576171875 1851 933 c 1
 1838 919 l 1
 1794.92382812 957.78515625 1748.92285156 1001.16503906 1697.93554688 1044.29199219 c 1
 1605.375 958.411132812 1510.71679688 874.540039062 1414.12304688 793.07421875 c 1
1399.66210938 805.943359375 m 1
 1496.30273438 887.088867188 1590.94042969 970.672851562 1683.49902344 1056.37988281 c 1
 1601.61132812 1124.234375 1506.85058594 1190.3359375 1391.140625 1235.69335938 c 1
 1318.05859375 1041.03222656 1321.11816406 884.342773438 1399.66210938 805.943359375 c 1
1383.26171875 792.211914062 m 1
 1301.87402344 875.904296875 1298.140625 1039.89355469 1373.84667969 1242.25878906 c 1
 1285.40332031 1274.74023438 1184.92773438 1295 1069 1295 c 0
 225.885742188 1295 80.5283203125 493.68359375 502.466796875 164.569335938 c 1
 811.280273438 348.614257812 1105.48535156 560.311523438 1383.26171875 792.211914062 c 1
1697.73242188 1069.59277344 m 1
 1998.08203125 1349.06152344 2276.39160156 1650.81933594 2530 1964 c 0
 2866.05664062 2378.99609375 2819.24511719 2655.55566406 2223 2222.35839844 c 0
 1785.28027344 1904.33691406 1510.9296875 1539.87988281 1397.91796875 1253.29882812 c 1
 1517.59667969 1206.4453125 1615.07519531 1138.22460938 1697.73242188 1069.59277344 c 1
EndSplineSet
Layer: 2
SplineSet
2425 1259 m 21
 2187 958 1980 648 1706 375 c 4
 1471 141 1190 26 941 26 c 7
 52 26 8 1295 1069 1295 c 7
 1454.046875 1295 1668.63769531 1071.49511719 1838 919 c 5
 1851 933 l 5
 1687.93164062 1079.82714844 1465 1314 1069 1314 c 7
 -18 1314 12 0 941 0 c 7
 1209 0 1498 104 1727 327 c 4
 1927 523 2149 883 2440 1247 c 5
 2425 1259 l 21
246 20 m 5
 1130.71386719 490.41015625 1905.29296875 1192.55078125 2530 1964 c 4
 2866.05664062 2378.99609375 2819.24511719 2655.55566406 2223 2222.35839844 c 4
 972.259765625 1313.64257812 1055.38378906 25.7919921875 2425 1259 c 5
 2438 1245 l 5
 1048.49023438 -6.1201171875 931.301757812 1308.01464844 2212 2238.49609375 c 4
 2829.34863281 2687.02539062 2894.828125 2383.66210938 2545 1952 c 4
 1925.02636719 1186.99804688 1133.9765625 466.828125 256 0 c 5
 246 20 l 5
  Spiro
    246 20 v
    1091.72 561.031 o
    1857.53 1222.38 o
    2530 1964 o
    2732.2 2311.43 o
    2642.02 2440.11 o
    2223 2222.36 o
    1415.49 1295.52 o
    1486.48 758.606 o
    2425 1259 v
    2438 1245 v
    1477.78 739.615 o
    1392.98 1290.21 o
    2212 2238.5 o
    2650.19 2459.47 o
    2751.28 2317.52 o
    2545 1952 o
    1871.84 1210.38 o
    1101.07 542.941 o
    256 0 v
    0 0 z
  EndSpiro
EndSplineSet
EndChar

StartChar: S
Encoding: 44 83 12
Width: 3811
VWidth: 0
Flags: HW
HStem: 0 21G<616.576 837.857>
VStem: 855.721 25.6328<574.093 818.976>
LayerCount: 6
Fore
SplineSet
2376 1070 m 1
 1937 720 1380 355 797 136 c 1
 901 68 1034 26 1195 26 c 0
 1444 26 1726 140 1960 375 c 0
 2156 572 2260 803 2376 1070 c 1
2392 1108 m 1
 2515 1391 2659 1714 2946 2081 c 0
 3439 2712 3777 2517 3129 1772 c 0
 2979 1599 2729 1356 2415 1102 c 1
 2279 785 2175 516 1981 327 c 0
 1752 104 1463 0 1195 0 c 0
 1019 0 875 47 765 124 c 1
 628 74 490 32 352 0 c 1
 347 19 l 1
 480 50 614 90 746 138 c 1
 299 475 454 1314 1323 1314 c 0
 1719 1314 1943 1081 2105 933 c 1
 2092 919 l 1
 1924 1073 1679 1295 1323 1295 c 0
 467 1295 330 468 777 149 c 1
 1377 372 1948 750 2392 1108 c 1
2432 1140 m 1
 2732 1385 2970 1620 3115 1786 c 0
 3468 2192 3495 2389 3448 2430 c 0
 3400 2471 3212 2391 2961 2069 c 0
 2703 1739 2554 1421 2432 1140 c 1
EndSplineSet
Layer: 2
SplineSet
2961 2069 m 4
 2396.88769531 1346.96972656 2352.36035156 688.629882812 1981 327 c 4
 1752 104 1463 0 1195 0 c 7
 266 0 236 1314 1323 1314 c 7
 1719 1314 1943 1081 2105 933 c 5
 2092 919 l 5
 1924 1073 1679 1295 1323 1295 c 7
 262 1295 306 26 1195 26 c 7
 1444 26 1725.92382812 140.076171875 1960 375 c 4
 2371.24902344 787.737304688 2372.26464844 1346.65234375 2946 2081 c 4
 3439.17675781 2712.23730469 3776.65527344 2517.04199219 3129 1772 c 4
 2712.96679688 1293.40820312 1536.58105469 273.482421875 352 0 c 5
 347 19 l 5
 1533.69921875 292.970703125 2703.83691406 1313.01074219 3115 1786 c 4
 3467.89550781 2191.95996094 3495 2389 3447.54101562 2430 c 4
 3399.72363281 2471.30957031 3212.35644531 2390.72167969 2961 2069 c 4
EndSplineSet
EndChar

StartChar: L
Encoding: 37 76 13
Width: 3234
VWidth: 0
Flags: HW
HStem: 0 8.19238<2291.89 2364.47>
VStem: 1826.46 49.1523<366.068 700.37> 3047.63 11.5137<508.947 691.324>
AnchorPoint: "Cursive 1" 490 114 exit 0
LayerCount: 6
Back
Refer: 229 -1 S 1 0 0 1 -156 0 2
Fore
SplineSet
490 124 m 3
 351.985351562 124 305 0 490 0 c 3
 741 0 1141.36328125 79.865234375 1475.75 416 c 0
 2193 1137 2546.76269531 2435 2903 2435 c 3
 3139.03417969 2435 2908.66699219 1386.50683594 333 17 c 9
 342 0 l 1
 2940.89453125 1381.85644531 3184.04492188 2454 2903 2454 c 3
 2401.70507812 2454 1857.0234375 19 490 19 c 3
 321.98828125 19 387.995117188 105 490 105 c 0
 490 124 l 3
EndSplineSet
MultipleSubs2: "'ccmp' [Uppercase]" L L_
EndChar

StartChar: X
Encoding: 49 88 14
Width: 3793
VWidth: 0
Flags: HW
HStem: 0 21G<453.081 508.001 1048.67 1143.07> 799.2 20G<3100.47 3137.63> 2437.6 20G<3443.29 3555.42>
AnchorPoint: "Cursive 1" 1485 276 exit 0
LayerCount: 6
Back
Refer: 218 -1 S 1 0 0 1 -456 0 2
Fore
SplineSet
1475 277 m 1
 1598.96386719 813.946289062 2473 1989 3470 2452 c 257
 3477 2436 l 257
 2515 1976 1614.35546875 794.317382812 1494 273 c 1
NamedP: "77 degree"
 1475 277 l 1
EndSplineSet
Refer: 214 -1 N 1 0 0 1 -474 0 2
MultipleSubs2: "'ccmp' [Uppercase]" X K_
EndChar

StartChar: W
Encoding: 48 87 15
Width: 3641
VWidth: 0
Flags: HW
HStem: 0 19<289 1689> 1239 19<3241.98 3360> 2013 20G<2585.5 2654.5>
AnchorPoint: "Cursive 1" 292 9 entry 0
LayerCount: 6
Back
Refer: 215 -1 S 1 0 0 1 -618 0 2
Fore
SplineSet
2825 2033 m 1
 2484 1383 2183 724 1922 7 c 1
 1940 0 l 1
 2266 613 2681 1239 3360 1239 c 1
 3360 1258 l 1
 2716 1258 2308 707 1987 127 c 1
 2294 949 2655 1698 3071 2449 c 1
 3054 2458 l 1
 2546 1578 1929 552 289 19 c 1
 294 0 l 1
 1689 452 2346 1259 2825 2033 c 1
EndSplineSet
Layer: 2
SplineSet
1940 0 m 5
 2265.87304688 612.876953125 2681.17871094 1239 3360 1239 c 4
 3360 1258 l 7
 2672 1258 2253.3203125 630.2421875 1923 9 c 5
 1940 0 l 5
  Spiro
    1940 0 v
    2304.5 598.282 o
    2764.48 1056.93 o
    3360 1239 o
    3360 1258 o
    2755.6 1072.59 o
    2289.07 608.367 o
    1923 9 v
    0 0 z
  EndSpiro
3071 2449 m 5
 3054 2458 l 5
 2616.44921875 1668.63867188 2239.86328125 880.322265625 1922 7 c 5
 1940 0 l 5
 2257.25097656 871.639648438 2633.30859375 1659.38476562 3071 2449 c 5
294 0 m 5
 1942 534 2559.96484375 1563.86132812 3071 2449 c 5
 3054 2458 l 5
 2546.20019531 1578.46484375 1928.62109375 551.745117188 289 19 c 5
 294 0 l 5
EndSplineSet
MultipleSubs2: "'ccmp' [Uppercase]" XW W
EndChar

StartChar: Z
Encoding: 51 90 16
Width: 3486
VWidth: 0
Flags: HW
HStem: -1 21G<2305.5 2359> 799 20G<4452 4734>
AnchorPoint: "Cursive 1" 402 -1620 exit 0
LayerCount: 6
Back
Refer: 142 -1 S 1 0 0 1 1056 0 2
Fore
SplineSet
1123 -1102 m 0
 569 -1717 420 -1642 396 -1627 c 9
 396 -1625 l 25
 405 -1614 l 25
 408 -1612 l 1
 453 -1639 636.120117188 -1614.10839844 1109 -1089 c 0
 2109.22558594 21.6982421875 1951.00390625 219 1804 219 c 3
 1632.98828125 219 1423.95410156 19 1519 19 c 3
 1842 19 2497.46582031 709.732421875 2768 1056 c 0
 3757.04785156 2321.92382812 2724 3081 1655 1712 c 0
 1237 1177 1122 477 1223 4 c 1
 1204 0 l 1
 1101 483 1213 1177 1641 1725 c 0
 2734 3124 3821.20605469 2319.84472656 2808 1023 c 0
 2528.47167969 665.219726562 1846 0 1519 0 c 3
 1371 0 1607 238 1804 238 c 3
 1969 238 2159 48 1123 -1102 c 0
EndSplineSet
MultipleSubs2: "'ccmp' [Uppercase]" Z g_
EndChar

StartChar: Q
Encoding: 42 81 17
Width: 2868
VWidth: 0
Flags: HW
HStem: 0 8<1220.1 1602.23> 2465 8<2102.57 2257.61>
VStem: 918 5<780.064 955.591> 3006 36<1406.74 1451 1584 1768.01>
AnchorPoint: "Cursive 1" 467 114 exit 0
LayerCount: 6
Back
Refer: 229 -1 S 1 0 0 1 -179 0 2
Fore
SplineSet
467 124 m 3
 328.985351562 124 335 0 465 0 c 3
 1227.80371094 0 1846.92089844 610.57421875 2184.87304688 1023 c 0
 3228 2296 2111.40625 3124.49511719 1018 1724.99902344 c 0
 589.801757812 1176.9296875 478.40625 482.666992188 581 0 c 1
 600 4 l 1
 498.466796875 481.678710938 613.891601562 1176.84472656 1032 1711.99902344 c 0
 2101.48242188 3080.87402344 3176 2288 2145 1056 c 0
 1807.93066406 653.216796875 1203.03320312 19 465 19 c 3
 360.995117188 19 364.995117188 105 467 105 c 0
 467 124 l 3
EndSplineSet
MultipleSubs2: "'ccmp' [Uppercase]" Q L_
EndChar

StartChar: C
Encoding: 28 67 18
Width: 2770
VWidth: 0
Flags: HW
HStem: 0 21G<284 453.922>
VStem: 1194 37<396.346 711.158> 2353 19<635.459 825.43>
LayerCount: 6
Fore
SplineSet
1375 545 m 1
 1505.86035156 1218.21972656 2372 1340 2372 735 c 0
 2372 -9.880859375 1194 -372 1194 550 c 0
 1194 607.428710938 1199.140625 668.140625 1209.97265625 731.998046875 c 1
 921.141601562 478.079101562 611.842773438 238.057617188 296 0 c 1
 284 15 l 1
 606.565429688 258.125 922.032226562 503.297851562 1215.61914062 762.927734375 c 1
 1297.5546875 1182.37304688 1621.23535156 1732.45800781 2336 2376 c 0
 2458 2486 2596 2516 2471 2271 c 0
 2176.36132812 1692.79492188 1751.56542969 1215.61230469 1265.03808594 780.802734375 c 1
 1241.85742188 691.358398438 1231 614.104492188 1231 552 c 0
 1231 -358 2353 30 2353 735 c 0
 2353 1315 1520.40820312 1191.94824219 1394 542 c 1
 1375 545 l 1
1274.45800781 815.42578125 m 1
 1750.80371094 1244.30664062 2165.6875 1714.27636719 2454 2280 c 0
 2569 2505 2454 2457 2348 2361 c 0
 1706.63671875 1783.30175781 1383.42578125 1198.18945312 1274.45800781 815.42578125 c 1
EndSplineSet
Layer: 2
SplineSet
1375 545 m 5
 1505.86035156 1218.21972656 2372 1340 2372 735 c 7
 2372 -9.880859375 1194 -372 1194 550 c 7
 1194 988 1493 1617 2336 2376 c 4
 2458 2486 2596 2516 2471 2271 c 4
 1992 1331 1169 658 296 0 c 5
 284 15 l 21
 1157 673 1978 1346 2454 2280 c 4
 2569 2505 2454 2457 2348 2361 c 4
 1532 1626 1231 879 1231 552 c 7
 1231 -358 2353 30 2353 735 c 7
 2353 1315 1520.40820312 1191.94824219 1394 542 c 5
 1375 545 l 5
EndSplineSet
EndChar

StartChar: D
Encoding: 29 68 19
Width: 3935
VWidth: 0
Flags: HW
HStem: 0 19<1752.85 2032.55> 800 19<841.4 956> 2438 20<2960.21 3160.19>
VStem: 1206 19<819 1804>
LayerCount: 6
Fore
SplineSet
1225 819 m 17
 1462 1804 2507.96777344 2438 3060 2438 c 3
 4184.21582031 2438 3524.08789062 19 1880 19 c 3
 1157.74316406 19 1291 819 905 819 c 3
 216 819 -145.645507812 -1191.65332031 1067 1089 c 1
 1050 1098 l 1
 521.821289062 104.641601562 341.452148438 -0.9814453125 306.831054688 19 c 0
 215 72 500.749023438 800 905 800 c 3
 1269 800 1142 0 1880 0 c 3
 3553 0 4224.20800781 2458 3060 2458 c 3
 2359.51757812 2458 1450 1858 1206 819 c 1
 1225 819 l 17
EndSplineSet
EndChar

StartChar: E
Encoding: 30 69 20
Width: 2532
VWidth: 0
Flags: HW
HStem: 2449 9<1476.03 1822>
LayerCount: 6
Fore
SplineSet
2224 2458 m 3
 1890 2458 1709 2198 1709 2019 c 3
 1709 1732 2040 1927 2040 2193 c 3
 2040 2650 1252 2481.09472656 1252 1952 c 3
 1252 1586.97851562 1586 1526.82617188 1586 1599 c 3
 1586 1627 1539 1659 1463 1659 c 3
 984 1659 280 1261 280 582 c 3
 280 -506 1811 92 1811 1016 c 3
 1811 2095 192 1299 453 319 c 1
 472 323 l 1
 218 1268 1792 2062 1792 1016 c 3
 1792 128 323 -460.0234375 323 573 c 3
 323 1281 1010.86621094 1640 1463 1640 c 3
 1528 1640 1567 1617 1567 1599 c 3
 1567 1561 1271 1606.99414062 1271 1952 c 3
 1271 2454.00097656 2021 2626 2021 2193 c 3
 2021 1974 1741 1762 1741 2019 c 3
 1741 2188 1900 2439 2224 2439 c 0
 2224 2458 l 3
EndSplineSet
EndChar

StartChar: I
Encoding: 34 73 21
Width: 2561
VWidth: 0
Flags: HW
VStem: 888 19<0 262.489>
LayerCount: 6
Fore
SplineSet
888 0 m 1
 907 0 l 1
 903 117 910 237 928 360 c 1
 1353 683 1716 1157 2012 1714 c 0
 2510 2651 2165 2692 1575 1897 c 0
 1263 1476 997 926 914 396 c 1
 693 224 467 96 245 18 c 1
 251 0 l 1
 483 75 702 192 906 344 c 1
 890 228 884 112 888 0 c 1
937 414 m 1
 1024 935 1287 1480 1590 1885 c 0
 2174 2664 2477 2633 1994 1724 c 0
 1701 1172 1329 725 937 414 c 1
EndSplineSet
Layer: 2
SplineSet
888 0 m 5
 907 0 l 5
 885.030273438 629.140625 1204.76464844 1370.90136719 1590 1885 c 4
 2173.83398438 2664.12988281 2477.33984375 2633.03027344 1994 1724 c 4
 1530.01171875 851.365234375 868 238 245 18 c 5
 251 0 l 5
 978 234 1569.35449219 881.50390625 2012 1714 c 4
 2510.02050781 2650.63964844 2164.67480469 2692 1575 1897 c 4
 1184.21875 1370.1484375 865.65625 639.83984375 888 0 c 5
EndSplineSet
EndChar

StartChar: J
Encoding: 35 74 22
Width: 3539
VWidth: 0
Flags: HW
VStem: 3090.6 16<0 43.3771>
AnchorPoint: "Cursive 1" 294.601 -1620 exit 0
LayerCount: 6
Back
Refer: 142 -1 S 1 0 0 1 948.6 0 2
Fore
SplineSet
288.600585938 -1627 m 1
 350.600585938 -1667 509.600585938 -1598 728.600585938 -1373 c 0
 955.022460938 -1140.375 1083.39648438 -933.286132812 1230.60058594 -744 c 2
 2101.60058594 376 l 2
 2381.60058594 736 2875.60058594 1413 3035.60058594 1714 c 0
 3533.60058594 2651 3173.60058594 2692 2583.60058594 1897 c 0
 2192.60058594 1370 1744.60058594 513 1793.60058594 -187 c 1
 1812.60058594 -186 l 1
 1764.60058594 503 2213.60058594 1371 2598.60058594 1885 c 0
 3182.60058594 2664 3500.60058594 2633 3017.60058594 1724 c 0
 2853.60058594 1415 2370.60058594 749 2087.60058594 389 c 2
 1211.60058594 -728 l 2
 1058.60058594 -924 910.540039062 -1131 700.600585938 -1345 c 0
 470.620117188 -1579.42871094 343.600585938 -1640 300.600585938 -1612 c 9
 297 -1613 l 25
 288 -1624 l 25
 288.600585938 -1627 l 1
EndSplineSet
Layer: 2
SplineSet
288.600585938 -1627 m 1
 223.600585938 -1585 269.600585938 -1418 479.600585938 -1153 c 0
 892.600585938 -632 1727.60058594 73 3131.60058594 819 c 1
 3140.60058594 802 l 1
 1736.60058594 56 907.600585938 -645 494.600585938 -1165 c 0
 299.600585938 -1410 245.600585938 -1577 300.600585938 -1612 c 1
 288.600585938 -1627 l 1
2087.60058594 389 m 2
 1211.60058594 -728 l 2
 1058.60058594 -924 910.540039062 -1131 700.600585938 -1345 c 0
 470.620117188 -1579.42871094 343.600585938 -1640 300.600585938 -1612 c 1
 288.600585938 -1627 l 1
 350.600585938 -1667 509.600585938 -1598 728.600585938 -1373 c 0
 955.022460938 -1140.375 1083.39648438 -933.286132812 1230.60058594 -744 c 2
 2101.60058594 376 l 2
 2381.60058594 736 2875.60058594 1413 3035.60058594 1714 c 0
 3533.60058594 2651 3173.60058594 2692 2583.60058594 1897 c 0
 2192.60058594 1370 1744.60058594 513 1793.60058594 -187 c 1
 1812.60058594 -186 l 1
 1764.60058594 503 2213.60058594 1371 2598.60058594 1885 c 0
 3182.60058594 2664 3500.60058594 2633 3017.60058594 1724 c 0
 2853.60058594 1415 2370.60058594 749 2087.60058594 389 c 2
EndSplineSet
Refer: 130 -1 N 1 0 0 1 948.6 0 2
MultipleSubs2: "'ccmp' [Uppercase]" J g_
EndChar

StartChar: Y
Encoding: 50 89 24
Width: 3589
VWidth: 0
Flags: HW
AnchorPoint: "Cursive 1" 528 -1620 exit 0
AnchorPoint: "Cursive 1" 3238 1633 entry 0
LayerCount: 6
Back
Refer: 140 -1 S 1 0 0 1 3128 1490 2
Refer: 142 -1 S 1 0 0 1 1823.09 819 2
Fore
SplineSet
534 -1612 m 1
 575.93359375 -1639.23242188 721.735351562 -1592.1171875 950 -1386.58691406 c 0
 1102.87207031 -1248.94042969 1284.15332031 -1035.15429688 1503 -735 c 2
 3230 1638 l 1
 3245 1626 l 1
 1519 -746 l 2
 1308.32324219 -1034.99414062 1124.51464844 -1255.57128906 963 -1401 c 0
 745.19921875 -1597.10839844 583.684570312 -1667.05859375 522 -1627 c 9
 522 -1624 l 25
 532 -1612 l 25
 534 -1612 l 1
EndSplineSet
MultipleSubs2: "'ccmp' [Uppercase]" UY Y g_
EndChar

StartChar: V
Encoding: 47 86 25
Width: 2933
VWidth: 0
Flags: HW
LayerCount: 6
Fore
SplineSet
647 0 m 1
 348.274414062 382.350585938 205.95703125 1001.69628906 314 1510 c 0
 648.903320312 3085.59570312 2660 2553 1534 967 c 0
 1322 668 803 19 1044 19 c 3
 1209.98730469 19 1553.35546875 503.455078125 1911 945.735351562 c 0
 2184.94042969 1284.50292969 2473.64648438 1596.32421875 2710 1638 c 1
 2713 1619 l 1
 2178.71191406 1521.1875 1362 0 1044 0 c 3
 772 0 1247.82617188 674.866210938 1476 983 c 0
 2626 2536 661.456054688 3051.265625 333 1506 c 0
 226.443359375 1004.68945312 365.01953125 392.397460938 663 11 c 1
 647 0 l 1
EndSplineSet
EndChar

StartChar: _r
Encoding: 80 -1 52
Width: 1599
VWidth: 0
Flags: HW
HStem: 0 21G<56 225.5> 799 20G<1395.5 1523>
AnchorPoint: "Cursive 1" 1504 812 exit 0
LayerCount: 6
Back
Refer: 143 -1 S 1 0 0 1 1339 0 2
Fore
SplineSet
94 19 m 1
 690 116 1236 588 1498 819 c 1
 1510 804 l 1
 1247 572 697 97 97 0 c 1
 94 19 l 1
EndSplineSet
Substitution2: "Substitute with nulls" null1
Comment: "It is for initial part of 'r' and 's'."
Colour: 5bfff
EndChar

StartChar: _a
Encoding: 82 -1 53
Width: 1447
VWidth: 0
Flags: HW
HStem: 798 21<1048.77 1317>
AnchorPoint: "Cursive 1" 856 819 entry 0
AnchorPoint: "Cursive 1" 1342 814 exit 0
LayerCount: 6
Back
Refer: 160 -1 N 1 0 0 1 -56 0 2
Fore
SplineSet
1317 798 m 1
 1111 526 736 236 515 127 c 0
 -5 -130 47 126 260 374 c 0
 608 779 1029 806 1317 798 c 1
1359 819 m 1
 915 819 609 803 242 384 c 0
 19 129 -27 -162 524 108 c 0
 755 221 1128 516 1359 819 c 1
EndSplineSet
Comment: "It is one of part of 'a'."
Colour: bdbdbd
EndChar

StartChar: P001
Encoding: 83 -1 54
Width: 1587
VWidth: 0
Flags: HW
HStem: 784 19<1417.32 1501>
AnchorPoint: "Cursive 1" 1501 795 exit 0
LayerCount: 6
Fore
SplineSet
95 0 m 1
 236 234 587 703 1501 784 c 1
 1501 803 l 1
 578 718 226 254 79 8 c 1
 95 0 l 1
EndSplineSet
Substitution2: "Substitute with nulls" null1
Comment: "It was for initial part of glyphs like 'a'."
Colour: 129eff
EndChar

StartChar: a.0
Encoding: 84 -1 55
Width: 752
VWidth: 0
Flags: W
HStem: 148 659
AnchorPoint: "Cursive 1" 110 143 exit 0
AnchorPoint: "Cursive 1" 635 814 entry 0
LayerCount: 6
Back
Refer: 140 -1 N 1 0 0 1 525 671 2
Refer: 140 -1 S 1 0 0 1 0 0 2
Refer: 139 -1 N 1 0 0 1 0 0 2
Fore
SplineSet
102 146 m 25
 115 136 l 25
 117 136 l 1
 642 807 l 1
 627 819 l 1
 102 148 l 1
 102 146 l 25
EndSplineSet
Comment: "It is one of parts of glyphs like 'a'."
Colour: bdbdbd
EndChar

StartChar: d.0
Encoding: 85 -1 56
Width: 1394
VWidth: 0
Flags: HW
HStem: 819 807
AnchorPoint: "Cursive 1" 110 143 exit 0
AnchorPoint: "Cursive 1" 635 814 entry 0
LayerCount: 6
Back
Refer: 140 -1 S 1 0 0 1 525 671 2
Refer: 140 -1 N 1 0 0 1 0 0 2
Refer: 140 -1 N 1 0 0 1 1166 1490 2
Fore
SplineSet
102 146 m 25
 115 136 l 25
 117 136 l 1
 1283 1626 l 1
 1268 1638 l 1
 102 148 l 1
 102 146 l 25
EndSplineSet
Comment: "It is one of parts of 'd'."
Colour: d9d9d9
EndChar

StartChar: _g.0
Encoding: 86 -1 57
Width: 2633
VWidth: 0
Flags: HW
AnchorPoint: "Cursive 1" 392 -1620 exit 0
AnchorPoint: "Cursive 1" 2461 814 entry 0
LayerCount: 6
Back
Refer: 140 -1 S 1 0 0 1 2351 671 2
Refer: 142 -1 S 1 0 0 1 1046 0 2
Fore
SplineSet
398 -1612 m 1
 439.93359375 -1639.23242188 585.735351562 -1592.1171875 814 -1386.58691406 c 0
 966.872070312 -1248.94042969 1154.04199219 -1039.45019531 1367 -735 c 2
 2453 819 l 1
 2468 807 l 1
 1383 -746 l 2
 1178.04589844 -1039.16699219 988.514648438 -1255.57128906 827 -1401 c 0
 609.19921875 -1597.10839844 447.684570312 -1667.05859375 386 -1627 c 9
 386 -1624 l 25
 396 -1612 l 25
 398 -1612 l 1
EndSplineSet
Comment: "it is one of parts of glyphs like 'g'."
Colour: bd8582
EndChar

StartChar: q_
Encoding: 87 -1 58
Width: 2594
VWidth: 0
Flags: HW
HStem: 800 19<2269.43 2308>
AnchorPoint: "Cursive 1" 2313 812 exit 0
AnchorPoint: "Cursive 1" 1534 812 entry 0
LayerCount: 6
Back
Refer: 140 -1 N 1 0 0 1 1990 397 2
Refer: 140 -1 N 1 0 0 1 1211 397 2
Refer: 135 -1 N 1 0 0 1 900 0 2
Fore
SplineSet
1526 819 m 25
 310 -737 l 2
 116 -984 242.931640625 -1082.14550781 461 -782 c 0
 939.45703125 -123.459960938 1480.76171875 654.135742188 2308 800 c 1
 2305 819 l 1
 1467.5390625 671.333007812 924.233398438 -111.767578125 446 -770 c 0
 342.27734375 -912.762695312 257.596679688 -959.98828125 240 -947.817382812 c 0
 221.430664062 -934.973632812 240.254882812 -856.909179688 323 -751 c 10
 1541 807 l 1
 1526 819 l 25
  Spiro
    1526 819 v
    310 -737 ]
    214.472 -925.023 o
    281.953 -958.558 o
    461 -782 o
    968.124 -112.236 o
    1568.47 471.849 o
    2308 800 v
    2305 819 v
    1557.77 488.168 o
    953.862 -98.9612 o
    446 -770 o
    350.49 -882.172 o
    278.122 -938.882 o
    240 -947.817 o
    234.868 -914.67 o
    260.622 -846.16 o
    323 -751 [
    1541 807 v
    0 0 z
  EndSpiro
EndSplineSet
Substitution2: "* +- [t]" q_b
Substitution2: "* +- [b, f, h, k, l]" q_b
Substitution2: "* +- [a, d, g, q]" q_a
Substitution2: "* +- [o]" q_o
Substitution2: "* +- [p, r, s]" q_p
Substitution2: "* +- [m, n, v, x, y, z] - 1" q_m
Substitution2: "* +- [c]" q_c
Substitution2: "* +- [e]" q_e
Comment: "It is default final part of 'q'."
Colour: ff1c3b
EndChar

StartChar: h.0
Encoding: 88 -1 59
Width: 1001
VWidth: 0
Flags: HW
HStem: 12 795
AnchorPoint: "Cursive 1" 814 814 entry 0
AnchorPoint: "Cursive 1" 183 7 exit 0
LayerCount: 6
Back
Refer: 140 -1 S 1 0 0 1 73 -136 2
Refer: 140 -1 S 1 0 0 1 704 671 2
Fore
SplineSet
175 12 m 25
 190 0 l 1
 821 807 l 25
 806 819 l 1
 175 12 l 25
EndSplineSet
Comment: "It is one of parts of glyphs like 'h'."
Colour: bdbdbd
EndChar

StartChar: _m
Encoding: 89 -1 60
Width: 1820
VWidth: 0
Flags: HW
AnchorPoint: "Cursive 1" 1100 143 exit 0
AnchorPoint: "Cursive 1" 231 7 entry 0
LayerCount: 6
Back
Refer: 140 -1 S 1 0 0 1 121 -136 2
Refer: 163 -1 N 1 0 0 1 210 0 2
Refer: 140 -1 N 1 0 0 1 990 0 2
Fore
SplineSet
1353 756 m 0
 1544 833.168945312 1619.54980469 817.370117188 1485 650 c 2
 1092 148 l 1
 1092 146 l 25
 1105 136 l 25
 1107 136 l 1
 1503 643 l 2
 1650.21972656 826.58984375 1555.91601562 859.215820312 1345 774 c 0
 997.723632812 633.69140625 550.439453125 286.827148438 226 15 c 1
 238 0 l 1
 562.802734375 272.541992188 1008.08789062 616.646484375 1353 756 c 0
EndSplineSet
Substitution2: "* +- [m, n, v, x, y, z] - 4" D__m
Substitution2: "* +- [m, n, v, x, y, z] - 3" g__m
Substitution2: "* +- [m, n, v, x, y, z] - 2" b__m
Substitution2: "* +- [m, n, v, x, y, z] - 1" m__m
Comment: "It is default initial part of glyphs like 'm'."
Colour: 3d8fbd
EndChar

StartChar: f.0
Encoding: 90 -1 61
Width: 2181
VWidth: 0
Flags: HW
AnchorPoint: "Cursive 1" 1964 812 entry 0
AnchorPoint: "Cursive 1" 1335 10 exit 0
LayerCount: 6
Back
Refer: 140 -1 S 1 0 0 1 1641 397 2
Fore
SplineSet
1956 819 m 1
 678 -814 l 2
 -35.3955078125 -1725.56054688 219 -1952 791 -1128 c 0
 1156 -602 1342 8 1342 8 c 1
 1328 11 l 1
 1328 11 1117.17871094 -632.807617188 776.209960938 -1119 c 0
 502 -1510 314.763671875 -1645.30664062 272 -1614.68847656 c 0
 228.7265625 -1583.70507812 300.57421875 -1327.796875 694 -825 c 2
 1971 807 l 1
 1956 819 l 1
EndSplineSet
Comment: "It is one of parts of 'f'."
Colour: c9c9c9
EndChar

StartChar: h.1
Encoding: 91 -1 63
Width: 1797
VWidth: 0
Flags: HW
AnchorPoint: "Cursive 1" 169 814 exit 0
AnchorPoint: "Cursive 1" 167 812 entry 0
LayerCount: 6
Back
Refer: 143 -1 S 1 0 0 1 2 0 2
Refer: 140 -1 S 1 0 0 1 59 671 2
Fore
SplineSet
1033 1901 m 2
 1363.015625 2322.63964844 1623.91796875 2468.76464844 1666 2431.76953125 c 0
 1701 2401 1603 2188 1243 1797 c 0
 872.431640625 1394.52246094 584 1187 235 882 c 1
 1033 1901 l 2
161 817 m 1
 171 804 l 1
 173 804 l 1
NamedP: "41 degree"
 568 1147 869.135742188 1360.875 1257 1784 c 0
 2071 2672 1591.20996094 2644.26855469 1019 1914 c 2
 1019 1914 447 1184 161 819 c 1
 161 817 l 1
EndSplineSet
Comment: "It is one of parts of glyphs like 'h'."
Colour: bdbdbd
EndChar

StartChar: b_
Encoding: 92 -1 64
Width: 987
VWidth: 0
Flags: HW
AnchorPoint: "Cursive 1" 811 812 exit 0
AnchorPoint: "Cursive 1" 163 781 entry 0
LayerCount: 6
Back
Refer: 137 -1 N 1 0 0 1 84 0 2
Fore
SplineSet
155 776 m 1
 171 787 l 1
 262 639 399 653 808 819 c 1
 815 801 l 1
 398 632 253 619 155 776 c 1
EndSplineSet
Substitution2: "* +- [a, d, g, q]" b_a
Substitution2: "* +- [c]" b_c
Substitution2: "* +- [e]" b_e
Substitution2: "* +- [p, r, s]" b_p
Substitution2: "* +- [m, n, v, x, y, z] - 1" b_m
Substitution2: "* +- [o]" b_o
Substitution2: "* +- [b, f, h, k, l]" b_b
Comment: "It is final part of glyph like b without any glyph after it."
Colour: ff2938
EndChar

StartChar: _c
Encoding: 93 -1 65
Width: 1172
VWidth: 0
Flags: HWO
HStem: 722 20G<838.65 839.078> 819 21G<365.917 433.453 930.3 959.3>
AnchorPoint: "Cursive 1" 182 143 exit 0
AnchorPoint: "Cursive 1" 975 811 entry 0
LayerCount: 6
Back
Refer: 164 -1 S 1 0 0 1 -707 0 2
Refer: 140 -1 N 1 0 0 1 72 0 2
Refer: 139 -1 N 1 0 0 1 72 0 2
Fore
SplineSet
691 711 m 0
 939 917.977539062 1131 802 976 666 c 0
 839 546 693 644 969 819 c 1
 980 803 l 5
NamedP: "147.5 degree"
 845 717 822 658 836 640 c 0
 850 622 911 635 962 679 c 0
 1098 797 927.684570312 883.694335938 704 696 c 0
 529.341796875 549.444335938 337.374023438 325.91015625 189 136 c 9
 184 137 l 25
 174 145 l 25
 174 148 l 17
 326.215820312 342.828125 514.686523438 563.8515625 691 711 c 0
EndSplineSet
Comment: "It is default initial of 'c'."
Colour: 4a91bd
EndChar

StartChar: _h
Encoding: 95 -1 66
Width: 1576
VWidth: 0
Flags: HW
HStem: 0 819
VStem: 190 1189
AnchorPoint: "Cursive 1" 1373 812 exit 0
LayerCount: 6
Back
Refer: 143 -1 S 1 0 0 1 1208 0 2
Fore
SplineSet
1379 804 m 17
 961 472 682 270 190 0 c 1
 181 17 l 17
 705 312 957 491 1367 819 c 1
 1379 804 l 17
EndSplineSet
Substitution2: "Substitute with nulls" null1
Comment: "It is initial part of glyphs like 'h'."
Colour: 59cff
EndChar

StartChar: e.0
Encoding: 96 -1 67
Width: 1045
VWidth: 0
Flags: HW
HStem: 410 21G<36 97.1143 122.247 206.247>
AnchorPoint: "Cursive 1" 146 143 exit 0
AnchorPoint: "Cursive 1" 459 418 entry 0
LayerCount: 6
Back
Refer: 140 -1 S 1 0 0 1 241 262 2
Refer: 141 -1 N 1 0 0 1 36 0 2
Refer: 140 -1 N 1 0 0 1 36 0 2
Refer: 139 -1 N 1 0 0 1 36 0 2
Fore
SplineSet
753 607 m 0
 658.033203125 535.956054688 561.890625 471.168945312 464 410 c 9
NamedP: "32 degree"
 462 410 l 25
 453 425 l 25
 454 427 l 1
 553.78125 489.350585938 635.143554688 542.80859375 741 622 c 0
 850.700195312 704.06640625 879.329101562 780.853515625 866 797.081054688 c 0
 850.131835938 816.399414062 647.375976562 768.772460938 153 136 c 9
 149 136 l 25
 138 144 l 25
 138 148 l 17
 882.950195312 1101.49316406 1042.06445312 823.247070312 753 607 c 0
EndSplineSet
Comment: "It is one of parts of 'e'."
Colour: bdbdbd
EndChar

StartChar: _e
Encoding: 97 -1 68
Width: 1232
VWidth: 0
Flags: HW
HStem: 0 427
VStem: 164 878
AnchorPoint: "Cursive 1" 1047 418 exit 0
LayerCount: 6
Back
Refer: 141 -1 N 1 0 0 1 624 0 2
Refer: 139 -1 N 1 0 0 1 624 0 2
Fore
SplineSet
1042 427 m 1
 1052 410 l 1
 696 177 478.715820312 95.5166015625 164 0 c 1
 158 18 l 1
 473.734375 115.419921875 686 193 1042 427 c 1
EndSplineSet
Substitution2: "Substitute with nulls" null1
Comment: "It is initial part of e."
Colour: 1f96ff
EndChar

StartChar: k.0
Encoding: 98 -1 69
Width: 1820
VWidth: 0
Flags: HW
HStem: 0 21G<182 433>
VStem: 1661 18<848.92 926.984>
AnchorPoint: "Cursive 1" 1205 812 exit 0
AnchorPoint: "Cursive 1" 184 5 entry 0
LayerCount: 6
Back
Refer: 140 -1 S 1 0 0 1 1095 671 2
Refer: 140 -1 S 1 0 0 1 74 -136 2
Fore
SplineSet
1212 807 m 1
 1398 644 1646 753 1646 885 c 0
 1646 997 1483.92285156 1068.13671875 1222 946 c 0
 989.985351562 837.809570312 659 623 191 0 c 9
 176 12 l 1
 647 638 979.172851562 853.96484375 1213 963 c 0
 1484.98339844 1089.828125 1665 1017.03417969 1665 885 c 0
 1665 733 1393 620 1199 793 c 1
 1212 807 l 1
EndSplineSet
Comment: "It is one parts of 'k'."
Colour: b5b5b5
EndChar

StartChar: _o
Encoding: 99 -1 70
Width: 890
VWidth: 0
Flags: HW
AnchorPoint: "Cursive 1" 750 781 exit 0
AnchorPoint: "Cursive 1" 680 819 entry 0
LayerCount: 6
Back
SplineSet
439 432 m 25
 439 387 l 1049
310 530 m 25
 310 485 l 1049
568 332 m 25
 568 287 l 1049
211 585 m 25
 647 250 l 1049
EndSplineSet
Refer: 150 -1 S 1 0 0 1 126 0 2
Refer: 137 -1 N 1 0 0 1 120 0 2
Fore
SplineSet
310 511 m 0
 171 334 55.802734375 108.032226562 148 36 c 0
 238.1484375 -34.431640625 429 135 568 312 c 0
 707 489 820.044921875 713.430664062 731 783 c 0
 641.955078125 852.569335938 449 688 310 511 c 0
294 521 m 0
 447 716 641 878 743 798 c 0
 845 718 736 494 583 299 c 0
 430 104 237 -59 135 21 c 0
 33 101 141 326 294 521 c 0
  Spiro
    294 521 o
    455.575 697.109 o
    615.408 805.132 o
    743 798 o
    780.872 676.564 o
    715.043 497.064 o
    583 299 o
    421.684 122.632 o
    262.333 14.1267 o
    135 21 o
    96.8693 142.695 o
    162.216 322.677 o
    0 0 z
  EndSpiro
EndSplineSet
Comment: "It is one parts of 'o'."
Colour: 1285bd
EndChar

StartChar: p.0
Encoding: 100 -1 71
Width: 2677
VWidth: 0
Flags: HW
HStem: -967 21G<282 322.637> 819 21G<1485 1587>
AnchorPoint: "Cursive 1" 1072 0 exit 0
AnchorPoint: "Cursive 1" 1514 812 entry 0
LayerCount: 6
Back
Refer: 143 -1 S 1 0 0 1 1349 0 2
Refer: 135 -1 N 1 0 0 1 1072 0 2
Fore
SplineSet
1520 804 m 1
NamedP: "41 degree"
 1673.078125 937.068359375 1899 1126 2162 1412 c 1
 310 -952 l 1
 330 -967 l 1
 2357 1625 l 1
 2338 1638 l 1
 1997 1239 1703.40234375 988.860351562 1508 819 c 9
 1508 814 l 25
 1516 804 l 25
 1520 804 l 1
NamedP: "41 degree"
EndSplineSet
Comment: "It is one of parts of 'p'."
Colour: bdbdbd
EndChar

StartChar: r.0
Encoding: 101 -1 72
Width: 790
VWidth: 0
Flags: HW
HStem: 410 539 819 21G<163.281 209.281>
VStem: 30 329.281
AnchorPoint: "Cursive 1" 141 143 exit 0
AnchorPoint: "Cursive 1" 476 812 entry 0
LayerCount: 6
Back
Refer: 163 -1 S 1 0 0 1 30 0 2
Refer: 140 -1 N 1 0 0 1 31 0 2
Refer: 143 -1 N 1 0 0 1 311 0 2
Refer: 136 -1 N 1 0 0 1 30 0 2
Fore
SplineSet
148 136 m 1
 665 798 l 1
 623 826 584 889 632 935 c 1
 614 949 l 1
 614 949 524 865 470 819 c 1x60
 470 816 l 25
 480 804 l 25
 482 804 l 17
NamedP: "41 degree"
 524.002929688 840.000976562 593 903 593 903 c 1
 583 843 625 807 638 795 c 1
 133 148 l 9xa0
 134 145 l 25
 146 136 l 25
 148 136 l 1
EndSplineSet
Comment: "It is one of parts of 'r'."
Colour: bdbdbd
EndChar

StartChar: s.0
Encoding: 102 -1 73
Width: 1178
VWidth: 0
Flags: HW
HStem: 819.2 21G<907 955.5>
VStem: 76 19<186.301 214>
AnchorPoint: "Cursive 1" 360 9 exit 0
AnchorPoint: "Cursive 1" 911 812 entry 0
LayerCount: 6
Back
Refer: 143 -1 S 1 0 0 1 746 0 2
Refer: 136 -1 N 1 0 0 1 -486 0 2
Fore
SplineSet
905 819 m 1
 998.64453125 900.403320312 1039 949 1039 949 c 1
 1055 938 l 1
 838 551 802.5234375 344.513671875 679 188.728515625 c 0
 435 -119 154 -2 130 202 c 1
 149 204 l 1
 175 12 430 -91 663 200.1875 c 0
 779.607421875 345.915039062 814 529 1004 882 c 1
 1004 882 965.075195312 845.791015625 917 804 c 1
NamedP: "41 degree"
 915 804 l 25
 905 817 l 25
 905 819 l 1
EndSplineSet
Comment: "It is one of parts of 's'."
Colour: bdbdbd
EndChar

StartChar: _t
Encoding: 103 -1 74
Width: 1203
VWidth: 0
Flags: HW
HStem: 818.2 21G<1026.54 1072.57> 1221 16<984 1827>
VStem: 984 843<1221 1237>
AnchorPoint: "Cursive 1" 275 814 exit 0
AnchorPoint: "Cursive 1" 275 814 entry 0
LayerCount: 6
Back
Refer: 140 -1 S 1 0 0 1 806 1490 2
Refer: 140 -1 S 1 0 0 1 165 671 2
Fore
SplineSet
198 1240 m 1
 1041 1240 l 1
 1041 1221 l 1
 198 1221 l 1
 198 1240 l 1
267 819 m 1
 908 1638 l 1
 923 1626 l 1
 282 807 l 9
 278 806 l 25
 267 815 l 25
 267 819 l 1
EndSplineSet
Comment: "It is one of pars of 't'."
Colour: bdbdbd
EndChar

StartChar: x.0
Encoding: 104 -1 75
Width: 1341
VWidth: 0
Flags: HW
HStem: 0 819
VStem: 151 1046
AnchorPoint: "Cursive 1" 478 143 exit 0
AnchorPoint: "Cursive 1" 478 143 entry 0
LayerCount: 6
Back
Refer: 143 -1 S 1 0 0 1 -8 -804 2
Refer: 143 -1 N 1 0 0 1 1038 0 2
Refer: 139 -1 N 1 0 0 1 -412 0 2
Refer: 163 -1 N 1 0 0 1 -412 0 2
Refer: 140 -1 N 1 0 0 1 368 0 2
Fore
SplineSet
151 15 m 1
 1197 819 l 1
 1209 804 l 1
 163 0 l 1
 151 15 l 1
EndSplineSet
Comment: "It is for x."
Colour: c7c7c7
EndChar

StartChar: z.0
Encoding: 105 -1 76
Width: 2015
VWidth: 0
Flags: HW
AnchorPoint: "Cursive 1" 288.627 -1620 exit 0
AnchorPoint: "Cursive 1" 1713.63 0 entry 0
LayerCount: 6
Back
Refer: 142 -1 S 1 0 0 1 1378.63 0 2
Fore
SplineSet
330.626953125 -1612 m 1
 376.056640625 -1639.296875 558.551757812 -1614.40332031 1031.62695312 -1089 c 0
 1735.69238281 -307.055664062 1924.62695312 101 1763.62695312 0 c 1
 1735.62695312 0 l 1
 1996.62695312 166 1760.48632812 -308.068359375 1045.62695312 -1102 c 0
 491.586914062 -1717.32421875 342.626953125 -1642 318.626953125 -1627 c 9
 318.626953125 -1625 l 25
 327.626953125 -1614 l 25
 330.626953125 -1612 l 1
EndSplineSet
Comment: "It is one of part of glyphs like 'z'."
Colour: ff4036
EndChar

StartChar: f_
Encoding: 106 -1 77
Width: 1791
VWidth: 0
Flags: HW
HStem: 0 19<192 271.048>
AnchorPoint: "Cursive 1" 1597 812 exit 0
AnchorPoint: "Cursive 1" 193 9 entry 0
LayerCount: 6
Back
Refer: 143 -1 S 1 0 0 1 1432 0 2
Fore
SplineSet
192 0 m 1
 192 19 l 17
 596 19 1296 560 1591 819 c 1
 1603 804 l 17
 1307 545 605 -1 192 0 c 1
EndSplineSet
Substitution2: "* +- [t]" f_b
Substitution2: "* +- [i, j, u, w]" f_b
Substitution2: "* +- [b, f, h, k, l]" f_b
Substitution2: "* +- [a, d, g, q]" f_a
Substitution2: "* +- [e]" f_e
Substitution2: "* +- [m, n, v, x, y, z] - 1" f_m
Substitution2: "* +- [o]" f_o
Comment: "It is final part of 's' and 'f'."
Colour: ff3b2e
EndChar

StartChar: P004
Encoding: 107 -1 78
Width: 1577
VWidth: 0
Flags: HW
HStem: 0 21G<168 251.5> 795 24<1364.45 1381>
VStem: 168 1237
AnchorPoint: "Cursive 1" 1393 807 exit 0
LayerCount: 6
Fore
SplineSet
586 434 m 0
 820 615 1117 760 1405 819 c 1
 1381 795 l 1
 1088 726 832 590 610 426 c 0
 449 307 310 161 193 0 c 1
 168 0 l 1
 285 164 426 311 586 434 c 0
EndSplineSet
Substitution2: "Substitute with nulls" null1
Comment: "It was for intial part of 'o'."
Colour: 5b8ff
EndChar

StartChar: b.0
Encoding: 110 -1 80
Width: 942
VWidth: 0
Flags: HW
AnchorPoint: "Cursive 1" 999 781 exit 0
AnchorPoint: "Cursive 1" 110 143 entry 0
LayerCount: 6
Back
Refer: 140 -1 S 1 0 0 1 915 671 2
Refer: 140 -1 N 1 0 0 1 525 671 2
Refer: 154 -1 N 1 0 0 1 0 0 2
Refer: 137 -1 N 1 0 0 1 0 0 2
Refer: 140 -1 N 1 0 0 1 702 397 2
Refer: 140 -1 N 1 0 0 1 0 0 2
Refer: 139 -1 N 1 0 0 1 0 0 2
Fore
SplineSet
117 136 m 1
 79.5177371573 88.0940983477 68.0246283866 40.3879693741 88 23.7451171875 c 0
 126.41417618 -8.26036778675 370.998452265 49.1253346654 1017 819 c 1
 1032 807 l 1
 149.124790219 -245.169703068 -40.4906450156 -34.1166148675 102 148 c 1
 102 148 117 136 117 136 c 1
EndSplineSet
Comment: "It is for b."
Colour: d1d1d1
EndChar

StartChar: a_
Encoding: 111 -1 81
Width: 1313
VWidth: 0
Flags: W
AnchorPoint: "Cursive 1" 110 143 entry 0
AnchorPoint: "Cursive 1" 1392 812 exit 0
LayerCount: 6
Back
Refer: 143 -1 S 1 0 0 1 1227 0 2
Refer: 163 -1 S 1 0 0 1 0 0 2
Refer: 140 -1 S 1 0 0 1 0 0 2
Fore
SplineSet
102 148 m 1
 6 24 19 -26 158 14 c 0
 441 95 878 367 1398 804 c 1
 1386 819 l 1
 867 383 432 114 151 32 c 4
 29 -4 45 44 117 136 c 5
 102 148 l 1
EndSplineSet
Substitution2: "* +- [b, f, h, k, l]" a_bi
Substitution2: "'aalt' [+AH4A-i] +- *-1" a_bi
Substitution2: "* +- [o]" a_o
Substitution2: "* +- [e]" a_c
Substitution2: "* +- [c]" i_c
Substitution2: "* +- [a, d, g, q]" a_a
Substitution2: "* +- [m, n, v, x, y, z] - 1" a_m
Comment: "It is for final part of characters like a, c and w."
Colour: ff454c
EndChar

StartChar: m.0
Encoding: 112 -1 82
Width: 343
VWidth: 0
Flags: HW
HStem: 0.599609 409.4
VStem: -0.0996094 344.096
AnchorPoint: "Cursive 1" 110 143 entry 0
AnchorPoint: "Cursive 1" 4 7 exit 0
LayerCount: 6
Back
Refer: 163 -1 S 1 0 0 1 0 0 2
Refer: 140 -1 N 1 0 0 1 -106 -136 2
Refer: 140 -1 N 1 0 0 1 0 0 2
Refer: 140 -1 N 1 0 0 1 -320 -410 2
Fore
SplineSet
-4 12 m 1
 102 148 l 1
 117 136 l 1
 11 0 l 1
 -4 12 l 1
EndSplineSet
Comment: "it is for glyph like m and n."
Colour: cfcfcf
EndChar

StartChar: a_c
Encoding: 113 -1 83
Width: 977
VWidth: 0
Flags: HW
AnchorPoint: "Cursive 1" 1261 418 exit 0
AnchorPoint: "Cursive 1" 110 143 entry 0
LayerCount: 6
Back
Refer: 141 -1 S 1 0 0 1 838 0 2
Refer: 140 -1 N 1 0 0 1 0 0 2
Refer: 139 -1 N 1 0 0 1 0 0 2
Fore
SplineSet
117 136 m 1
 37.7572091872 34.2081530563 50.4946892481 10.6697534428 180 22 c 0
 310.50150545 33.4174022999 831.975951922 162.040367883 1256 427 c 1
 1266 410 l 1
 841.975951922 145.040367883 315.854492188 14.7978515625 181 3 c 0
 45.0791015625 -8.8916015625 1.07147660758 18.1670638051 102 148 c 1
 117 136 l 1
EndSplineSet
Comment: "It is for final part of glyphs like 'i' before 'e'."
Colour: ff030d
EndChar

StartChar: a_bi
Encoding: 114 -1 84
Width: 1313
VWidth: 0
Flags: HW
AnchorPoint: "Cursive 1" 110 143 entry 0
AnchorPoint: "Cursive 1" 1614 811 exit 0
LayerCount: 6
Back
Refer: 182 -1 S 1 0 0 1 0 0 2
Refer: 164 -1 S 1 0 0 1 -68 0 2
Refer: 140 -1 S 1 0 0 1 0 0 2
Fore
SplineSet
117 136 m 5
 41.4429203878 38.9426575653 53.7926851446 3.5095150353 170 24 c 4
 451.655017361 73.6633788127 1018.92336122 341.975143584 1608 819 c 5
 1619 803 l 5
 1025.28379983 322.21810085 458.401790731 55.5003630291 172 5 c 4
 47.7665019575 -16.9057176127 8.99923160894 28.3652087364 102 148 c 5
 117 136 l 5
EndSplineSet
Comment: "It is final part of glyphs like 'a' before glyph like 'i' and glyhs like 'b'."
Colour: ff1214
EndChar

StartChar: a_a
Encoding: 115 -1 85
Width: 1144
VWidth: 0
Flags: HW
HStem: 605.857 20G<726.251 1147.35>
AnchorPoint: "Cursive 1" 1668 819 exit 0
AnchorPoint: "Cursive 1" 110 143 entry 0
LayerCount: 6
Back
Refer: 160 -1 S 1 0 0 1 756 0 2
Refer: 163 -1 N 1 0 0 1 0 0 2
Refer: 140 -1 N 1 0 0 1 0 0 2
Refer: 138 -1 N 1 0 0 1 0 0 2
Fore
SplineSet
117 136 m 1
 37.3900452489 33.5909502262 29.8810263118 -1.73030683294 151 33 c 0
 360.555049715 93.0889435681 868.232165249 309.559832444 1363 656 c 1
 1373 640 l 1
 875.012897715 291.305677049 365.872266074 74.1799038955 156 14 c 0
 14.8483325684 -26.4745893282 6.35669925713 24.965894819 102 148 c 1
 117 136 l 1
EndSplineSet
Comment: "It is final part of glyphs like 'a' that place before glyphs like 'a'."
Colour: ff0d0d
EndChar

StartChar: P005
Encoding: 116 -1 87
Width: 60
VWidth: 0
Flags: W
VStem: -492 515
AnchorPoint: "Cursive 1" 29 417 exit 0
AnchorPoint: "Cursive 1" -498 7 entry 0
LayerCount: 6
Back
Refer: 139 -1 S 1 0 0 1 0 0 2
Fore
SplineSet
23 425 m 1
 -136 309 -319 170 -504 15 c 5
 -492 0 l 1
 -323 141 -139 285 35 410 c 1
 23 425 l 1
EndSplineSet
Substitution2: "Substitute with nulls" null1
Comment: "It was for initial part of v, x, m, n."
Colour: 4aabff
EndChar

StartChar: a_m
Encoding: 117 -1 88
Width: 791
VWidth: 0
Flags: HW
AnchorPoint: "Cursive 1" 881 418 exit 0
AnchorPoint: "Cursive 1" 110 143 entry 0
LayerCount: 6
Back
Refer: 163 -1 S 1 0 0 1 0 0 2
Refer: 143 -1 N 1 0 0 1 716 -394 2
Refer: 140 -1 N 1 0 0 1 0 0 2
Refer: 139 -1 N 1 0 0 1 0 0 2
Fore
SplineSet
117 136 m 5
 2 -12 85 11 182 41 c 0
 249 61 473 146 875 425 c 1
 887 410 l 1
 482 131 259 44 187 22 c 0
 142 8 -60 -60 102 148 c 1
 117 136 l 5
EndSplineSet
Comment: "It is final part of glyphs like a and m before glyphs like m and v."
Colour: ff141c
EndChar

StartChar: b_m
Encoding: 120 -1 89
Width: 1782
VWidth: 0
Flags: W
HStem: 696 19<775.476 962.197>
VStem: 628 550
AnchorPoint: "Cursive 1" 1181 781 exit 0
AnchorPoint: "Cursive 1" 624 781 entry 0
LayerCount: 6
Back
Refer: 150 -1 N 1 0 0 1 0 0 2
Refer: 146 -1 N 1 0 0 1 803 0 2
Refer: 137 -1 N 1 0 0 1 1 0 2
Fore
SplineSet
1178 789 m 1
 1072 747 967 715 866 715 c 0
 784 715 703 736 628 788 c 1
 617 772 l 1
 700 714 783 696 866 696 c 0
 968 696 1073 727 1185 772 c 1
 1178 789 l 1
EndSplineSet
Comment: "It is for final part glyphs like 'b' before glyphs like 'm'."
Colour: ff2638
EndChar

StartChar: b__m
Encoding: 121 -1 90
Width: 793
VWidth: 0
Flags: HW
HStem: 409.4 21G<564.569 746.961>
AnchorPoint: "Cursive 1" 111 143 exit 0
AnchorPoint: "Cursive 1" 378 781 entry 0
LayerCount: 6
Back
Refer: 163 -1 S 1 0 0 1 0 0 2
Refer: 146 -1 N 1 0 0 1 0 0 2
Refer: 137 -1 N 1 0 0 1 0 0 2
Refer: 140 -1 N 1 0 0 1 1 0 2
Fore
SplineSet
382 772 m 5
 541 830 618 809 491 646 c 2
 103 148 l 9
 103 146 l 25
 116 136 l 25
 118 136 l 1
 506 634 l 2
 643 810 558 857 375 789 c 9
 374 787 l 25
 380 773 l 25
 382 772 l 5
EndSplineSet
Comment: "It is default initial part of glyphs like 'm' after glyphs like 'b' and 'o'."
Colour: 549ebd
EndChar

StartChar: glyph98
Encoding: 9 44 91
Width: 219
VWidth: 0
Flags: HW
VStem: 102 62<-45.9682 39.2772>
LayerCount: 6
Fore
SplineSet
133 41 m 25
 170 3 l 1
 59 -110 l 1
 47 -98 l 1
 123 -20 l 1
 98 5 l 1
 133 41 l 25
EndSplineSet
EndChar

StartChar: g_m
Encoding: 123 -1 92
Width: 793
VWidth: 0
Flags: HW
AnchorPoint: "Cursive 1" -654 -1620 entry 0
AnchorPoint: "Cursive 1" 1498 418 exit 0
LayerCount: 6
Back
Refer: 164 -1 S 1 0 0 1 -184 -393 2
Refer: 143 -1 N 1 0 0 1 1252 -394 2
Refer: 139 -1 N 1 0 0 1 0 0 2
Refer: 142 -1 N 1 0 0 1 0 0 2
Fore
SplineSet
1492 426 m 1
 572 -111 -169 -769 -469 -1153 c 0
 -678 -1420 -725 -1585 -660 -1627 c 1
 -648 -1612 l 1
 -701 -1578 -650 -1416 -454 -1165 c 0
 -157 -784 583 -127 1503 410 c 1
 1492 426 l 1
EndSplineSet
Layer: 5
SplineSet
-454 -1165 m 4
 -650.396010629 -1416.3754304 -701.133661086 -1578.15012467 -648 -1612 c 4
 -605.889465111 -1638.82736944 -460 -1593 -232 -1387 c 4
 -79 -1249 108 -1039 321 -735 c 6
 1407 819 l 5
 1422 807 l 5
 337 -746 l 6
 132 -1039 -57 -1256 -219 -1401 c 4
 -437 -1597 -598 -1667 -660 -1627 c 4
 -725 -1585 -677.647673988 -1420.0568444 -469 -1153 c 4
 -99.6031148046 -680.193547836 937.734949797 206.846292744 2154 774 c 4
 2352.48140536 866.553399321 2444.3672172 812.422312025 2312 643 c 6
 1916 136 l 5
 1914 136 l 29
 1901 146 l 29
 1901 148 l 5
 2297 655 l 6
 2418.69203001 810.802674785 2336.01109511 837.142706254 2162 756 c 4
 946.641257584 189.268911006 -88.2970836566 -696.921612358 -454 -1165 c 4
EndSplineSet
Comment: "It is final part of glyph like 'j' before glyphs like 'm'."
Colour: ff171f
EndChar

StartChar: period
Encoding: 11 46 93
Width: 108
VWidth: 0
Flags: HW
HStem: -8.9225 37.845<35.084 72.916>
VStem: 35.078 37.845<-8.91636 28.9164>
LayerCount: 6
Fore
SplineSet
31.8154296875 22 m 0
 31.8154296875 34.3251953125 41.6748046875 44.1845703125 54 44.1845703125 c 0
 66.3251953125 44.1845703125 76.1845703125 34.3251953125 76.1845703125 22 c 0
 76.1845703125 9.6748046875 66.3251953125 -0.1845703125 54 -0.1845703125 c 0
 41.6748046875 -0.1845703125 31.8154296875 9.6748046875 31.8154296875 22 c 0
EndSplineSet
EndChar

StartChar: zero
Encoding: 12 48 94
Width: 1183
VWidth: 0
Flags: HW
LayerCount: 6
Back
Refer: 134 -1 S 1 0 0 1 -60 0 2
Fore
SplineSet
407.03125 627.80859375 m 0
 215.750976562 382.981445312 163.3359375 107.646484375 260.473632812 39.630859375 c 0
 357.612304688 -28.3857421875 589.77734375 85.333984375 781.05859375 330.163085938 c 0
 972.338867188 574.989257812 1042.31152344 867.098632812 943.518554688 933.755859375 c 0
 845.217773438 1000.08105469 598.3125 872.635742188 407.03125 627.80859375 c 0
371.057617188 639.666015625 m 0
 576.0859375 902.08984375 837.608398438 1028.49902344 957.086914062 951.206054688 c 0
 1076.56347656 873.912109375 991.30078125 557.143554688 800.03125 315.932617188 c 0
 604.208007812 68.9775390625 362.952148438 -58.38671875 246.243164062 23.029296875 c 0
 129.53515625 104.446289062 180.1796875 395.353515625 371.057617188 639.666015625 c 0
EndSplineSet
EndChar

StartChar: one
Encoding: 13 49 95
Width: 979
VWidth: 0
Flags: HW
LayerCount: 6
Back
Refer: 134 -1 S 1 0 0 1 0 0 2
Fore
SplineSet
883 975 m 5
 126 0 l 5
 86 0 l 5
 860 975 l 5
 883 975 l 5
EndSplineSet
Validated: 1
EndChar

StartChar: two
Encoding: 14 50 96
Width: 1328
VWidth: 0
Flags: HW
LayerCount: 6
Back
Refer: 134 -1 S 1 0 0 1 0 0 2
Fore
SplineSet
1110.78515625 937.04296875 m 1
 1019.04980469 987.403320312 868.903320312 960.524414062 701.83203125 783.084960938 c 0
 590.0078125 664.321289062 578.518554688 554.404296875 619.61328125 515.791992188 c 0
 658.529296875 479.2265625 758.536132812 494.639648438 898.46484375 643.8046875 c 0
 963.750976562 713.400390625 1031.43652344 803.033203125 1110.78515625 937.04296875 c 1
1125.81640625 927.736328125 m 1
 1047.69238281 795.944335938 977.040039062 701.731445312 911.35546875 631.711914062 c 0
 772.134765625 483.301757812 660.256835938 453.350585938 607.509765625 502.911132812 c 0
 553.274414062 553.870117188 578.432617188 673.942382812 688.963867188 795.202148438 c 0
 1205.44824219 1361.81347656 1704.38769531 448.7734375 391.42578125 40.337890625 c 1
 664.727539062 0 916.727539062 17 1149.76953125 88.646484375 c 1
 1154.06640625 71.5009765625 l 1
 900.727539062 -9 618.727539062 -18 351.4296875 30.2939453125 c 1
 315.60546875 21.6298828125 279.587890625 13.7109375 241.659179688 6.2216796875 c 0
 180.029296875 -5.9482421875 88.16796875 8.0634765625 101.259765625 57.0517578125 c 0
 109.265625 87.0068359375 160.864257812 96.7783203125 247.237304688 73.5068359375 c 0
 283.119140625 63.8388671875 316.069335938 55.87890625 351.15625 48.4169921875 c 1
 1100.40820312 279.09375 1348.86816406 769.954101562 1125.81640625 927.736328125 c 1
311.611328125 39.1123046875 m 1
 289.080078125 44.361328125 265.865234375 50.1826171875 242.638671875 56.4404296875 c 0
 153.484375 80.4609375 120.9140625 62.1337890625 118.3359375 52.48828125 c 0
 110.58203125 23.474609375 193.938476562 14.8154296875 238.235351562 23.5615234375 c 0
 263.12890625 28.4775390625 287.708984375 33.693359375 311.611328125 39.1123046875 c 1
EndSplineSet
Validated: 33
Layer: 3
SplineSet
1033 932 m 4
 623 238 345.364257812 503.755859375 613 788 c 4
 1177 1387 1583.00097656 301.995117188 162.05859375 21.4140625 c 4
 4.2548828125 -9.74609375 -26.4580078125 123.123046875 167 71 c 4
 553 -33 805 15.8349609375 1065 81 c 1029
EndSplineSet
EndChar

StartChar: three
Encoding: 15 51 97
Width: 1191
VWidth: 0
Flags: HW
LayerCount: 6
Back
Refer: 134 -1 S 1 0 0 1 -24 0 2
Fore
SplineSet
704.833007812 506.525390625 m 1
 694.6875 516.935546875 682.900390625 526.952148438 669.73046875 536.055664062 c 0
 641.87109375 555.3125 627.16015625 548.432617188 622.791992188 542.063476562 c 0
 618.60546875 535.961914062 618.911132812 524.279296875 632.07421875 515.256835938 c 0
 646.345703125 505.474609375 677.584960938 505.131835938 704.833007812 506.525390625 c 1
992.51953125 942.923828125 m 1
 962.294921875 872.44921875 934.673828125 818.5859375 902.09765625 785.635742188 c 0
 768 650 641 759 759.298828125 893.922851562 c 0
 838.907226562 984.717773438 942 991 993 962 c 0
 1192.94433594 848.306640625 989.94921875 512.166992188 738.971679688 492.205078125 c 1
 913.296875 228.1796875 644 -54 353.299804688 9.2880859375 c 0
 226.500976562 36.8935546875 158 136 149.389648438 255.079101562 c 1
 166.237304688 251.872070312 l 1
 172 156 236.138671875 62.1064453125 356.470703125 32.142578125 c 0
 598 -28 878 237 719.049804688 490.254882812 c 1
 682.852539062 487.536132812 643.758789062 486.455078125 622.377929688 501.111328125 c 0
 603.255859375 514.21875 598.047851562 536.310546875 608.649414062 551.764648438 c 0
 620.916015625 569.646484375 648.534179688 571.555664062 679.482421875 550.163085938 c 0
 697.990234375 537.37109375 713.430664062 523.438476562 726.577148438 508.118164062 c 1
 976.747070312 532.564453125 1153.9140625 832.135742188 992.51953125 942.923828125 c 1
977.685546875 951.849609375 m 1
 931.022460938 974.421875 839.35546875 959.370117188 772.549804688 883.03515625 c 0
 671 767 764 680 888.826171875 796.498046875 c 0
 921.482421875 826.975585938 947.594726562 881.372070312 977.685546875 951.849609375 c 1
EndSplineSet
Layer: 3
SplineSet
979 950.75 m 4
 821 579.75 655.58984375 744.10546875 758 868.75 c 4
 910 1053.75 1143.9921875 965.256835938 1027 731 c 4
 920 516.75 771.561523438 496.25 662.645507812 496.25 c 4
 572.645507812 496.25 595.612304688 591.348632812 666.645507812 542.25 c 4
 854 412.75 730 148.75 588 58.75 c 4
 384.037109375 -70.5224609375 112 54.75 149.645507812 252.5 c 1028
EndSplineSet
EndChar

StartChar: four
Encoding: 16 52 98
Width: 1290
VWidth: 0
Flags: HW
LayerCount: 6
Back
Refer: 134 -1 S 1 0 0 1 0 0 2
Fore
SplineSet
1190 961.72265625 m 1
 956.586914062 846.00390625 296.612304688 -1.9921875 296.612304688 -1.9921875 c 1
 280.655273438 10.3935546875 l 1
 280.655273438 10.3935546875 937.456054688 859.06640625 1181.02832031 979.819335938 c 1
 1190 961.72265625 l 1
493 721 m 1
 141.8671875 260.48828125 l 1
 817.874023438 260.48828125 l 1
 817.874023438 240.288085938 l 1
 100 241 l 1
 464.543945312 738.390625 l 1
 493 721 l 1
EndSplineSet
Validated: 5
Layer: 3
SplineSet
1165 975 m 4
 929 858 277 18 277 18 c 1028
461 740.25 m 4
 337 505.5 109 261.75 109 261.75 c 5
 801 261.75 l 1029
EndSplineSet
EndChar

StartChar: five
Encoding: 17 53 99
Width: 1626
VWidth: 0
Flags: HW
LayerCount: 6
Back
Refer: 134 -1 S 1 0 0 1 84 0 2
Fore
SplineSet
1484.39941406 956.948242188 m 1
 1005.41113281 956.948242188 l 1
 866.770507812 738.970703125 785.5703125 602.00390625 707.42578125 534.111328125 c 1
 726.495117188 520.954101562 741.451171875 501.6796875 753.172851562 479.275390625 c 0
 859 277 623.8125 -55.5576171875 302.872070312 5.2421875 c 0
 182.114257812 28.1171875 96.0869140625 119.051757812 120.724609375 248.474609375 c 1
 129.388671875 246.825195312 l 1
 138.053710938 245.17578125 l 1
 115.541015625 126.916992188 191.327148438 40.9296875 306.15625 24.5732421875 c 0
 591 -16 817 301 737.357421875 471.46484375 c 0
 726.822265625 494.013671875 711.162109375 511.313476562 693.05078125 522.41015625 c 1
 669.537109375 504.627929688 645.67578125 492.966796875 620.658203125 487.907226562 c 0
 584.220703125 480.5390625 559.693359375 481.45703125 552.373046875 497.844726562 c 0
 544.443359375 515.599609375 564.688476562 531.467773438 582.408203125 539.380859375 c 0
 623.108398438 557.557617188 660.444335938 557.600585938 691.125976562 543.409179688 c 1
 766.491210938 606.004882812 853.153320312 751.331054688 996 975 c 1
 1484.39941406 974.586914062 l 1
 1484.39941406 956.948242188 l 1
674.8359375 530.96875 m 1
 651.071289062 539.05859375 622.481445312 537.958007812 589.600585938 523.275390625 c 0
 573.495117188 516.08203125 568.356445312 506.127929688 568.486328125 505.02734375 c 0
 568.987304688 504.27734375 580.547851562 497.79296875 617.162109375 505.197265625 c 0
 636.606445312 509.129882812 655.569335938 517.62890625 674.8359375 530.96875 c 1
EndSplineSet
Layer: 3
SplineSet
1501 960 m 29
 1021 960 l 5
 832 663 749.118164062 516.088867188 642.36328125 494.5 c 4
 565.717773438 479 574.44921875 513.249023438 609.717773438 529 c 4
 815.717773438 621 894.717773438 214 567.717773438 53 c 4
 351.073242188 -53.666015625 119.072265625 49 156.717773438 246.75 c 1028
EndSplineSet
EndChar

StartChar: six
Encoding: 18 54 100
Width: 921
VWidth: 0
Flags: HW
LayerCount: 6
Back
Refer: 134 -1 S 1 0 0 1 0 0 2
Fore
SplineSet
270.274414062 17.1005859375 m 1
 357.775390625 229.379882812 450.880859375 356.375 538.952148438 431.826171875 c 0
 648.387695312 525.581054688 749.015625 532.221679688 795.923828125 477.348632812 c 0
 849.813476562 414.309570312 821.024414062 284.548828125 668.665039062 154.91015625 c 0
 541.06640625 46.33984375 392.943359375 -8.431640625 279.270507812 -2.564453125 c 0
 232.353515625 -0.1435546875 190.92578125 12.6845703125 159.549804688 37.1171875 c 0
 59.1142578125 115.330078125 75.0675188734 297.008980386 300.654296875 591 c 2
 781 1217 l 1
 807 1195 l 1
 315.6171875 579.291015625 l 2
 83.8088175664 288.83214651 86.326171875 118.220703125 171.223632812 52.1083984375 c 0
 196.578125 32.3642578125 230.454101562 20.5830078125 270.274414062 17.1005859375 c 1
290.40625 16.0595703125 m 1
 396.404296875 14.2216796875 535.6484375 66.67578125 656.352539062 169.380859375 c 0
 807.372070312 297.879882812 823.47265625 415.8828125 781.481445312 465.002929688 c 0
 745.639648438 506.9296875 658.661132812 509.36328125 551.313476562 417.397460938 c 0
 467.622070312 345.698242188 375.493164062 220.479492188 290.40625 16.0595703125 c 1
EndSplineSet
Validated: 33
Layer: 3
SplineSet
250.434570312 11 m 5
 568.434570312 785 1020.90136719 489.8359375 634.434570312 161 c 4
 292.434570312 -130 -197.284179688 -26.0185546875 280.061523438 584 c 6
 766 1205 l 1029
EndSplineSet
EndChar

StartChar: seven
Encoding: 19 55 101
Width: 1230
VWidth: 0
Flags: HW
LayerCount: 6
Back
Refer: 134 -1 S 1 0 0 1 -48 0 2
Fore
SplineSet
324 964 m 1
 188.381835938 790.688476562 l 1
 606.100585938 1102.99707031 597.698242188 557.30078125 1097.30273438 984.045898438 c 1
 1109.87597656 972 l 1
 168 -239 l 1
 147 -223 l 1
 1048.64355469 922.145507812 l 1
 573.336914062 560.537109375 583.381835938 1113.08105469 139.733398438 728.78125 c 1
 139.733398438 728.78125 127.110351562 740.78515625 127.110351562 740.78515625 c 1
 310.21875 974.78515625 l 1
 324 964 l 1
EndSplineSet
Layer: 3
SplineSet
281.123046875 966.999023438 m 29
 98.0146484375 732.999023438 l 5
 566.280273438 1138.99902344 538.999023438 523.999023438 1066.99902344 974.999023438 c 5
 121.725585938 -233.000976562 l 1029
EndSplineSet
EndChar

StartChar: eight
Encoding: 20 56 102
Width: 1188
VWidth: 0
Flags: HW
LayerCount: 6
Back
Refer: 134 -1 S 1 0 0 1 0 0 2
Fore
SplineSet
459.802140713 527.549444119 m 1
 460 1088 1152 1081 1022.06156241 729.455406086 c 1
 1005.93843759 736.259437664 l 1
 1122 1065 478 1042 477.983629114 541.10745784 c 1
 563.471736939 604.104486673 667.803962202 670.979558532 793.771256631 740.517724057 c 1
 802.228743369 725.197119693 l 1
 670.957351072 652.730914495 564.591990278 584.054650681 477.017803109 518.593994965 c 1
 477.00860669 99.3549448219 268.337743371 -36.6117067411 172.000001732 8.55000096496 c 0
 81.8400099757 50.8156709426 56 270 459.802140713 527.549444119 c 1
459.277909805 505.170353066 m 1
 119 256 103.879015133 62.9603497625 180.015160584 27.0000022864 c 0
 263.522327493 -12.4417992523 458.086367288 120.613101826 459.277909805 505.170353066 c 1
EndSplineSet
Layer: 3
SplineSet
794 730.25 m 4
 -460 38 464 -370 464 496 c 4
 464 1088 1150 1062 1010 730.25 c 1028
EndSplineSet
EndChar

StartChar: nine
Encoding: 21 57 103
Width: 1342
VWidth: 0
Flags: HW
LayerCount: 6
Back
Refer: 134 -1 S 1 0 0 1 0 0 2
Fore
SplineSet
1242 971.75 m 1
 1211 961.75 l 1
 282 -208 l 1
 311 -228 l 1
 1242 971.75 l 1
EndSplineSet
Refer: 53 -1 S 0.86 0 0 0.86 27.493 267.537 2
EndChar

StartChar: exclam
Encoding: 2 33 104
Width: 1845
VWidth: 0
Flags: HW
LayerCount: 6
Fore
SplineSet
1564 1630 m 1
 371.998046875 118.607421875 l 1
 358.215820312 129.392578125 l 1
 1538 1649 l 1
 1564 1630 l 1
EndSplineSet
Refer: 93 46 N 1 0 0 1 230 0 2
EndChar

StartChar: question
Encoding: 24 63 105
Width: 1935
VWidth: 0
Flags: HW
LayerCount: 6
Fore
SplineSet
878.629882812 1094.37988281 m 1
 953.14453125 1357.97558594 1073.41015625 1510.94824219 1204.34863281 1582.97265625 c 0
 1421.67871094 1702.51855469 1664.25683594 1597.09765625 1764.9375 1413.94335938 c 0
 1866.4609375 1229.25292969 1821.40234375 969.73046875 1475.26074219 776.374023438 c 0
 931.049804688 472.374023438 615.049804688 554 307.340820312 234.047851562 c 1
 294.514648438 245.952148438 l 1
 649.049804688 625.857421875 1085.98828125 582.60546875 1466.83886719 791.713867188 c 0
 1808.45605469 979.28125 1845.79980469 1230.51171875 1749.6015625 1405.51269531 c 0
 1652.94335938 1581.35058594 1420.54394531 1681.921875 1212.78320312 1567.63964844 c 0
 1087.234375 1498.58007812 969.173828125 1350.34863281 895.469726562 1089.62011719 c 1
 878.629882812 1094.37988281 l 1
EndSplineSet
Refer: 93 46 N 1 0 0 1 65.05 0 2
Layer: 3
SplineSet
887.049804688 1092 m 5
 1207.04980469 2224 2367.04980469 1276 1471.04980469 784.043945312 c 4
 1086.44140625 572.872070312 659.049804688 625.857421875 300.927734375 240 c 1029
EndSplineSet
EndChar

StartChar: underscore
Encoding: 52 95 110
Width: 1719
VWidth: 0
Flags: HW
LayerCount: 6
Fore
SplineSet
219 18 m 1
 1464 19 l 1
 1464 0 l 1
 219 0 l 1
 219 18 l 1
EndSplineSet
EndChar

StartChar: percent
Encoding: 6 37 111
Width: 2411
VWidth: 0
Flags: HW
LayerCount: 6
Fore
SplineSet
1260 926 m 1
 1260.10449219 932.499023438 l 1
 1568.46972656 927.557617188 1735.01269531 1105.66796875 2196.56445312 1639.25195312 c 1
 2201.48046875 1635 l 1
 2206.39648438 1630.74804688 l 1
 1745.85644531 1098.33203125 1575.53027344 914.442382812 1259.89550781 919.500976562 c 1
 1260 926 l 1
2211 1633 m 1
 178 -979 l 1
 151 -957 l 1
 2197.21875 1643.78613281 l 1
 2211 1633 l 1
EndSplineSet
Refer: 94 48 N 0.5 0 0 0.5 1273.03 -0.950344 2
Refer: 94 48 N 0.5 0 0 0.5 733.033 487.05 2
EndChar

StartChar: numbersign
Encoding: 4 35 112
Width: 2094
VWidth: 0
Flags: HW
LayerCount: 6
Fore
SplineSet
406 901.250976562 m 1
 406 907.083984375 406 912.91796875 406 918.750976562 c 1
 1942 918.75 l 1
 1942 912.916992188 1942 907.083007812 1942 901.25 c 1
 406 901.250976562 l 1
173 586.25 m 1
 173 592.083007812 173 597.916992188 173 603.75 c 1
 1709 603.749023438 l 1
 1709 597.916015625 1709 592.08203125 1709 586.249023438 c 1
 173 586.25 l 1
1699.11816406 1299.40332031 m 1
 1703.70605469 1295.80078125 1708.29394531 1292.19921875 1712.88183594 1288.59667969 c 1
 791.881835938 115.596679688 l 1
 787.293945312 119.19921875 782.706054688 122.80078125 778.118164062 126.403320312 c 1
 1699.11816406 1299.40332031 l 1
1282.02246094 1352.18945312 m 1
 1290.67382812 1345.39648438 1299.32617188 1338.60351562 1307.97753906 1331.81054688 c 1
 386.977539062 158.810546875 l 1
 378.326171875 165.603515625 369.673828125 172.396484375 361.022460938 179.189453125 c 1
 1282.02246094 1352.18945312 l 1
EndSplineSet
Layer: 3
SplineSet
406 910.000976562 m 5
 1942 910 l 1029
173 595 m 5
 1709 594.999023438 l 1029
1706 1294 m 5
 785 121 l 1029
1295 1342 m 5
 374 169 l 1029
EndSplineSet
EndChar

StartChar: dollar
Encoding: 5 36 113
Width: 2682
VWidth: 0
Flags: HW
LayerCount: 6
Fore
SplineSet
1890.59082031 721.338867188 m 1
 1884.86328125 722.446289062 1879.13671875 723.553710938 1873.40917969 724.661132812 c 1
 1900.7265625 865.9765625 1776.75 1001.82910156 1617.95996094 957.842773438 c 0
 1516.77734375 929.814453125 1451.97753906 829.34375 1444.73730469 714.865234375 c 0
 1433.88867188 543.309570312 1527.11230469 392.212890625 1482.10546875 212.712890625 c 0
 1443.69238281 59.5146484375 1262.84277344 -80.4248046875 1086.98632812 29.0322265625 c 0
 997.619140625 84.6591796875 927.947265625 225.607421875 1000.59960938 347.965820312 c 0
 1057.97363281 444.592773438 1215.58398438 485.829101562 1303.25683594 382.392578125 c 0
 1331.69238281 348.84375 1346.80957031 304.528320312 1344.74023438 260.588867188 c 1
 1338.91308594 260.86328125 1333.08691406 261.13671875 1327.25976562 261.411132812 c 1
 1332.88769531 380.91796875 1204.48730469 468.145507812 1088.953125 408.649414062 c 0
 1006.56933594 366.225585938 958.181640625 248.94921875 1009.29785156 141.141601562 c 0
 1069.57128906 14.01953125 1248.08789062 -25.68359375 1371 83 c 0
 1443.80566406 147.377929688 1476.22265625 243.899414062 1463 377 c 0
 1451.91503906 488.578125 1419.65625 595.54296875 1427.27246094 715.96875 c 0
 1436.81640625 866.895507812 1563.37988281 1041.99804688 1754.15527344 967.838867188 c 0
 1838.09375 935.208007812 1913.46777344 839.681640625 1890.59082031 721.338867188 c 1
2379.83007812 1649.39746094 m 1
 2384.42089844 1645.79882812 2389.01269531 1642.20117188 2393.60351562 1638.60253906 c 1
 349.03515625 -970.397460938 l 1
 344.444335938 -966.798828125 339.852539062 -963.201171875 335.26171875 -959.602539062 c 1
 2379.83007812 1649.39746094 l 1
  Spiro
    2386.72 1644 v
    2393.6 1638.6 v
    349.036 -970.397 v
    342.148 -965 v
    335.261 -959.603 v
    2379.83 1649.4 v
    0 0 z
  EndSpiro
2266.11328125 1643.79785156 m 1
 2270.70410156 1640.19921875 2275.29589844 1636.6015625 2279.88671875 1633.00292969 c 1
 235.318359375 -975.997070312 l 1
 230.727539062 -972.3984375 226.135742188 -968.80078125 221.544921875 -965.202148438 c 1
 2266.11328125 1643.79785156 l 1
  Spiro
    2273 1638.4 v
    2279.89 1633 v
    235.319 -975.997 v
    228.432 -970.6 v
    221.544 -965.202 v
    2266.11 1643.8 v
    0 0 z
  EndSpiro
EndSplineSet
Layer: 3
SplineSet
1882 723 m 4
 1891.2890625 771.052734375 1883.14355469 822.28125 1859.42285156 865.090820312 c 4
 1835.70214844 907.901367188 1796.6015625 941.950195312 1750.98535156 959.68359375 c 4
 1708.14941406 976.334960938 1659.9140625 978.543945312 1615.62402344 966.275390625 c 4
 1571.33398438 954.006835938 1531.35644531 927.443359375 1501.72070312 892.317382812 c 4
 1460.45214844 843.403320312 1440.04394531 779.286132812 1436.00488281 715.416992188 c 4
 1431.96582031 651.547851562 1443.01171875 587.75 1455.58105469 525 c 4
 1465.84570312 473.76171875 1477.06542969 422.586914062 1482.23144531 370.5859375 c 4
 1487.39746094 318.5859375 1486.32714844 265.528320312 1473.61816406 214.840820312 c 4
 1459.16601562 157.203125 1429.02734375 102.921875 1384.51269531 63.5595703125 c 4
 1339.99707031 24.1982421875 1281.41796875 0.673828125 1222 0 c 4
 1176.25976562 -0.5185546875 1130.4453125 12.2890625 1091.61035156 36.4609375 c 4
 1052.77539062 60.6337890625 1020.98925781 96.0595703125 1001.39160156 137.392578125 c 4
 986.064453125 169.717773438 978.173828125 205.61328125 979.1015625 241.375976562 c 4
 980.029296875 277.138671875 989.858398438 312.737304688 1008.12304688 343.498046875 c 4
 1026.38769531 374.258789062 1053.14257812 400.05078125 1084.94726562 416.428710938 c 4
 1116.75292969 432.807617188 1153.52148438 439.592773438 1189 435 c 4
 1230.38085938 429.642578125 1269.60253906 408.565429688 1296.58203125 376.735351562 c 4
 1323.56152344 344.904296875 1337.96289062 302.680664062 1336 261 c 1028
  Spiro
    1882 723 {
    1750.98 959.683 o
    1501.72 892.317 o
    1455.58 525 o
    1473.62 214.841 o
    1222 0 o
    1001.39 137.392 o
    1189 435 o
    1336 261 o
    0 0 z
  EndSpiro
EndSplineSet
EndChar

StartChar: ampersand
Encoding: 7 38 114
Width: 3316
VWidth: 0
Flags: HW
LayerCount: 6
Fore
SplineSet
3030 1638.40039062 m 1
 3034.91894531 1630.56640625 l 1
 2183.69042969 1096.10644531 1915.48144531 769.44921875 1712.7421875 481.506835938 c 1
 1648.9296875 157.329101562 1537.03808594 -90.71484375 1403.55761719 -264.180664062 c 0
 1090.7890625 -670.639648438 653.49609375 -691.703125 403.646484375 -499.37890625 c 0
 182.704101562 -329.307617188 111.947265625 5.4541015625 398.671875 377.645507812 c 1
 406 372 l 1
 413.328125 366.354492188 l 1
 131.129882812 0.0400390625 203.237304688 -321.766601562 414.930664062 -484.71875 c 0
 655.576171875 -669.958007812 1081.24121094 -652.7109375 1388.89550781 -252.8984375 c 0
 1514.77539062 -89.3115234375 1620.94433594 138.749023438 1686.01660156 443.259765625 c 1
 1528 198.796875 1044 -228 845.48828125 147.560546875 c 0
 731.09765625 363.975585938 909.469726562 782.153320312 1754.70703125 1211.65820312 c 1
 1726 2164 2184.05078125 2472.28027344 2498.6640625 2474.20507812 c 0
 2669.93847656 2475.25390625 2805.55664062 2371.54003906 2806.58886719 2199.92675781 c 0
 2808.03710938 1959.29980469 2546.82324219 1593.19140625 1773.29492188 1200.34179688 c 1
 1772.15234375 945.0703125 1756.00390625 736 1732 585 c 1
 1926.0546875 855.80078125 2202.95996094 1130.04980469 3025.08105469 1646.234375 c 1
 3030 1638.40039062 l 1
1706.41308594 548.9296875 m 1
 1737 725 1753.26855469 922.642578125 1754.85449219 1190.97265625 c 1
 915.78515625 762.5703125 753.98046875 352.618164062 862.111328125 155.686523438 c 0
 1064 -212 1521.06835938 282.000976562 1706.41308594 548.9296875 c 1
1773.16113281 1221.03125 m 1
 2538.07910156 1611.08886719 2788.60839844 1971.70800781 2788.09375 2198.65429688 c 0
 2787.73144531 2358.63476562 2663.69824219 2456.14257812 2500.19335938 2455.71191406 c 0
 2201.21191406 2454.92480469 1768 2010 1773.16113281 1221.03125 c 1
EndSplineSet
Layer: 3
SplineSet
3030 1638.40039062 m 4
 1932 949 1789.75976562 586.346679688 1548 264 c 4
 1044 -408 107.936523438 367.325195312 1764 1206 c 4
 4098 2388 1746 3318 1764 1206 c 4
 1786.53027344 -1437.52832031 -426 -708 406 372 c 1028
EndSplineSet
EndChar

StartChar: cent
Encoding: 79 162 116
Width: 2450
VWidth: 0
Flags: HW
LayerCount: 6
Fore
SplineSet
1438 1500 m 1
 1431.09082031 1505.36914062 l 1
 1442.08789062 1519.52148438 1452.13574219 1533.21582031 1461.26953125 1546.44824219 c 0
 1556.02441406 1683.70507812 1550.43945312 1766.53710938 1499.62402344 1801.57226562 c 0
 1389.33105469 1877.61523438 1037.015625 1754.54199219 785.217773438 1387.0546875 c 0
 753.982421875 1341.46777344 726.786132812 1295.89648438 703.762695312 1250.94140625 c 0
 563.677734375 977.4140625 579.143554688 731.177734375 769.981445312 633.6484375 c 0
 930.666992188 551.530273438 1497.48339844 689.958984375 1982.80566406 1390.98046875 c 1
 1990 1386 l 1
 1997.19433594 1381.01953125 l 1
 1510.51660156 678.041015625 937.333007812 528.469726562 762.018554688 618.06640625 c 0
 557.65625 722.505859375 546.924804688 983.092773438 688.186523438 1258.91894531 c 0
 711.571289062 1304.57910156 739.150390625 1350.78027344 770.782226562 1396.9453125 c 0
 1023.08984375 1765.17871094 1383.25488281 1903.05957031 1509.55761719 1815.98046875 c 0
 1574.01855469 1771.53613281 1570.73730469 1674.21484375 1475.671875 1536.50585938 c 0
 1466.3359375 1522.98242188 1456.09375 1509.02441406 1444.90917969 1494.63085938 c 1
 1438 1500 l 1
250 0 m 1
 243.103515625 5.3857421875 l 1
 2154.765625 2453.38574219 l 1
 2161.66210938 2448 l 1
 2168.55859375 2442.61425781 l 1
 256.896484375 -5.3857421875 l 1
 250 0 l 1
EndSplineSet
Layer: 3
SplineSet
1438 1500 m 5
 1797 1962 1164.81152344 1956.53613281 778 1392 c 4
 556 1068 535.806640625 743.499023438 766 625.857421875 c 4
 934 540 1504 684 1990 1386 c 1028
250 0 m 29
 2161.66210938 2448 l 1053
EndSplineSet
EndChar

StartChar: at
Encoding: 25 64 117
Width: 2834
VWidth: 0
Flags: HW
LayerCount: 6
Fore
SplineSet
1732 615 m 1
 1708 612 l 1
 1457.29296875 297.623046875 l 2
 1367 184 1296.45410156 66.115234375 1358.65039062 14.896484375 c 0
 1456.83105469 -65.9541015625 2383 154 2390.6875 563.907226562 c 0
 2393.98828125 739.876953125 2147.79785156 975.49609375 1383.61621094 975.49609375 c 3
 -251 975.49609375 -248.205078125 -500.748046875 1305.19726562 -500.748046875 c 3
 1946.85546875 -500.748046875 2287.83105469 -269.299804688 2660.03808594 -7.1533203125 c 1
 2655 0 l 1
 2649.96191406 7.1533203125 l 1
 2278.16894531 -254.700195312 1942.20605469 -483.251953125 1304.80273438 -483.251953125 c 3
 -231.215820312 -483.251953125 -217.004882812 958 1384 958 c 3
 2126.00097656 958 2374.10644531 732.33203125 2373.1875 563.916015625 c 0
 2371.10351562 181.999023438 1458 -43 1371.77539062 29.40625 c 0
 1320.11914062 72.7841796875 1384.82617188 175.186523438 1472.83886719 285.541992188 c 2
 1732 615 l 1
EndSplineSet
Refer: 53 -1 N 0.75 0 0 0.75 673 1 2
Layer: 3
SplineSet
1727 614 m 5
 1470 292 l 6
 1028.62890625 -209.271484375 2015 18 2337 409.599609375 c 4
 2384.97167969 467.940429688 2593 975 1423 975 c 4
 217.07421875 975 -315.483398438 -528.517578125 1305 -492 c 4
 1944.36816406 -477.591796875 2283 -262 2655 0 c 1029
EndSplineSet
Refer: 53 -1 S 0.75 0 0 0.75 739.168 0.349718 2
EndChar

StartChar: hyphen
Encoding: 10 45 118
Width: 1300
VWidth: 0
Flags: HW
LayerCount: 6
Fore
SplineSet
164 418.349609375 m 1
 1106 418.349609375 l 1
 1106 412.516601562 1106 406.682617188 1106 400.849609375 c 1
 164 400.849609375 l 1
 164 406.682617188 164 412.516601562 164 418.349609375 c 1
EndSplineSet
EndChar

StartChar: b_e
Encoding: 127 -1 120
Width: 942
VWidth: 0
Flags: HW
VStem: 430 19<518.366 706>
AnchorPoint: "Cursive 1" 1062 418 exit 0
AnchorPoint: "Cursive 1" 508 779 entry 0
LayerCount: 6
Back
Refer: 141 -1 S 1 0 0 1 639 0 2
Refer: 137 -1 N 1 0 0 1 0 0 2
Fore
SplineSet
430 708 m 1
 449 706 l 1
 390.306915949 373.134979482 666.422542893 201.5 1057 427 c 1
 1067 410 l 1
 662 176 368.648362348 360.057572783 430 708 c 1
EndSplineSet
Comment: "It is for final part of b and v before e."
Colour: ff1c2e
EndChar

StartChar: b_c
Encoding: 128 -1 121
Width: 414
VWidth: 0
Flags: HW
HStem: 799.487 20G<552.5 693>
AnchorPoint: "Cursive 1" 900 812 exit 0
AnchorPoint: "Cursive 1" 5 781 entry 0
LayerCount: 6
Back
Refer: 137 -1 S 1 0 0 1 0 0 2
Fore
SplineSet
3 796 m 1
 3 796 -42 738 23 736.107421875 c 0
 165.954943903 731.94506188 693.41796875 735 744 735 c 0
 812 735 848 773 906 805 c 1
 894 819 l 1
 840 781 802 756 743 754 c 0
 693.172851562 752.311523438 169.714734336 754.610583116 24 754.922851562 c 0
 -12 755 20 789 20 789 c 1
 3 796 l 1
EndSplineSet
Comment: "It is for final part of b and v before c."
Colour: ff3829
EndChar

StartChar: b_a
Encoding: 129 -1 122
Width: 602
VWidth: 0
Flags: W
VStem: -178 861
AnchorPoint: "Cursive 1" 693 819 exit 0
AnchorPoint: "Cursive 1" -170 781 entry 0
LayerCount: 6
Back
Refer: 160 -1 S 1 0 0 1 -219 0 2
Refer: 137 -1 N 1 0 0 1 0 0 2
Fore
SplineSet
-178 776 m 1
 -162 786 l 1
 -64 632 286 619 683 779 c 1
 690 761 l 1
 273 592 -80 619 -178 776 c 1
EndSplineSet
Comment: "It is for final part of glyph like b before glyph like a."
Colour: ff212e
EndChar

StartChar: f_a
Encoding: 130 -1 123
Width: 1427
VWidth: 0
Flags: W
HStem: 0 19<0 83.9107>
AnchorPoint: "Cursive 1" 1650 819 exit 0
AnchorPoint: "Cursive 1" 1 9 entry 0
LayerCount: 6
Back
Refer: 160 -1 S 1 0 0 1 738 0 2
Refer: 143 -1 N 1 0 0 1 1195 -157 2
Refer: 138 -1 N 1 0 0 1 0 0 2
Fore
SplineSet
1354 662 m 1
 1015.15537595 397.26556561 332 19 0 19 c 9
 0 0 l 17
 341 0 1027.80942487 382.776564634 1366 647 c 1
 1354 662 l 1
EndSplineSet
Comment: "It is final part of s before glyph like a."
Colour: ff3330
EndChar

StartChar: f_e
Encoding: 131 -1 124
Width: 1427
VWidth: 0
Flags: HW
HStem: 0 19<0.0683594 99.6909> 798.953 20G<1192.78 1427>
AnchorPoint: "Cursive 1" 1165 418 exit 0
AnchorPoint: "Cursive 1" 1 9 entry 0
LayerCount: 6
Back
Refer: 141 -1 S 1 0 0 1 742 0 2
Refer: 139 -1 N 1 0 0 1 0 0 2
Fore
SplineSet
1160 427 m 1
 807.915255066 203.560226494 262 21 0 20 c 13
 0 1 l 17
 261 0 815 185 1170 410 c 1
 1160 427 l 1
EndSplineSet
Comment: "It is final part of s before e."
Colour: ff4c4c
EndChar

StartChar: f_m
Encoding: 132 -1 125
Width: 1427
VWidth: 0
Flags: W
HStem: 0 19<0 95.248>
VStem: 0 803
AnchorPoint: "Cursive 1" 809 418 exit 0
AnchorPoint: "Cursive 1" 1 9 entry 0
LayerCount: 6
Back
Refer: 143 -1 S 1 0 0 1 644 -394 2
Refer: 139 -1 N 1 0 0 1 0 0 2
Fore
SplineSet
803 425 m 1
 492 201 256 19 0 19 c 9
 0 0 l 17
 261 0 499 181 815 410 c 1
 803 425 l 1
EndSplineSet
Comment: "It is final part of s before glyph like v."
Colour: ff4763
EndChar

StartChar: g_e..
Encoding: 126 -1 126
Width: 2590
VWidth: 0
Flags: HW
AnchorPoint: "Cursive 1" 2012 410 exit 0
AnchorPoint: "Cursive 1" -654 -1620 entry 0
LayerCount: 6
Back
Refer: 140 -1 S 1 0 0 1 1305 671 2
Refer: 142 -1 S 1 0 0 1 0 0 2
Refer: 141 -1 S 1 0 0 1 1601 0 2
Fore
SplineSet
-660 -1627 m 1
 -725.365984066 -1584.55083361 -678.974352239 -1418.68956845 -469 -1153 c 0
 -226 -846 220.245117188 -442.493164062 795 -24 c 0
 1115 209 1547 152 2020 427 c 1
 2030 410 l 1
 1552 134 1125 191 805 -41 c 0
 215.646970793 -468.280946175 -225.823485087 -878.142806187 -454 -1165 c 0
 -648.847081268 -1409.95635309 -702.513586916 -1576.59846272 -648 -1612 c 1
 -660 -1627 l 1
EndSplineSet
Layer: 5
SplineSet
1407 819 m 5
 1422 807 l 5
 337 -746 l 6
 132.045705741 -1039.16722311 -57.4849036307 -1255.57115401 -219 -1401 c 4
 -436.800885451 -1597.10879811 -598.315779728 -1667.05820103 -660 -1627 c 4
 -725.365984066 -1584.55083361 -678.974352239 -1418.68956845 -469 -1153 c 4
 -226 -846 220.245117188 -442.493164062 795 -24 c 0
 1115 209 1547 152 2020 427 c 1
 2030 410 l 1
 1552 134 1125 191 805 -41 c 0
 215.646970793 -468.280946175 -225.823485087 -878.142806187 -454 -1165 c 4
 -648.847081268 -1409.95635309 -702.513586916 -1576.59846272 -648 -1612 c 4
 -606.066471603 -1639.23195175 -460.26438672 -1592.11748694 -232.000022127 -1386.58732989 c 4
 -79.1277000776 -1248.94047285 108.041664406 -1039.45009523 321 -735 c 6
 1407 819 l 5
EndSplineSet
Comment: "It is final part of glyphs like 'j' before 'e'."
Colour: ff2b33
EndChar

StartChar: g_p
Encoding: 134 -1 127
Width: 3203
VWidth: 0
Flags: HW
AnchorPoint: "Cursive 1" 3057 812 exit 0
AnchorPoint: "Cursive 1" 226 -1620 entry 0
LayerCount: 6
Back
Refer: 143 -1 S 1 0 0 1 2892 0 2
Refer: 142 -1 S 1 0 0 1 981 0 2
Fore
SplineSet
220 -1627 m 1
 110.97265625 -1556.19726562 418.569335938 -1068.61621094 890 -629 c 0
 1839.296875 256.233398438 2436.73925781 265.916992188 3051 819 c 1
 3063 804 l 1
 2448.24121094 250.46875 1850.10351562 240.1875 903 -643 c 0
 414.456054688 -1098.57519531 148.1328125 -1557.53613281 232 -1612 c 1
 220 -1627 l 1
EndSplineSet
Layer: 5
SplineSet
220 -1627 m 4
 281.684570312 -1667.05859375 443.19921875 -1597.10839844 661 -1401 c 4
 822.514648438 -1255.57128906 1012.04589844 -1039.16699219 1217 -746 c 6
 2302 807 l 5
 2287 819 l 5
 1201 -735 l 6
 988.041992188 -1039.45019531 800.872070312 -1248.94042969 648 -1386.58691406 c 4
 419.735351562 -1592.1171875 273.93359375 -1639.23242188 232 -1612 c 4
 148.1328125 -1557.53613281 414.456054688 -1098.57519531 903 -643 c 4
 1850.10351562 240.1875 2448.24121094 250.46875 3063 804 c 5
 3051 819 l 5
 2436.73925781 265.916992188 1839.296875 256.233398438 890 -629 c 4
 418.569335938 -1068.61621094 110.97265625 -1556.19726562 220 -1627 c 4
EndSplineSet
Refer: 57 -1 S 1 0 0 1 880 0 2
Refer: 76 -1 S 1 0 0 1 880 0 2
Comment: "It is final part of glyphs like 'j' before glyphs like 's'."
Colour: ff171a
EndChar

StartChar: g_a
Encoding: 135 -1 128
Width: 3613
VWidth: 0
Flags: HW
HStem: 800 20G<2360.26 2999.52>
AnchorPoint: "Cursive 1" 3406 819 exit 0
AnchorPoint: "Cursive 1" 281.001 -1620 entry 0
LayerCount: 6
Back
Refer: 160 -1 S 1 0 0 1 2494 0 2
Refer: 142 -1 N 1 0 0 1 936 0 2
Fore
SplineSet
276.000976562 -1627 m 1
 210.634765625 -1584.55078125 256.516601562 -1417.61523438 467.000976562 -1153 c 0
 920.19140625 -583.26171875 2098.86230469 430.752929688 3406.00097656 781 c 1
 3410.00097656 762 l 1
 2111.796875 414.147460938 933.946289062 -596.826171875 482.000976562 -1165 c 0
 282.173828125 -1416.21679688 234.326171875 -1577.14355469 288.000976562 -1612 c 1
 276.000976562 -1627 l 1
EndSplineSet
Layer: 5
SplineSet
276.000976562 -1627 m 4
 337.685546875 -1667.05859375 499.200195312 -1597.10839844 717.000976562 -1401 c 4
 878.515625 -1255.57128906 1068.046875 -1039.16699219 1273.00097656 -746 c 6
 2358.00097656 807 l 5
 2343.00097656 819 l 5
 1257.00097656 -735 l 6
 1044.04296875 -1039.45019531 856.873046875 -1248.94042969 704.000976562 -1386.58691406 c 4
 475.736328125 -1592.1171875 329.934570312 -1639.23242188 288.000976562 -1612 c 4
 234.326171875 -1577.14355469 282.173828125 -1416.21679688 482.000976562 -1165 c 4
 933.946289062 -596.826171875 2111.796875 414.147460938 3410.00097656 762 c 5
 3406.00097656 781 l 5
 2098.86230469 430.752929688 920.19140625 -583.26171875 467.000976562 -1153 c 4
 256.516601562 -1417.61523438 210.634765625 -1584.55078125 276.000976562 -1627 c 4
EndSplineSet
Comment: "It is final part of glyphs like 'j' before glyphs like 'a'."
Colour: ff3324
EndChar

StartChar: g_t
Encoding: 136 -1 129
Width: 3387
VWidth: 0
Flags: HW
HStem: 800 20G<2384.26 3023.52>
AnchorPoint: "Cursive 1" 3150 812 exit 0
AnchorPoint: "Cursive 1" 305 -1620 entry 0
LayerCount: 6
Back
Refer: 140 -1 S 1 0 0 1 2827 397 2
Refer: 142 -1 N 1 0 0 1 960 0 2
Fore
SplineSet
300 -1627 m 1
 233 -1585 279.716796875 -1419.57324219 491 -1153 c 0
 1656.63964844 317.670898438 2657 200 3142 819 c 1
 3157 807 l 1
 2674.78613281 187.569335938 1665.68261719 299.155273438 506 -1164 c 0
 304.803710938 -1417.84570312 255 -1573 311 -1612 c 1
 300 -1627 l 1
EndSplineSet
Layer: 5
SplineSet
2368 819.200195312 m 5
 2390 819 l 5
 1296 -746 l 6
 520.248046875 -1857.66308594 -65.6171875 -1852.50390625 491 -1153.46875 c 4
 1660 314.63671875 2656 210 3141 819.200195312 c 5
 3172 819.200195312 l 5
 2698 198 1651 280 506 -1164.24121094 c 4
 -38.978515625 -1851.6484375 534.515625 -1802.328125 1281 -735 c 6
 2368 819.200195312 l 5
EndSplineSet
Comment: "it was final part of 'j' before 't'."
Colour: ff262e
EndChar

StartChar: g_
Encoding: 137 -1 130
Width: 3357
VWidth: 0
Flags: HW
AnchorPoint: "Cursive 1" 3135.42 819 exit 0
AnchorPoint: "Cursive 1" 288.419 -1620 entry 0
LayerCount: 6
Back
Refer: 142 -1 S 1 0 0 1 942.419 0 2
Fore
SplineSet
282.418945312 -1627 m 1
 217.052734375 -1584.55078125 263.073242188 -1418.38964844 473.418945312 -1153 c 0
 886.482421875 -631.84375 1721.53222656 72.5400390625 3125.41894531 819 c 1
 3134.41894531 802 l 1
 1730.53222656 55.5400390625 901.768554688 -645.348632812 488.418945312 -1165 c 0
 293.572265625 -1409.95605469 239.905273438 -1576.59863281 294.418945312 -1612 c 1
 282.418945312 -1627 l 1
EndSplineSet
Layer: 5
SplineSet
3134.41894531 802 m 5
 3125.41894531 819 l 5
 1721.53222656 72.5400390625 886.482421875 -631.84375 473.418945312 -1153 c 4
 263.073242188 -1418.38964844 217.052734375 -1584.55078125 282.418945312 -1627 c 4
 344.103515625 -1667.05859375 505.618164062 -1597.10839844 723.418945312 -1401 c 4
 884.93359375 -1255.57128906 1074.46484375 -1039.16699219 1279.41894531 -746 c 6
 2364.41894531 807 l 5
 2349.41894531 819 l 5
 1263.41894531 -735 l 6
 1050.4609375 -1039.45019531 863.291015625 -1248.94042969 710.418945312 -1386.58691406 c 4
 482.154296875 -1592.1171875 336.352539062 -1639.23242188 294.418945312 -1612 c 4
 239.905273438 -1576.59863281 293.572265625 -1409.95605469 488.418945312 -1165 c 4
 901.768554688 -645.348632812 1730.53222656 55.5400390625 3134.41894531 802 c 5
EndSplineSet
Substitution2: "* +- [o]" g_o
Substitution2: "* +- [e]" g_e..
Substitution2: "* +- [t]" g_b
Substitution2: "* +- [m, n, v, x, y, z] - 1" g_m
Substitution2: "* +- [a, d, g, q]" g_a
Substitution2: "* +- [p, r, s]" g_p
Substitution2: "* +- [b, f, h, k, l]" g_b
Substitution2: "* +- [i, j, u, w]" g_i
Substitution2: "* +- [c]" g_c
Comment: "It is default final part of glyphs like g. "
Colour: ff3845
EndChar

StartChar: g_o
Encoding: 138 -1 131
Width: 3518
VWidth: 0
Flags: HW
AnchorPoint: "Cursive 1" 3324 819 exit 0
AnchorPoint: "Cursive 1" 294 -1620 entry 0
LayerCount: 6
Back
Refer: 137 -1 N 1 0 0 1 948 0 2
Refer: 142 -1 N 1 0 0 1 948 0 2
Fore
SplineSet
288 -1627 m 1
 222.633789062 -1584.55078125 268.654296875 -1418.38964844 479 -1153 c 0
 1028.71582031 -459.431640625 1966.69042969 230.1953125 3242 798 c 1
 3250 780 l 1
 1972.86328125 211.381835938 1044.30273438 -473.174804688 494 -1165 c 0
 299.153320312 -1409.95605469 245.486328125 -1576.59863281 300 -1612 c 1
 288 -1627 l 1
EndSplineSet
Layer: 5
SplineSet
3250 780 m 5
 3242 798 l 5
 1966.69042969 230.1953125 1028.71582031 -459.431640625 479 -1153 c 4
 268.654296875 -1418.38964844 222.633789062 -1584.55078125 288 -1627 c 4
 349.684570312 -1667.05859375 511.19921875 -1597.10839844 729 -1401 c 4
 890.514648438 -1255.57128906 1080.04589844 -1039.16699219 1285 -746 c 6
 2370 807 l 5
 2355 819 l 5
 1269 -735 l 6
 1056.04199219 -1039.45019531 868.872070312 -1248.94042969 716 -1386.58691406 c 4
 487.735351562 -1592.1171875 341.93359375 -1639.23242188 300 -1612 c 4
 245.486328125 -1576.59863281 299.153320312 -1409.95605469 494 -1165 c 4
 1044.30273438 -473.174804688 1972.86328125 211.381835938 3250 780 c 5
EndSplineSet
Comment: "It is final part of glyphs like j before o."
Colour: ff292e
EndChar

StartChar: o_c
Encoding: 140 -1 132
Width: 414
VWidth: 0
Flags: HW
HStem: 735 19<492.995 1576.98>
AnchorPoint: "Cursive 1" 1682 811 exit 0
AnchorPoint: "Cursive 1" 463 781 entry 0
LayerCount: 6
Back
Refer: 164 -1 S 1 0 0 1 0 0 2
Refer: 137 -1 N 1 0 0 1 0 0 2
Fore
SplineSet
458 772 m 1
 458 772 481.94911344 736.107421875 517 736.107421875 c 3
 658.00434881 736.107421875 1474.41796875 735 1525 735 c 3
 1590 735 1630.82529411 767.898147937 1687 803 c 1
 1676 819 l 1
 1620.00338421 784.009430983 1584.03388857 754 1525 754 c 3
 1475.14425134 754 656.999591697 754.922851562 518 754.922851562 c 3
 490.99988978 754.922851562 473 783 473 783 c 1
 458 772 l 1
EndSplineSet
Comment: "It is for final part of o before c."
Colour: ff1414
EndChar

StartChar: b_b
Encoding: 141 -1 133
Width: 903
VWidth: 0
Flags: W
HStem: 605 19<117.444 309.112>
VStem: -43 17<729.98 781>
AnchorPoint: "Cursive 1" 730 812 exit 0
AnchorPoint: "Cursive 1" -32 781 entry 0
LayerCount: 6
Back
Refer: 143 -1 S 1 0 0 1 565 0 2
Refer: 137 -1 N 1 0 0 1 0 0 2
Fore
SplineSet
-43 781 m 1
 -26 781 l 1
 -32.0203876065 678.151711721 71.0012706316 620.937957323 219 624 c 0
 364 627 556.570852983 687.946828377 724 819 c 1
 736 804 l 1
 567.789917701 672.400347378 372 608 219 605 c 0
 63 602 -49.5684380297 663.273379928 -43 781 c 1
EndSplineSet
Comment: "It is for final part of glyph like b before glyp like b, l and etc."
Colour: ff242b
EndChar

StartChar: Guid.Numbers
Encoding: 176 -1 134
Width: 1153
VWidth: 0
Flags: HW
LayerCount: 6
Back
SplineSet
-400 810 m 29
 1600 810 l 1053
-400 0 m 29
 1600 0 l 1053
-400 162 m 29
 1600 162 l 1053
-400 324 m 29
 1600 324 l 1053
-400 486 m 29
 1600 486 l 1053
-400 648 m 29
 1600 648 l 1053
-400 972 m 29
 1600 972 l 1053
EndSplineSet
EndChar

StartChar: Guid.p_q
Encoding: 177 -1 135
Width: 4096
VWidth: 0
LayerCount: 6
Back
SplineSet
-4096 -968 m 1
 8192 -968 l 1025
  Named: "p and q "
EndSplineSet
EndChar

StartChar: Guid.r_s
Encoding: 178 -1 136
Width: 4096
VWidth: 0
LayerCount: 6
Back
SplineSet
-4096 949 m 1
 8192 949 l 1025
  Named: "r and s"
EndSplineSet
EndChar

StartChar: Guid.b_v_w_o_m_n
Encoding: 179 -1 137
Width: 4096
VWidth: 0
LayerCount: 6
Back
SplineSet
-4096 781 m 1
 8192 781 l 1029
  Named: "final part of b, v, w, and o"
EndSplineSet
EndChar

StartChar: Guid.a_d_g_q
Encoding: 180 -1 138
Width: 4096
VWidth: 0
LayerCount: 6
Back
SplineSet
-4096 647 m 4
 8192 647 l 1028
  Named: "[+AH4A-a] +- [+AH4A-a]"
EndSplineSet
EndChar

StartChar: Guid.Middle_lowercase
Encoding: 181 -1 139
Width: 4096
VWidth: 0
LayerCount: 6
Back
SplineSet
-4096 410 m 4
 8192 410 l 1028
  Named: "Middle"
EndSplineSet
EndChar

StartChar: Guid.General1
Encoding: 182 -1 140
Width: 4096
VWidth: 0
LayerCount: 6
Back
SplineSet
109 143 m 29
 111 143 l 1053
110 144 m 29
 110 142 l 1053
102 148 m 29
 117 136 l 1053
EndSplineSet
EndChar

StartChar: Guid.e
Encoding: 183 -1 141
Width: 4096
VWidth: 0
LayerCount: 6
Back
SplineSet
421 418 m 25
 425 418 l 1049
423 420 m 25
 423 416 l 1049
418 427 m 25
 428 410 l 1033
EndSplineSet
EndChar

StartChar: Guid.g_j
Encoding: 184 -1 142
Width: 4096
VWidth: 0
LayerCount: 6
Back
SplineSet
-656 -1620 m 25
 -652 -1620 l 1049
-654 -1618 m 25
 -654 -1622 l 1049
-648 -1612 m 25
 -660 -1627 l 1049
-312 -960 m 25
 -312 -978 l 1049
-468 -960 m 25
 -468 -978 l 1049
-156 -978 m 25
 -156 -960 l 25
 -156 -978 l 25
-624 -960 m 25
 -624 -978 l 1049
156 -960 m 25
 156 -978 l 1049
0 -960 m 25
 0 -978 l 1049
EndSplineSet
EndChar

StartChar: Guid.General2
Encoding: 185 -1 143
Width: 361
VWidth: 0
Flags: HW
LayerCount: 6
Back
SplineSet
165 813 m 29
 165 811 l 1053
164 812 m 29
 166 812 l 1053
159 819 m 25
 171 804 l 1049
EndSplineSet
EndChar

StartChar: b_p
Encoding: 142 -1 144
Width: 903
VWidth: 0
Flags: HW
HStem: 799.487 20G<1037.5 1178>
AnchorPoint: "Cursive 1" 1398 812 exit 0
AnchorPoint: "Cursive 1" 689 781 entry 0
LayerCount: 6
Back
Refer: 154 -1 N 1 0 0 1 -310 0 2
Refer: 143 -1 N 1 0 0 1 1232 0 2
Refer: 137 -1 N 1 0 0 1 0 0 2
Fore
SplineSet
634 730 m 1
 664 644 783 600 902 600 c 0
 1057 600 1249 666 1404 804 c 1
 1392 819 l 1
 1245 686 1050 620 902 619 c 0
 800 618 680 657 652 738 c 1
 634 730 l 1
EndSplineSet
Comment: "It is final part of glyph like b before s."
Colour: ff2b3d
EndChar

StartChar: P116.1
Encoding: 143 -1 145
Width: 2141
VWidth: 0
Flags: HW
HStem: 819.2 21G<1393 1441.5>
VStem: 562 19<186.301 214>
AnchorPoint: "Cursive 1" 846 9 exit 0
AnchorPoint: "Cursive 1" 1397 812 entry 0
LayerCount: 6
Back
Refer: 143 -1 S 1 0 0 1 1232 0 2
Fore
SplineSet
847 0 m 1
 944 0 1057.66412272 53.3583918972 1165 188.728515625 c 0
 1288.5234375 344.513671875 1324 551 1541 938 c 1
 1525 949 l 1
 1525 949 1484.64436471 900.403804317 1391 819 c 5
 1391 817 l 25
 1401 804 l 25
 1403 804 l 1
NamedP: "41 degree"
 1451.07500026 845.790960147 1490 882 1490 882 c 1
 1300 529 1265.60737894 345.915444877 1149 200.1875 c 0
 1045.20366364 70.4699219134 937 19 847 19 c 1
 847 0 l 1
EndSplineSet
MultipleSubs2: "'ccmp' [s] +- *" s.0 f_
Comment: "It is final part 's' when there are not any glyphs after it."
Colour: d1408c
EndChar

StartChar: Guid.r_u_v_w_y_z_m_n
Encoding: 186 -1 146
Width: 4096
VWidth: 0
Flags: H
LayerCount: 6
Back
SplineSet
378 779 m 29
 378 783 l 1053
374 781 m 25
 381 781 l 1049
375 789 m 25
 382 772 l 1049
EndSplineSet
EndChar

StartChar: o_a
Encoding: 144 -1 147
Width: 1840
VWidth: 0
Flags: HW
AnchorPoint: "Cursive 1" 1714 819 exit 0
AnchorPoint: "Cursive 1" 630 781 entry 0
LayerCount: 6
Back
Refer: 160 -1 S 1 0 0 1 802 0 2
Refer: 150 -1 N 1 0 0 1 6 0 2
Refer: 137 -1 N 1 0 0 1 0 0 2
Fore
SplineSet
623 771 m 1
 639 782 l 1
 693 698 1344 678 1708 780 c 1
 1713 761 l 1
 1344 660 685 674 623 771 c 1
EndSplineSet
Comment: "It is final part of o before glyph like a."
Colour: ff4552
EndChar

StartChar: o_b
Encoding: 145 -1 148
Width: 1968
VWidth: 0
Flags: HW
HStem: 799.487 20G<1037.5 1178>
AnchorPoint: "Cursive 1" 1496 811 exit 0
AnchorPoint: "Cursive 1" 628 781 entry 0
LayerCount: 6
Back
Refer: 154 -1 S 1 0 0 1 0 0 2
Refer: 137 -1 N 1 0 0 1 0 0 2
Fore
SplineSet
628 765 m 1
 645 774 l 1
 701 657 860 624 985 624 c 0
 1130 624 1323 688 1490 819 c 1
 1502 804 l 1
 1334 672 1138 605 985 605 c 0
 850 605 691 639 628 765 c 1
EndSplineSet
Comment: "It is final part of o before glyphs like h."
Colour: ff1442
EndChar

StartChar: o_e
Encoding: 146 -1 149
Width: 942
VWidth: 0
Flags: HW
HStem: 799.487 20G<552.5 693>
AnchorPoint: "Cursive 1" 1351 418 exit 0
AnchorPoint: "Cursive 1" 624 781 entry 0
LayerCount: 6
Back
Refer: 141 -1 S 1 0 0 1 928 0 2
Refer: 150 -1 N 1 0 0 1 0 0 2
Refer: 137 -1 N 1 0 0 1 0 0 2
Fore
SplineSet
638 706 m 1
 657 706 l 5
 642.387505233 371.31884577 954.556517489 201 1346 427 c 1
 1356 410 l 1
 951 176 623 357.243164062 638 706 c 1
EndSplineSet
Comment: "It is final part of o before e."
Colour: ff3045
EndChar

StartChar: Guid.o
Encoding: 187 -1 150
Width: 4096
VWidth: 0
AnchorPoint: "Cursive 1" 624 781 exit 0
LayerCount: 6
Back
SplineSet
624 785 m 29
 624 776 l 1053
603 781 m 29
 639 781 l 1053
634 787 m 29
 634 773 l 1053
607 774 m 29
 607 788 l 1053
EndSplineSet
EndChar

StartChar: o_i
Encoding: 147 -1 151
Width: 794
VWidth: 0
Flags: W
HStem: 665 19<804.578 1043.19>
VStem: 627 870
AnchorPoint: "Cursive 1" 1500 812 exit 0
AnchorPoint: "Cursive 1" 624 781 entry 0
LayerCount: 6
Back
Refer: 150 -1 S 1 0 0 1 0 0 2
Refer: 137 -1 N 1 0 0 1 0 0 2
Fore
SplineSet
642 778 m 1
 688.564342921 716.516984105 784 684 916 684 c 0
 1073 684 1278.17258235 730.184960075 1497 819 c 1
 1504 801 l 1
 1281.9306033 711.000652179 1076 665 916 665 c 0
 782 665 681.375317572 696.088877408 627 766 c 1
 642 778 l 1
EndSplineSet
Comment: "It is final part of o before glyphs like j and u."
Colour: ff3d40
EndChar

StartChar: o_m
Encoding: 148 -1 152
Width: 794
VWidth: 0
Flags: HW
AnchorPoint: "Cursive 1" 1301 781 exit 0
AnchorPoint: "Cursive 1" 630 781 entry 0
LayerCount: 6
Back
Refer: 150 -1 S 1 0 0 1 6 0 2
Refer: 146 -1 N 1 0 0 1 923 0 2
Refer: 137 -1 N 1 0 0 1 0 0 2
Fore
SplineSet
1298 789 m 1
 1192 749 1023.92890266 694.684651056 934 685 c 0
 869 678 740 666 646 772 c 1
 631 760 l 1
 732 645 868.96309953 659.362683122 936 666 c 0
 1037 676 1193 731 1305 772 c 1
 1298 789 l 1
EndSplineSet
Comment: "It is final part of o before glyphs like m and v."
Colour: ff3333
EndChar

StartChar: o_p
Encoding: 149 -1 153
Width: 1957
VWidth: 0
Flags: HW
HStem: 799.487 20G<1037.5 1178>
AnchorPoint: "Cursive 1" 630 781 entry 0
AnchorPoint: "Cursive 1" 1404 812 exit 0
LayerCount: 6
Back
Refer: 143 -1 N 1 0 0 1 1232 0 2
Refer: 150 -1 S 1 0 0 1 6 0 2
Refer: 137 -1 N 1 0 0 1 0 0 2
Fore
SplineSet
641 730 m 1
 671 644 790 600 909 600 c 0
 1064 600 1256 666 1411 804 c 1
 1399 819 l 1
 1252 686 1057 620 909 619 c 0
 807 618 687 657 659 738 c 1
 641 730 l 1
EndSplineSet
Comment: "It is final part of o before s and r."
Colour: ff1a29
EndChar

StartChar: Guid.b
Encoding: 190 -1 154
Width: 4096
VWidth: 0
LayerCount: 6
Back
SplineSet
628 787 m 29
 628 776 l 1053
640 787 m 29
 640 776 l 1053
613 787 m 29
 613 776 l 1053
613 781 m 29
 640 781 l 1053
EndSplineSet
EndChar

StartChar: a_o
Encoding: 150 -1 155
Width: 1313
VWidth: 0
Flags: HW
AnchorPoint: "Cursive 1" 1523 819 exit 0
AnchorPoint: "Cursive 1" 110 143 entry 0
LayerCount: 6
Back
Refer: 140 -1 S 1 0 0 1 0 0 2
Refer: 137 -1 N 1 0 0 1 0 0 2
Fore
SplineSet
117 136 m 5
 73 79 57 38 68 25 c 0
 83 7 172 27 304 91 c 0
 490 182 974 532 1425 789 c 1
 1434 772 l 1
 983 515 499 165 313 74 c 0
 44 -57 -14 -2 102 148 c 1
 117 136 l 5
EndSplineSet
Comment: "It is final part of glyphs like a and m before o."
Colour: ff2b59
EndChar

StartChar: b_o
Encoding: 151 -1 156
Width: 903
VWidth: 0
Flags: HW
AnchorPoint: "Cursive 1" 1831 819 exit 0
AnchorPoint: "Cursive 1" 999 781 entry 0
LayerCount: 6
Back
Refer: 154 -1 S 1 0 0 1 0 0 2
Refer: 137 -1 N 1 0 0 1 0 0 2
Fore
SplineSet
991 776 m 1
 1007 787 l 1
 1100 636 1377 648 1775 809 c 1
 1782 790 l 1
 1365 623 1089 619 991 776 c 1
EndSplineSet
Comment: "It is final part of glyphs like b before o."
Colour: ff4259
EndChar

StartChar: o_o
Encoding: 152 -1 157
Width: 903
VWidth: 0
Flags: W
VStem: 624.818 983.376
AnchorPoint: "Cursive 1" 1677 819 exit 0
AnchorPoint: "Cursive 1" 628 781 entry 0
LayerCount: 6
Back
Refer: 154 -1 S 1 0 0 1 -371 0 2
Refer: 137 -1 N 1 0 0 1 0 0 2
Fore
SplineSet
624.818359375 769.20703125 m 1
 734.073242188 627.526367188 1214.80273438 634.639648438 1614.38085938 784.755859375 c 1
 1608.19433594 803.296875 l 1
 1214.87011719 653.830078125 739 651 640.022460938 780.741210938 c 1
 624.818359375 769.20703125 l 1
EndSplineSet
Comment: "It is final part of o before o."
Colour: ff3b3b
EndChar

StartChar: f_o
Encoding: 153 -1 158
Width: 1721
VWidth: 0
Flags: HW
HStem: 0 19<0 79.0476>
AnchorPoint: "Cursive 1" 1535 819 exit 0
AnchorPoint: "Cursive 1" 1 9 entry 0
LayerCount: 6
Fore
SplineSet
0 0 m 1
 7 19 l 17
 525 19 1045 598 1456 799 c 1
 1464 781 l 17
 1037 570 538 0 0 0 c 1
EndSplineSet
Comment: "It final part of glyphs like s before o."
Colour: ff4040
EndChar

StartChar: q_a
Encoding: 154 -1 159
Width: 2225
VWidth: 0
Flags: HW
HStem: 811 16<1378.88 1416.32>
AnchorPoint: "Cursive 1" 1620 819 exit 0
AnchorPoint: "Cursive 1" 634 812 entry 0
LayerCount: 6
Back
Refer: 160 -1 S 1 0 0 1 708 0 2
Fore
SplineSet
626 819 m 25
 -590 -737 l 2
 -784 -984 -656.480543348 -1081.33628792 -439 -782 c 0
 33.5793428431 -131.550336523 923.585173577 697.509676245 1756 785 c 5
 1754 804 l 1
 916.791578041 716.005849052 24.2338369702 -111.767593037 -454 -770 c 0
 -557.723037115 -912.762513022 -642.403343532 -959.988564113 -660 -947.817382812 c 0
 -678.569261205 -934.97347436 -659.745224838 -856.909058135 -577 -751 c 10
 641 807 l 1
 626 819 l 25
EndSplineSet
Comment: "It is final part of 'q' before glyphs like 'a'."
Colour: ff2e3d
EndChar

StartChar: Guid.a_anchors
Encoding: 188 -1 160
Width: 4096
VWidth: 0
Flags: HW
AnchorPoint: "Cursive 1" 1396 814 exit 0
LayerCount: 6
Back
SplineSet
142 272 m 25
 142 0 l 1049
1415 794 m 25
 1415 845 l 1049
1395 814 m 25
 1401 814 l 1049
  Named: "Cursive 1 Exit"
1398 817 m 25
 1398 811 l 1049
898 819 m 25
 926 819 l 1049
  Named: "Cursive 1 entery"
912 833 m 25
 912 806 l 1049
EndSplineSet
EndChar

StartChar: q_p
Encoding: 155 -1 161
Width: 2225
VWidth: 0
Flags: HW
HStem: 811 16<1378.88 1416.32>
AnchorPoint: "Cursive 1" 1413 812 exit 0
AnchorPoint: "Cursive 1" 634 812 entry 0
LayerCount: 6
Back
Refer: 143 -1 S 1 0 0 1 1248 0 2
Fore
SplineSet
626 819 m 25
 -590 -737 l 2
 -784 -984 -657.068328601 -1082.14530491 -439 -782 c 0
 275.746866788 201.76466516 784.323667205 216.283271814 1419 804 c 1
 1407 819 l 5
 771 233 261.33465204 214.573682154 -454 -770 c 0
 -557.72058562 -912.759138827 -642.403343532 -959.988564113 -660 -947.817382812 c 0
 -678.569261205 -934.97347436 -659.745224838 -856.909058135 -577 -751 c 10
 641 807 l 1
 626 819 l 25
EndSplineSet
Comment: "It is final part of 'q' before glyphs like 's' and 'p'."
Colour: ff1a1f
EndChar

StartChar: q_b
Encoding: 156 -1 162
Width: 2225
VWidth: 0
Flags: W
AnchorPoint: "Cursive 1" 1415 812 exit 0
AnchorPoint: "Cursive 1" 634 812 entry 0
LayerCount: 6
Fore
SplineSet
626 819 m 25
 -590 -737 l 2
 -784 -984 -657.068328601 -1082.14530491 -439 -782 c 0
 275.746866788 201.76466516 765.104525503 235.577336102 1419 804 c 1
 1407 819 l 1
 756.862979213 253.844510066 261.33465204 214.573682154 -454 -770 c 0
 -557.72058562 -912.759138827 -642.403343532 -959.988564113 -660 -947.817382812 c 0
 -678.569261205 -934.97347436 -659.745224838 -856.909058135 -577 -751 c 10
 641 807 l 1
 626 819 l 25
EndSplineSet
Comment: "It is final part of 'q' before glyphs like h."
Colour: ff4c40
EndChar

StartChar: Guid.General3
Encoding: 189 -1 163
Width: 1313
VWidth: 0
Flags: HW
LayerCount: 6
Back
SplineSet
-4096 136 m 1
 8192 136 l 1029
  Named: "For final part of glyphs like u"
EndSplineSet
EndChar

StartChar: Guid.General4
Encoding: 191 -1 164
Width: 4096
VWidth: 0
LayerCount: 6
Back
SplineSet
1682 812 m 29
 1682 810 l 1053
1681 811 m 29
 1683 811 l 1053
1676 819 m 25
 1687 803 l 1049
EndSplineSet
EndChar

StartChar: c_e
Encoding: 118 -1 165
Width: 2857
VWidth: 0
Flags: HW
AnchorPoint: "Cursive 1" 1404 418 exit 0
AnchorPoint: "Cursive 1" 110 143 entry 0
LayerCount: 6
Back
Refer: 139 -1 S 1 0 0 1 0 0 2
Refer: 141 -1 N 1 0 0 1 981 0 2
Fore
SplineSet
117 136 m 1
 83.3417871439 92.9194521003 71.6203158058 69.1475059432 78.7890625 53 c 0
 89 30 148.188226921 19 222 19 c 0
 422 19 942.763211038 130.716364952 1399 427 c 1
 1409 410 l 1
 957 116 433 -0 222 -0 c 0
 -7 0 55 89 102 148 c 1
 117 136 l 1
EndSplineSet
Comment: "It is final part of 'c' and 'e' before 'e'."
Colour: ff292e
EndChar

StartChar: c_c
Encoding: 119 -1 166
Width: 1313
VWidth: 0
Flags: HW
HStem: 389.6 429.601G<223.887 322 1447.1 1837>
AnchorPoint: "Cursive 1" 110 143 entry 0
AnchorPoint: "Cursive 1" 1983 811 exit 0
LayerCount: 6
Back
Refer: 164 -1 S 1 0 0 1 301 0 2
Refer: 140 -1 S 1 0 0 1 0 0 2
Refer: 139 -1 S 1 0 0 1 0 0 2
Fore
SplineSet
117 136 m 1
 42.2320395201 39.8196189132 49.9019156514 7.25380944798 170 22 c 0
 448.905468611 56.2452854968 1341.28808594 406.1640625 1977 819 c 5
 1988 803 l 5
 1347.28125 386.912109375 456.533203125 37.9365234375 172 3 c 0
 46.7900390625 -12.3740234375 8.99923160894 28.3652087364 102 148 c 1
 117 136 l 1
EndSplineSet
Comment: "It is fianl part of 'c' and 'e' before 'c'."
Colour: ff3d29
EndChar

StartChar: c_a
Encoding: 133 -1 167
Width: 1144
VWidth: 0
Flags: HW
HStem: 605.857 20G<726.251 1147.35>
AnchorPoint: "Cursive 1" 1860 819 exit 0
AnchorPoint: "Cursive 1" 110 143 entry 0
LayerCount: 6
Back
Refer: 160 -1 S 1 0 0 1 948 0 2
Refer: 163 -1 N 1 0 0 1 0 0 2
Refer: 140 -1 N 1 0 0 1 0 0 2
Refer: 138 -1 N 1 0 0 1 0 0 2
Fore
SplineSet
117 136 m 1
 69.5059647278 75.2104069742 51.0009734644 37.7246222037 60 27 c 0
 67.7134513162 17.8074666826 100.347655731 18.2401882298 152 28 c 0
 388.809683967 72.7456543079 1063.50877343 311.854138189 1555 656 c 1
 1565 640 l 1
 1067.01269531 291.305664062 397.411573225 55.925656233 156 9 c 0
 11.8578643825 -19.0183928811 6.05531568525 25.1964041579 102 148 c 1
 117 136 l 1
EndSplineSet
Comment: "It is final part of glyphs like 'c' and 'e' before glyphs like 'a'."
Colour: ff2638
EndChar

StartChar: c_
Encoding: 161 -1 168
Width: 1313
VWidth: 0
Flags: W
HStem: 5 814
AnchorPoint: "Cursive 1" 110 143 entry 0
AnchorPoint: "Cursive 1" 1614 811 exit 0
LayerCount: 6
Fore
SplineSet
117 136 m 5
 41.4429203878 38.9426575653 53.7926851446 3.5095150353 170 24 c 4
 451.655017361 73.6633788127 1018.92336122 341.975143584 1608 819 c 5
 1619 803 l 5
 1025.28379983 322.21810085 458.401790731 55.5003630291 172 5 c 4
 47.7665019575 -16.9057176127 8.99923160894 28.3652087364 102 148 c 5
 117 136 l 5
EndSplineSet
Substitution2: "* +- [e]" c_e
Substitution2: "* +- [a, d, g, q]" c_a
Substitution2: "* +- [o]" c_o
Substitution2: "* +- [m, n, v, x, y, z] - 1" a_m
Substitution2: "* +- [c]" c_c
Comment: "It is same as glyph with name 'a_bi'."
Colour: ff2424
EndChar

StartChar: P9012
Encoding: 162 -1 169
Width: 1313
VWidth: 0
Flags: HW
AnchorPoint: "Cursive 1" 110 143 entry 0
AnchorPoint: "Cursive 1" 1392 812 exit 0
LayerCount: 6
Back
Refer: 143 -1 S 1 0 0 1 1227 0 2
Refer: 163 -1 N 1 0 0 1 0 0 2
Refer: 140 -1 N 1 0 0 1 0 0 2
Fore
SplineSet
102 148 m 1
 6 24 19 -26 158 14 c 0
 441 95 878 367 1398 804 c 1
 1386 819 l 1
 867 383 432 114 151 32 c 0
 29 -4 45 44 117 136 c 1
 102 148 l 1
EndSplineSet
Comment: "It is same as P9000, it because of preventing of confilict in parts of 'u' in patters like 'uu' and conflilct in parts of 'y'."
Colour: ff2929
EndChar

StartChar: c_o
Encoding: 163 -1 170
Width: 1313
VWidth: 0
Flags: HW
AnchorPoint: "Cursive 1" 1732 819 exit 0
AnchorPoint: "Cursive 1" 110 143 entry 0
LayerCount: 6
Fore
SplineSet
117 136 m 1
 75.1350196779 82.4152687547 55.3099351301 40.6873073808 67 27 c 0
 89.0812336432 1.1461971696 256.204892687 34.3610685841 544 181 c 0
 920.984860384 373.08338044 1183 532 1634 789 c 1
 1643 772 l 1
 1192 515 926.492114809 354.303737681 553 164 c 0
 256.294827445 12.8211635867 -95.8797547844 -105.274536317 102 148 c 1
 117 136 l 1
EndSplineSet
Comment: "It is final part of 'c' and 'e' before 'o'."
Colour: ff3824
EndChar

StartChar: f_b
Encoding: 164 -1 171
Width: 1427
VWidth: 0
Flags: HW
HStem: 0 19<0 79.0476>
AnchorPoint: "Cursive 1" 1599 812 exit 0
AnchorPoint: "Cursive 1" 1 9 entry 0
LayerCount: 6
Fore
SplineSet
0 0 m 1
 0 19 l 17
 404 19 1298 560 1593 819 c 5
 1605 804 l 21
 1309 545 413 -1 0 0 c 1
EndSplineSet
Comment: "It is for final part of 's' and 'f' before glyphs like 'l'."
Colour: ff1a21
EndChar

StartChar: q_e
Encoding: 157 -1 172
Width: 2225
VWidth: 0
Flags: HW
HStem: 811 16<1378.88 1416.32>
AnchorPoint: "Cursive 1" 1203 418 exit 0
AnchorPoint: "Cursive 1" 634 812 entry 0
LayerCount: 6
Back
Refer: 141 -1 S 1 0 0 1 780 0 2
Refer: 139 -1 N 1 0 0 1 0 0 2
Fore
SplineSet
626 819 m 25
 -590 -737 l 2
 -784 -984 -657.068328601 -1082.14530491 -439 -782 c 0
 28.2892755725 -138.831489472 453.983476745 -61.161816215 1208 410 c 1
 1198 427 l 1
 443.559570312 -44.4267578125 16.228201834 -122.7864045 -454 -770 c 0
 -557.72058562 -912.759138827 -642.403343532 -959.988564113 -660 -947.817382812 c 0
 -678.569261205 -934.97347436 -659.745224838 -856.909058135 -577 -751 c 10
 641 807 l 1
 626 819 l 25
EndSplineSet
Comment: "It is for final part of 'q' before 'e'."
Colour: ff333d
EndChar

StartChar: q_c
Encoding: 158 -1 173
Width: 2855
VWidth: 0
Flags: HW
HStem: 811 16<2248.88 2286.32>
AnchorPoint: "Cursive 1" 2552 811 exit 0
AnchorPoint: "Cursive 1" 1504 812 entry 0
LayerCount: 6
Back
Refer: 164 -1 S 1 0 0 1 870 0 2
Fore
SplineSet
1496 819 m 25
 280 -737 l 2
 86 -984 212.931640625 -1082.14550781 431 -782 c 0
 960.006835938 -53.884765625 1823.43847656 344.620117188 2557 803 c 1
 2546 819 l 1
 1812.59960938 360.720703125 947.9453125 -37.83984375 416 -770 c 0
 312.279296875 -912.758789062 227.596679688 -959.98828125 210 -947.817382812 c 0
 191.430664062 -934.973632812 210.254882812 -856.909179688 293 -751 c 10
 1511 807 l 1
 1496 819 l 25
EndSplineSet
Comment: "It is final part of 'q' before 'c'."
Colour: ff172e
EndChar

StartChar: q_m
Encoding: 159 -1 174
Width: 1817
VWidth: 0
Flags: HW
HStem: 811 16<2233.88 2271.32>
AnchorPoint: "Cursive 1" 1584 417 exit 0
AnchorPoint: "Cursive 1" 1489 812 entry 0
LayerCount: 6
Back
Refer: 143 -1 S 1 0 0 1 1422 -394 2
Refer: 139 -1 N 1 0 0 1 855 0 2
Fore
SplineSet
1481 819 m 25
 265 -737 l 2
 71 -984 198.51953125 -1081.3359375 416 -782 c 0
 768.083007812 -297.3984375 1068.75683594 29.115234375 1593 410 c 1
 1581 425 l 1
 1055.13867188 42.939453125 753.670898438 -284.58984375 401 -770 c 0
 297.279296875 -912.758789062 212.596679688 -959.98828125 195 -947.817382812 c 0
 176.430664062 -934.973632812 195.254882812 -856.909179688 278 -751 c 10
 1496 807 l 1
 1481 819 l 25
EndSplineSet
Comment: "It is final part of 'q' before glyphs like 'm'."
Colour: ff1a2e
EndChar

StartChar: q_o
Encoding: 160 -1 175
Width: 2225
VWidth: 0
Flags: HW
HStem: 811 16<1378.88 1416.32>
AnchorPoint: "Cursive 1" 1592 819 exit 0
AnchorPoint: "Cursive 1" 634 812 entry 0
LayerCount: 6
Fore
SplineSet
626 819 m 25
 -590 -737 l 2
 -784 -984 -656.480543348 -1081.33628792 -439 -782 c 0
 33.5793428431 -131.550336523 870.741456281 673.938582444 1580 799 c 1
 1577 818 l 1
 863.487086788 692.188422317 24.2338369702 -111.767593037 -454 -770 c 0
 -557.723037115 -912.762513022 -642.403343532 -959.988564113 -660 -947.817382812 c 0
 -678.569261205 -934.97347436 -659.745224838 -856.909058135 -577 -751 c 10
 641 807 l 1
 626 819 l 25
EndSplineSet
Comment: "It is final part of 'q' before 'o'."
Colour: ff3038
EndChar

StartChar: g__m
Encoding: 165 -1 176
Width: 2934
VWidth: 0
Flags: HW
AnchorPoint: "Cursive 1" 889 143 exit 0
AnchorPoint: "Cursive 1" 478 418 entry 0
LayerCount: 6
Back
Refer: 140 -1 S 1 0 0 1 779 0 2
Refer: 139 -1 N 1 0 0 1 0 0 2
Refer: 164 -1 N 1 0 0 1 -1204 -393 2
Fore
SplineSet
472 426 m 1
 684 550 906 668 1134 774 c 0
 1332 867 1424 812 1292 643 c 2
 896 136 l 5
 894 136 l 25
 881 146 l 25
 881 148 l 1
 1277 655 l 2
 1399 811 1316 837 1142 756 c 0
 915 650 694 533 483 410 c 1
 472 426 l 1
EndSplineSet
Comment: "It is default initial part of glyphs like 'm' after glyphs like 'j'."
Colour: 6badff
EndChar

StartChar: m__m
Encoding: 166 -1 177
Width: 793
VWidth: 0
Flags: HW
AnchorPoint: "Cursive 1" 890 143 exit 0
AnchorPoint: "Cursive 1" 549 418 entry 0
LayerCount: 6
Back
Refer: 163 -1 S 1 0 0 1 0 0 2
Refer: 140 -1 S 1 0 0 1 780 0 2
Refer: 143 -1 S 1 0 0 1 384 -394 2
Refer: 139 -1 S 1 0 0 1 0 0 2
Fore
SplineSet
895 136 m 25
 882 146 l 25
 882 148 l 1
 1275 650 l 2
 1409.55 817.37 1344 834 1143 756 c 0
 990 697 773 567 555 410 c 5
NamedP: "36 degree"
 553 410 l 25
 543 423 l 25
 543 425 l 1
 772 592 984 713 1135 774 c 0
 1346 859 1440.22 826.59 1293 643 c 2
 897 136 l 1
 895 136 l 25
EndSplineSet
Comment: "It is intial part of glyphs like 'm' after glyphs like 'm'."
Colour: 87baff
EndChar

StartChar: g_b
Encoding: 167 -1 178
Width: 3467
VWidth: 0
Flags: HW
AnchorPoint: "Cursive 1" 3294 812 exit 0
AnchorPoint: "Cursive 1" 226 -1620 entry 0
LayerCount: 6
Back
Refer: 143 -1 S 1 0 0 1 3129 0 2
Refer: 142 -1 S 1 0 0 1 1218 0 2
Fore
SplineSet
220 -1627 m 1
 110.97265625 -1556.19726562 418.569403936 -1068.6161429 890 -629 c 0
 2024.32959121 428.779456457 2684.9870454 294.808835837 3288 819 c 1
 3300 804 l 1
 2689.27039691 274.969422516 2032.2101153 410.005467936 903 -643 c 0
 414.455727318 -1098.57490452 148.1328125 -1557.53613281 232 -1612 c 1
 220 -1627 l 1
EndSplineSet
Layer: 5
SplineSet
220 -1627 m 4
 281.684570312 -1667.05859375 443.19921875 -1597.10839844 661 -1401 c 0
 822.514648438 -1255.57128906 1012.04589844 -1039.16699219 1217 -746 c 2
 2302 807 l 1
 2287 819 l 1
 1201 -735 l 2
 988.041992188 -1039.45019531 800.872070312 -1248.94042969 648 -1386.58691406 c 0
 419.735351562 -1592.1171875 273.93359375 -1639.23242188 232 -1612 c 0
 148.1328125 -1557.53613281 414.455727318 -1098.57490452 903 -643 c 0
 2032.2101153 410.005467936 2689.27039691 274.969422516 3300 804 c 1
 3288 819 l 1
 2684.9870454 294.808835837 2024.32959121 428.779456457 890 -629 c 0
 418.569403936 -1068.6161429 110.97265625 -1556.19726562 220 -1627 c 4
EndSplineSet
Refer: 57 -1 N 1 0 0 1 880 0 2
Refer: 76 -1 N 1 0 0 1 880 0 2
Comment: "It is final part of glyphs like 'j' before glyphs like 'h'."
Colour: ff0a26
EndChar

StartChar: g_i
Encoding: 168 -1 179
Width: 3636
VWidth: 0
Flags: HW
AnchorPoint: "Cursive 1" 298 -1620 entry 0
AnchorPoint: "Cursive 1" 3354 814 exit 0
LayerCount: 6
Back
Refer: 140 -1 S 1 0 0 1 3244 671 2
Refer: 142 -1 N 1 0 0 1 952 0 2
Fore
SplineSet
292 -1627 m 1
 226.633789062 -1584.55078125 272.654296875 -1418.38964844 483 -1153 c 0
 896.063476562 -631.84375 1664.23730469 105.133789062 3346 819 c 1
 3353 801 l 1
 1682.28320312 91.8232421875 917.575195312 -637.522460938 498 -1165 c 0
 303.153320312 -1409.95605469 249.486328125 -1576.59863281 304 -1612 c 1
 292 -1627 l 1
EndSplineSet
Layer: 5
SplineSet
3353 801 m 5
 3346 819 l 5
 1664.23730469 105.133789062 896.063476562 -631.84375 483 -1153 c 4
 272.654296875 -1418.38964844 226.633789062 -1584.55078125 292 -1627 c 4
 353.684570312 -1667.05859375 515.19921875 -1597.10839844 733 -1401 c 4
 894.514648438 -1255.57128906 1084.04589844 -1039.16699219 1289 -746 c 6
 2374 807 l 5
 2359 819 l 5
 1273 -735 l 6
 1060.04199219 -1039.45019531 872.872070312 -1248.94042969 720 -1386.58691406 c 4
 491.735351562 -1592.1171875 345.93359375 -1639.23242188 304 -1612 c 4
 249.486328125 -1576.59863281 303.153320312 -1409.95605469 498 -1165 c 4
 917.575195312 -637.522460938 1682.28320312 91.8232421875 3353 801 c 5
EndSplineSet
Comment: "It is final part of glyphs like 'j' before glyphs like 'i'."
Colour: ff4559
EndChar

StartChar: i_c
Encoding: 169 -1 180
Width: 1313
VWidth: 0
Flags: HW
HStem: 389.6 429.601G<223.887 322 1447.1 1837>
AnchorPoint: "Cursive 1" 110 143 entry 0
AnchorPoint: "Cursive 1" 1877 811 exit 0
LayerCount: 6
Back
Refer: 164 -1 S 1 0 0 1 301 0 2
Refer: 140 -1 S 1 0 0 1 0 0 2
Refer: 139 -1 S 1 0 0 1 0 0 2
Fore
SplineSet
117 136 m 1
 42.2320395201 39.8196189132 49.9019156514 7.25380944798 170 22 c 0
 448.905468611 56.2452854968 1235.28808594 406.1640625 1871 819 c 5
 1882 803 l 5
 1241.28125 386.912109375 456.533203125 37.9365234375 172 3 c 0
 46.7900390625 -12.3740234375 8.99923160894 28.3652087364 102 148 c 1
 117 136 l 1
EndSplineSet
Comment: "It is final part of glyphs like 'i' before 'c'."
Colour: ff3045
EndChar

StartChar: Guid.ruller_with_four_part
Encoding: 192 -1 182
Width: 4096
VWidth: 0
LayerCount: 6
Back
SplineSet
2196 816 m 29
 2196 824 l 1053
2002 815 m 29
 2002 822 l 1053
1808 816 m 29
 1808 823 l 1053
1614 816 m 29
 1614 823 l 1053
1420 823 m 29
 1420 816 l 1053
EndSplineSet
EndChar

StartChar: g_c
Encoding: 172 -1 183
Width: 3722
VWidth: 0
Flags: HW
AnchorPoint: "Cursive 1" 3490 811 exit 0
AnchorPoint: "Cursive 1" 295 -1620 entry 0
LayerCount: 6
Back
Refer: 164 -1 N 1 0 0 1 1808 0 2
Refer: 182 -1 N 1 0 0 1 1727 0 2
Refer: 142 -1 S 1 0 0 1 949 0 2
Fore
SplineSet
289 -1627 m 1
 179.97265625 -1556.19726562 495.321289062 -1061.38671875 959 -629 c 0
 2029.70214844 369.4453125 2599.48535156 266.293945312 3484 819 c 1
 3495 803 l 1
 2604.54980469 246.584960938 2039.77636719 352.717773438 972 -643 c 0
 483.456054688 -1098.57519531 217.1328125 -1557.53613281 301 -1612 c 1
 289 -1627 l 1
EndSplineSet
Layer: 5
SplineSet
289 -1627 m 4
 350.684570312 -1667.05859375 512.19921875 -1597.10839844 730 -1401 c 4
 891.514648438 -1255.57128906 1081.04589844 -1039.16699219 1286 -746 c 6
 2371 807 l 5
 2356 819 l 5
 1270 -735 l 6
 1057.04199219 -1039.45019531 869.872070312 -1248.94042969 717 -1386.58691406 c 4
 488.735351562 -1592.1171875 342.93359375 -1639.23242188 301 -1612 c 4
 217.1328125 -1557.53613281 483.456054688 -1098.57519531 972 -643 c 4
 2039.77636719 352.717773438 2604.54980469 246.584960938 3495 803 c 5
 3484 819 l 5
 2599.48535156 266.293945312 2029.70214844 369.4453125 959 -629 c 4
 495.321289062 -1061.38671875 179.97265625 -1556.19726562 289 -1627 c 4
EndSplineSet
Refer: 57 -1 N 1 0 0 1 949 0 2
Refer: 76 -1 N 1 0 0 1 949 0 2
Comment: "It is final part of glyphs like 'j' before 'c'."
Colour: ff3b42
EndChar

StartChar: Guid.A_H
Encoding: 193 -1 184
Width: 4096
VWidth: 0
LayerCount: 6
Back
SplineSet
2314 855 m 29
 2314 851 l 1053
2312 853 m 29
 2316 853 l 1053
2318 861 m 25
 2309 844 l 1049
EndSplineSet
EndChar

StartChar: A_
Encoding: 204 -1 185
Width: 3492
VWidth: 0
Flags: W
VStem: 1131 19<654.774 743.021>
AnchorPoint: "Cursive 1" 1429 853 entry 0
LayerCount: 6
Back
Refer: 182 -1 S 1 0 0 1 776 0 2
Refer: 182 -1 S 1 0 0 1 0 0 2
Refer: 184 -1 S 1 0 0 1 -885 0 2
Refer: 184 -1 N 1 0 0 1 0 0 2
Fore
SplineSet
1131 693 m 3
 1131 837 1295 923 1433 861 c 1
 1424 844 l 1
 1295 902 1150 818 1150 693 c 3
 1150 501 1577 463 1800 819 c 9
 1817 810 l 17
 1583 436 1131 478 1131 693 c 3
EndSplineSet
Substitution2: "* +- [p, r, s]" A_p
Substitution2: "* +- [t]" A_b
Substitution2: "* +- [o]" A_o
Substitution2: "* +- [m, n, v, x, y, z] - 1" A_m
Substitution2: "* +- [i, j, u, w]" A_i
Substitution2: "* +- [e]" A_e
Substitution2: "* +- [c]" A_c
Substitution2: "* +- [b, f, h, k, l]" A_b
Substitution2: "* +- [a, d, g, q]" A_a
Comment: "It is default final part of 'A' and 'H'."
Colour: 70ff29
EndChar

StartChar: A_a
Encoding: 205 -1 186
Width: 2655
VWidth: 0
Flags: HW
AnchorPoint: "Cursive 1" 2490 819 exit 0
AnchorPoint: "Cursive 1" 1429 853 entry 0
LayerCount: 6
Back
Refer: 160 -1 S 1 0 0 1 1578 0 2
Refer: 182 -1 N 1 0 0 1 776 0 2
Refer: 182 -1 N 1 0 0 1 0 0 2
Refer: 184 -1 N 1 0 0 1 -885 0 2
Fore
SplineSet
1433 861 m 1
 1424 844 l 1
 1294.78813047 901.528830797 1150 818 1150 693 c 3
 1150 404.954216293 1659.31488333 314.966686011 2186 657 c 1
 2197 641 l 1
 1656.18359375 289.7890625 1131 385.993485411 1131 693 c 3
 1131 837 1294.78970771 922.535186731 1433 861 c 1
EndSplineSet
Comment: "It is final part of 'A' and 'H' before glyphs like glyphs like 'a'."
Colour: ff334c
EndChar

StartChar: A_b
Encoding: 206 -1 187
Width: 2655
VWidth: 0
Flags: HW
AnchorPoint: "Cursive 1" 2278 812 exit 0
AnchorPoint: "Cursive 1" 1429 853 entry 0
LayerCount: 6
Back
Refer: 143 -1 S 1 0 0 1 2113 0 2
Refer: 182 -1 N 1 0 0 1 776 0 2
Refer: 182 -1 N 1 0 0 1 0 0 2
Refer: 184 -1 N 1 0 0 1 -885 0 2
Fore
SplineSet
2284 804 m 1
 2272 819 l 1
 1729 393 1150 410.954216293 1150 693 c 3
 1150 818 1294.78813047 901.528830797 1424 844 c 1
 1433 861 l 1
 1294.78970771 922.535186731 1131 837 1131 693 c 3
 1131 385.993485411 1734 371 2284 804 c 1
EndSplineSet
Comment: "It is final part of 'A' and 'H' before glyphs like glyphs like 'l'."
Colour: ff1424
EndChar

StartChar: A_c
Encoding: 207 -1 188
Width: 2655
VWidth: 0
Flags: HW
AnchorPoint: "Cursive 1" 2688 811 exit 0
AnchorPoint: "Cursive 1" 1429 853 entry 0
LayerCount: 6
Back
Refer: 164 -1 S 1 0 0 1 1006 0 2
Refer: 182 -1 N 1 0 0 1 776 0 2
Refer: 182 -1 N 1 0 0 1 0 0 2
Refer: 184 -1 N 1 0 0 1 -885 0 2
Fore
SplineSet
1440 653.922851562 m 3
 1579 653.922851562 2319.14453125 653 2369 653 c 3
 2444.02832031 653 2626.00292969 784.009765625 2682 819 c 1
 2693 803 l 1
 2636.82519531 767.8984375 2452.05371094 634 2369 634 c 3
 2318.41796875 634 1580.00390625 635.107421875 1439 635.107421875 c 3
 1056.9999849 635.107421875 1204.61363559 962.684160769 1433 861 c 1
 1424 844 l 1
 1224.84709023 932.668588191 1090.99877987 653.922851562 1440 653.922851562 c 3
EndSplineSet
Comment: "It is final part of 'A' and 'H' before 'c'."
Colour: ff1a24
EndChar

StartChar: A_e
Encoding: 208 -1 189
Width: 2655
VWidth: 0
Flags: HW
AnchorPoint: "Cursive 1" 2107 418 exit 0
AnchorPoint: "Cursive 1" 1429 853 entry 0
LayerCount: 6
Back
Refer: 141 -1 S 1 0 0 1 1684 0 2
Refer: 182 -1 N 1 0 0 1 776 0 2
Refer: 182 -1 N 1 0 0 1 0 0 2
Refer: 184 -1 N 1 0 0 1 -885 0 2
Fore
SplineSet
2102 427 m 1
 2112 410 l 1
 1620.32273726 126.13 1131 385.993485411 1131 693 c 3
 1131 837 1294.78970771 922.535186731 1433 861 c 1
 1424 844 l 1
 1294.78813047 901.528830797 1150 818 1150 693 c 3
 1150 400.954216293 1623.08795171 150.5 2102 427 c 1
EndSplineSet
Comment: "It is final part of 'A' and 'H' before 'e'."
Colour: ff1a21
EndChar

StartChar: A_i
Encoding: 209 -1 190
Width: 2655
VWidth: 0
Flags: HW
AnchorPoint: "Cursive 1" 2191 814 exit 0
AnchorPoint: "Cursive 1" 1429 853 entry 0
LayerCount: 6
Back
Refer: 140 -1 S 1 0 0 1 2081 671 2
Refer: 182 -1 N 1 0 0 1 776 0 2
Refer: 182 -1 N 1 0 0 1 0 0 2
Refer: 184 -1 N 1 0 0 1 -885 0 2
Fore
SplineSet
1131 693 m 3
 1131 837 1295 923 1433 861 c 1
 1424 844 l 1
 1295 902 1150 818 1150 693 c 3
 1150 385.349223957 1857.77682566 402.733319407 2183 819 c 9
 2198 807 l 17
 1863.08015742 378.322150038 1131 361.084894834 1131 693 c 3
EndSplineSet
Comment: "It is final part of 'A' and 'H' before 'i'."
Colour: ff2e1f
EndChar

StartChar: A_m
Encoding: 210 -1 191
Width: 2655
VWidth: 0
Flags: HW
AnchorPoint: "Cursive 1" 2145 781 exit 0
AnchorPoint: "Cursive 1" 1429 853 entry 0
LayerCount: 6
Back
Refer: 146 -1 S 1 0 0 1 1767 0 2
Refer: 182 -1 N 1 0 0 1 776 0 2
Refer: 182 -1 N 1 0 0 1 0 0 2
Refer: 184 -1 N 1 0 0 1 -885 0 2
Fore
SplineSet
2142 789 m 1
 2149 772 l 1
 1491.21516545 532.585899672 1131 456.250190573 1131 693 c 3
 1131 804.543713404 1294.78970771 922.535186731 1433 861 c 1
 1424 844 l 1
 1294.78813047 901.528830797 1150 785 1150 693 c 3
 1150 486.52734375 1484.21516545 549.585899672 2142 789 c 1
EndSplineSet
Comment: "It is final part of 'A' and 'H' before glyphs like 'm'."
Colour: ff5970
EndChar

StartChar: A_p
Encoding: 211 -1 192
Width: 2655
VWidth: 0
Flags: HW
AnchorPoint: "Cursive 1" 2201 812 exit 0
AnchorPoint: "Cursive 1" 1429 853 entry 0
LayerCount: 6
Back
Refer: 143 -1 N 1 0 0 1 2036 0 2
Refer: 182 -1 N 1 0 0 1 776 0 2
Refer: 182 -1 N 1 0 0 1 0 0 2
Refer: 184 -1 N 1 0 0 1 -885 0 2
Fore
SplineSet
2195 819 m 1
 2207 804 l 1
 1835.42758726 469.434696821 1131 382.993421124 1131 693 c 3
 1131 837 1294.78970771 922.535186731 1433 861 c 1
 1424 844 l 1
 1294.78813047 901.528830797 1150 818 1150 693 c 3
 1150 411 1830.11589069 490.456872278 2195 819 c 1
EndSplineSet
Comment: "It is final part of 'A' and 'H' before glyphs like 's'."
Colour: ff5763
EndChar

StartChar: A_o
Encoding: 212 -1 193
Width: 2655
VWidth: 0
Flags: HW
AnchorPoint: "Cursive 1" 2455 819 exit 0
AnchorPoint: "Cursive 1" 1429 853 entry 0
LayerCount: 6
Back
Refer: 182 -1 S 1 0 0 1 776 0 2
Refer: 182 -1 S 1 0 0 1 0 0 2
Refer: 184 -1 S 1 0 0 1 -885 0 2
Fore
SplineSet
2386.19433594 803.296875 m 1
 2394.38085938 785.755859375 l 1
 1894.7421875 552.770507812 1131 378.974523327 1131 693 c 3
 1131 829.528385327 1294.78970771 922.535186731 1433 861 c 1
 1424 844 l 1
 1294.78813047 901.528830797 1150 799.569226327 1150 693 c 3
 1150 410.700513638 1885.00612971 569.588976257 2386.19433594 803.296875 c 1
EndSplineSet
Comment: "It is final part of 'A' and 'H' before 'o'."
Colour: ff363b
EndChar

StartChar: Guid.D
Encoding: 194 -1 194
Width: 4096
VWidth: 0
LayerCount: 6
Back
SplineSet
163 851 m 29
 163 845 l 1053
132 848 m 29
 194 848 l 1053
EndSplineSet
Colour: 616161
EndChar

StartChar: D__m
Encoding: 171 -1 195
Width: 793
VWidth: 0
Flags: HW
AnchorPoint: "Cursive 1" 890 143 exit 0
AnchorPoint: "Cursive 1" 819 418 entry 0
LayerCount: 6
Back
Refer: 164 -1 S 1 0 0 1 -863 -393 2
Refer: 163 -1 N 1 0 0 1 0 0 2
Refer: 140 -1 N 1 0 0 1 780 0 2
Refer: 139 -1 N 1 0 0 1 0 0 2
Fore
SplineSet
895 136 m 25
 882 146 l 25
 882 148 l 1
 1275 650 l 1
 1412.40217921 820.917894718 1386.00195312 835.75 1252 738.392578125 c 0
 1131.25390625 650.666015625 990.632753958 540.187775572 824 410 c 5
NamedP: "38 degree"
 822 411 l 25
 813 424 l 25
 813 426 l 1
 979.120546968 555.787595613 1124.44492162 672.20742714 1241 756.889648438 c 0
 1379.58198221 857.575352128 1458.07534147 848.856418558 1293 643 c 1
 897 136 l 1
 895 136 l 25
EndSplineSet
Comment: "It is initial part 'm' after 'D'."
Colour: 5e8fff
EndChar

StartChar: L_
Encoding: 222 -1 196
Width: 5593
VWidth: 0
Flags: HW
AnchorPoint: "Cursive 1" 646 114 entry 0
LayerCount: 6
Back
Refer: 229 -1 S 1 0 0 1 0 0 2
Fore
SplineSet
646 124 m 3
 933.006968557 124 1805.71975362 -375.757769671 2965 819 c 9
 2978 805 l 17
 1806.29641687 -398.288636241 933.141080307 105 646 105 c 3
 646 124 l 3
EndSplineSet
Substitution2: "* +- [p, r, s]" L_p
Substitution2: "* +- [i, j, u, w]" L_i
Substitution2: "* +- [o]" L_o
Substitution2: "* +- [a, d, g, q]" L_a
Substitution2: "* +- [e]" L_e
Substitution2: "* +- [c]" L_c
Substitution2: "* +- [m, n, v, x, y, z] - 1" L_m
Substitution2: "* +- [t]" L_b
Substitution2: "* +- [b, f, h, k, l]" L_b
Comment: "It is default final part of 'L' and 'Q."
Colour: ff384a
EndChar

StartChar: L_a
Encoding: 223 -1 197
Width: 4430
VWidth: 0
Flags: HW
AnchorPoint: "Cursive 1" 2941 819 exit 0
AnchorPoint: "Cursive 1" 646 114 entry 0
LayerCount: 6
Back
Refer: 182 -1 N 1 0 0 1 -1 0 2
Refer: 229 -1 N 1 0 0 1 0 0 2
Refer: 160 -1 S 1 0 0 1 2029 0 2
Refer: 182 -1 N 1 0 0 1 1551 0 2
Refer: 182 -1 N 1 0 0 1 775 0 2
Fore
SplineSet
646 124 m 3
 935.006968557 124 1691.9934707 -267.797581505 2406 469 c 9
 2419 455 l 17
 1694.64545813 -289.870121349 933.141080307 105 646 105 c 3
 646 124 l 3
EndSplineSet
Comment: "It is final part of 'L' and 'Q' before 'a'."
Colour: ff384a
EndChar

StartChar: L_b
Encoding: 224 -1 198
Width: 4430
VWidth: 0
Flags: HW
AnchorPoint: "Cursive 1" 646 114 entry 0
AnchorPoint: "Cursive 1" 2876 812 exit 0
LayerCount: 6
Back
Refer: 182 -1 N 1 0 0 1 -1 0 2
Refer: 229 -1 N 1 0 0 1 0 0 2
Refer: 143 -1 S 1 0 0 1 2711 0 2
Refer: 182 -1 N 1 0 0 1 1551 0 2
Refer: 182 -1 N 1 0 0 1 775 0 2
Fore
SplineSet
646 124 m 3
 941.006968557 124 1493.40972567 -377.651668879 2870 819 c 9
 2882 804 l 17
 1497.86262987 -399.212259169 933.141080307 105 646 105 c 3
 646 124 l 3
EndSplineSet
Comment: "It is final part of 'L' and 'Q' before 'l'."
Colour: ff3030
EndChar

StartChar: L_c
Encoding: 225 -1 199
Width: 4430
VWidth: 0
Flags: HW
AnchorPoint: "Cursive 1" 646 114 entry 0
AnchorPoint: "Cursive 1" 3142 811 exit 0
LayerCount: 6
Back
Refer: 182 -1 N 1 0 0 1 -1 0 2
Refer: 229 -1 N 1 0 0 1 0 0 2
Refer: 164 -1 N 1 0 0 1 2839 0 2
Refer: 164 -1 S 1 0 0 1 1460 0 2
Refer: 182 -1 N 1 0 0 1 1551 0 2
Refer: 182 -1 N 1 0 0 1 775 0 2
Fore
SplineSet
646 124 m 3
 938 124 1257.76725017 -377.566227788 3136 819 c 9
 3147 803 l 17
 1260.33333572 -398.939223872 933.141080307 105 646 105 c 3
 646 124 l 3
EndSplineSet
Comment: "It is final part of 'L' and 'Q' before 'c'."
Colour: ff3030
EndChar

StartChar: L_e
Encoding: 226 -1 200
Width: 4430
VWidth: 0
Flags: HW
AnchorPoint: "Cursive 1" 646 114 entry 0
AnchorPoint: "Cursive 1" 2662 418 exit 0
LayerCount: 6
Back
Refer: 182 -1 N 1 0 0 1 -1 0 2
Refer: 229 -1 N 1 0 0 1 0 0 2
Refer: 141 -1 S 1 0 0 1 2239 0 2
Refer: 182 -1 N 1 0 0 1 1551 0 2
Refer: 182 -1 N 1 0 0 1 775 0 2
Refer: 182 -1 N 1 0 0 1 1551 0 2
Refer: 182 -1 N 1 0 0 1 775 0 2
Fore
SplineSet
646 124 m 3
 939.006968557 124 1566.41014834 -254.476173804 2657 427 c 9
 2667 410 l 17
 1571.32185977 -274.655689389 933.141080307 105 646 105 c 3
 646 124 l 3
EndSplineSet
Comment: "It is final part of 'L' and 'Q' before 'e'."
Colour: ff3030
EndChar

StartChar: L_i
Encoding: 227 -1 201
Width: 4430
VWidth: 0
Flags: HW
AnchorPoint: "Cursive 1" 646 114 entry 0
AnchorPoint: "Cursive 1" 2874 814 exit 0
LayerCount: 6
Back
Refer: 182 -1 N 1 0 0 1 -1 0 2
Refer: 229 -1 N 1 0 0 1 0 0 2
Refer: 140 -1 S 1 0 0 1 2764 671 2
Refer: 182 -1 N 1 0 0 1 1551 0 2
Refer: 182 -1 N 1 0 0 1 775 2 2
Fore
SplineSet
646 124 m 3
 938.006835938 124 1710.08886719 -377.981445312 2866 819 c 9
 2879 805 l 17
 1715.44722948 -399.894165567 933.141080307 105 646 105 c 3
 646 124 l 3
EndSplineSet
Comment: "It is final part of 'L' and 'Q' before glyphs like 'i'."
Colour: ff3030
EndChar

StartChar: L_m
Encoding: 228 -1 202
Width: 4430
VWidth: 0
Flags: HW
AnchorPoint: "Cursive 1" 646 114 entry 0
AnchorPoint: "Cursive 1" 2277 418 exit 0
LayerCount: 6
Back
Refer: 182 -1 N 1 0 0 1 -1 0 2
Refer: 229 -1 N 1 0 0 1 0 0 2
Refer: 139 -1 N 1 0 0 1 0 0 2
Refer: 164 -1 S 1 0 0 1 595 -393 2
Refer: 182 -1 N 1 0 0 1 1551 0 2
Refer: 182 -1 N 1 0 0 1 775 0 2
Fore
SplineSet
646 124 m 3
 936.006968557 124 1401.03612802 -253.69026876 2271 426 c 9
 2282 410 l 17
 1405.69231934 -274.646595294 933.141080307 105 646 105 c 3
 646 124 l 3
EndSplineSet
Comment: "It is final part of 'L' and 'Q' before glyphs like 'm'."
Colour: ff3030
EndChar

StartChar: L_p
Encoding: 229 -1 203
Width: 4430
VWidth: 0
Flags: HW
AnchorPoint: "Cursive 1" 646 114 entry 0
AnchorPoint: "Cursive 1" 2684 812 exit 0
LayerCount: 6
Back
Refer: 182 -1 N 1 0 0 1 -1 0 2
Refer: 229 -1 N 1 0 0 1 0 0 2
Refer: 143 -1 S 1 0 0 1 2519 0 2
Refer: 182 -1 N 1 0 0 1 1551 0 2
Refer: 182 -1 N 1 0 0 1 775 0 2
Fore
SplineSet
646 124 m 3
 937.006968557 124 1300.65501609 -378.307727908 2678 819 c 9
 2690 804 l 17
 1305.10792029 -399.868318198 934.141080307 105 646 105 c 3
 646 124 l 3
EndSplineSet
Comment: "It is final part of 'L' and 'Q' before glyphs like 'r'."
Colour: ff3030
EndChar

StartChar: L_o
Encoding: 230 -1 204
Width: 4430
VWidth: 0
Flags: HW
AnchorPoint: "Cursive 1" 646 114 entry 0
AnchorPoint: "Cursive 1" 2882 819 exit 0
LayerCount: 6
Back
Refer: 182 -1 S 1 0 0 1 -1 0 2
Refer: 229 -1 N 1 0 0 1 0 0 2
Refer: 182 -1 N 1 0 0 1 1551 0 2
Refer: 182 -1 N 1 0 0 1 775 0 2
Fore
SplineSet
646 124 m 3
 934.001736106 124 1663.42998621 -325.624880874 2605 646 c 9
 2618 632 l 17
 1663.01678719 -348.016358381 933.141080307 105 646 105 c 3
 646 124 l 3
EndSplineSet
Comment: "It is final part of 'L' and 'Q' before 'o'."
Colour: ff3030
EndChar

StartChar: K_
Encoding: 231 -1 205
Width: 5062
VWidth: 0
Flags: HW
HStem: 0 19<444.368 611.43> 1196 19<2056.45 2278.46> 1358 19<1933.6 2018.24> 2090 20G<2609.5 3062> 2439 19<2146.69 2428.31>
VStem: 1931 19<239.587 273 273 302.214>
AnchorPoint: "Cursive 1" 1941 276 entry 0
LayerCount: 6
Back
Refer: 182 -1 N 1 0 0 1 1551 0 2
Refer: 182 -1 N 1 0 0 1 775 0 2
Refer: 218 -1 S 1 0 0 1 0 0 2
Fore
SplineSet
1931 277 m 1
 1836.12402344 -133.952148438 2171.65625 -170.618164062 3183 740 c 257
 3171 755 l 257
 2584.00390625 226.465820312 2226 19 2053 19 c 3
 1941 19 1913.51171875 114.950195312 1950 273 c 1
 1931 277 l 1
EndSplineSet
Substitution2: "* +- [t]" K_b
Substitution2: "* +- [o]" K_o
Substitution2: "* +- [p, r, s]" K_p
Substitution2: "* +- [i, j, u, w]" K_i
Substitution2: "* +- [m, n, v, x, y, z] - 1" K_m
Substitution2: "* +- [e]" K_e
Substitution2: "* +- [c]" K_c
Substitution2: "* +- [b, f, h, k, l]" K_b
Substitution2: "* +- [a, d, g, q]" K_a
Comment: "It is default final part of 'K', 'R' and 'X'."
Colour: ff3d30
EndChar

StartChar: K_a
Encoding: 232 -1 206
Width: 4430
VWidth: 0
Flags: HW
AnchorPoint: "Cursive 1" 3390 819 exit 0
AnchorPoint: "Cursive 1" 1941 276 entry 0
LayerCount: 6
Back
Refer: 218 -1 N 1 0 0 1 0 0 2
Refer: 160 -1 S 1 0 0 1 2478 0 2
Refer: 182 -1 N 1 0 0 1 1551 0 2
Refer: 182 -1 N 1 0 0 1 775 0 2
Fore
SplineSet
1931 277 m 1
 1836.12402344 -133.952148438 2226.99066287 -119.100242388 2949 531 c 257
 2937 546 l 257
 2350.00390625 17.4658203125 2110.23105626 19 2071 19 c 3
 1948 19 1913.51171875 114.950195312 1950 273 c 1
 1931 277 l 1
EndSplineSet
Comment: "It is final part of 'K', 'R' and 'X' before glyphs like 'a'."
Colour: ff3d30
EndChar

StartChar: K_b
Encoding: 233 -1 207
Width: 4430
VWidth: 0
Flags: HW
AnchorPoint: "Cursive 1" 1941 276 entry 0
AnchorPoint: "Cursive 1" 3326 812 exit 0
LayerCount: 6
Back
Refer: 218 -1 N 1 0 0 1 0 0 2
Refer: 143 -1 S 1 0 0 1 3161 0 2
Refer: 182 -1 N 1 0 0 1 1551 0 2
Refer: 182 -1 N 1 0 0 1 775 0 2
Fore
SplineSet
1931 277 m 1
 1836.12402344 -133.952148438 2194.6526626 -184.680956689 3332 804 c 257
 3320 819 l 257
 2702.20902144 281.962495596 2274.00240383 19 2066 19 c 3
 1944 19 1913.51171875 114.950195312 1950 273 c 1
 1931 277 l 1
EndSplineSet
Comment: "It is final part of 'K', 'R' and 'X' before  glyphs like 'l'."
Colour: ff3d30
EndChar

StartChar: K_c
Encoding: 234 -1 208
Width: 4430
VWidth: 0
Flags: HW
AnchorPoint: "Cursive 1" 1941 276 entry 0
AnchorPoint: "Cursive 1" 3563 811 exit 0
LayerCount: 6
Back
Refer: 218 -1 N 1 0 0 1 0 0 2
Refer: 164 -1 S 1 0 0 1 1881 0 2
Refer: 182 -1 N 1 0 0 1 1551 0 2
Refer: 182 -1 N 1 0 0 1 775 0 2
Fore
SplineSet
1931 277 m 1
 1836.12402344 -133.952148438 2017.60637154 -184.709673236 3568 803 c 257
 3557 819 l 257
 2619.70678579 221.878367573 2203 19 2030 19 c 3
 1914 19 1914.76123997 120.362524359 1950 273 c 1
 1931 277 l 1
EndSplineSet
Comment: "It is final part of 'K', 'R' and 'X' before 'c'."
Colour: ff594c
EndChar

StartChar: K_e
Encoding: 235 -1 209
Width: 4430
VWidth: 0
Flags: HW
AnchorPoint: "Cursive 1" 1941 276 entry 0
AnchorPoint: "Cursive 1" 3082 418 exit 0
LayerCount: 6
Back
Refer: 218 -1 N 1 0 0 1 0 0 2
Refer: 141 -1 S 1 0 0 1 2659 0 2
Refer: 182 -1 N 1 0 0 1 1551 0 2
Refer: 182 -1 N 1 0 0 1 775 0 2
Fore
SplineSet
1931 277 m 1
 1836.12402344 -133.952148438 2294.50410239 -85.2063979308 3087 410 c 257
 3077 427 l 257
 2425.36677788 19.814370811 2174.00877125 20 2119 20 c 3
 1953.98780533 20 1914.52528083 119.340462096 1950 273 c 1
 1931 277 l 1
EndSplineSet
Comment: "It is final part of 'K', 'R' and 'X' before 'e'."
Colour: ff6645
EndChar

StartChar: K_i
Encoding: 236 -1 210
Width: 4430
VWidth: 0
Flags: HW
AnchorPoint: "Cursive 1" 1941 276 entry 0
AnchorPoint: "Cursive 1" 3295 814 exit 0
LayerCount: 6
Back
Refer: 218 -1 S 1 0 0 1 0 0 2
Refer: 140 -1 N 1 0 0 1 3425 671 2
Refer: 182 -1 N 1 0 0 1 1791 0 2
Refer: 182 -1 N 1 0 0 1 1015 0 2
Fore
SplineSet
1931 277 m 1
 1835.62075296 -136.132907469 2203.86138242 -181.967644379 3300 805 c 257
 3287 819 l 257
 2602.27431922 202.469617851 2232 19 2066 19 c 3
 1946 19 1913.51171875 114.950195312 1950 273 c 1
 1931 277 l 1
EndSplineSet
Comment: "It is final part of 'K', 'R' and 'X' before glyphs like 'i'."
Colour: ff4c45
EndChar

StartChar: K_m
Encoding: 237 -1 211
Width: 4430
VWidth: 0
Flags: HW
AnchorPoint: "Cursive 1" 1941 276 entry 0
AnchorPoint: "Cursive 1" 2699 418 exit 0
LayerCount: 6
Back
Refer: 218 -1 N 1 0 0 1 0 0 2
Refer: 164 -1 S 1 0 0 1 1017 -393 2
Refer: 139 -1 N 1 0 0 1 0 0 2
Refer: 182 -1 N 1 0 0 1 2330 0 2
Refer: 182 -1 N 1 0 0 1 1554 0 2
Refer: 182 -1 N 1 0 0 1 1551 0 2
Refer: 182 -1 N 1 0 0 1 775 0 2
Fore
SplineSet
1931 277 m 1
 1836.74550823 -131.261057145 2064.92327882 -89.3014564891 2704 410 c 257
 2693 426 l 257
 2275.90121393 100.126440293 2096.14355972 19 2009 19 c 3
 1921.94829123 19 1913.51171875 114.950195312 1950 273 c 1
 1931 277 l 1
EndSplineSet
Comment: "It is final part of 'K', 'R' and 'X' before glyphs like 'm'."
Colour: ff3d30
EndChar

StartChar: K_p
Encoding: 238 -1 212
Width: 4430
VWidth: 0
Flags: HW
AnchorPoint: "Cursive 1" 1941 276 entry 0
AnchorPoint: "Cursive 1" 3104 812 exit 0
LayerCount: 6
Back
Refer: 218 -1 N 1 0 0 1 0 0 2
Refer: 143 -1 S 1 0 0 1 2939 0 2
Refer: 182 -1 N 1 0 0 1 1551 0 2
Refer: 182 -1 N 1 0 0 1 775 0 2
Fore
SplineSet
1931 277 m 1
 1836.12402344 -133.952148438 1972.6526626 -184.680956689 3110 804 c 257
 3098 819 l 257
 2501.86999677 300.792094181 2124.01470509 19 1985 19 c 3
 1911.9338557 19 1913.51171875 114.950195312 1950 273 c 1
 1931 277 l 1
EndSplineSet
Comment: "It is final part of 'K', 'R' and 'X' before glyphs like 'r'."
Colour: ff3d30
EndChar

StartChar: K_o
Encoding: 239 -1 213
Width: 4430
VWidth: 0
Flags: HW
AnchorPoint: "Cursive 1" 1941 276 entry 0
AnchorPoint: "Cursive 1" 3339 819 exit 0
LayerCount: 6
Back
Refer: 218 -1 S 1 0 0 1 0 0 2
Refer: 182 -1 N 1 0 0 1 1551 0 2
Refer: 182 -1 N 1 0 0 1 775 0 2
Fore
SplineSet
1931 277 m 1
 1836.12402344 -133.952148438 2200.68016623 -151.755400993 3110 667 c 257
 3098 682 l 257
 2511.00390625 153.465820312 2201 19 2063 19 c 3
 1946 19 1913.51171875 114.950195312 1950 273 c 1
 1931 277 l 1
EndSplineSet
Comment: "It is final part of 'K', 'R' and 'X' before 'o'."
Colour: ff3d30
EndChar

StartChar: XW
Encoding: 240 -1 214
Width: 5593
VWidth: 0
Flags: HW
HStem: 0 19<907 930.69>
VStem: 778 15<13 22.7938>
AnchorPoint: "Cursive 1" 910 9 exit 0
LayerCount: 6
Back
Refer: 215 -1 S 1 0 0 1 0 0 2
Fore
SplineSet
778 0 m 1
 675.405976166 482.666933582 786.801287294 1176.9296642 1215 1724.99902344 c 0
 2308.40637385 3124.49536222 3425 2296 2381.87304688 1023 c 0
 2043.92111964 610.573878637 1422 138 912 0 c 1
 907 19 l 1
 1411 162 2004.93066323 653.216854609 2342 1056 c 0
 3373 2288 2298.48207046 3080.87365029 1229 1711.99902344 c 0
 810.891978875 1176.84516045 696.431036035 477.139775951 797 4 c 5
 778 0 l 1
EndSplineSet
EndChar

StartChar: Guid.General5
Encoding: 195 -1 215
Width: 6455
VWidth: 0
Flags: HW
LayerCount: 6
Back
SplineSet
910 10 m 29
 910 8 l 1053
909 9 m 5
 911 9 l 1037
912 0 m 29
 907 19 l 1053
EndSplineSet
Comment: "It is for glyphs like 'W'."
Colour: c4c4c4
EndChar

StartChar: c_p
Encoding: 173 -1 216
Width: 1313
VWidth: 0
Flags: HW
AnchorPoint: "Cursive 1" 110 143 entry 0
AnchorPoint: "Cursive 1" 1614 812 exit 0
LayerCount: 6
Back
Refer: 182 -1 N 1 0 0 1 -776 1 2
Refer: 143 -1 S 1 0 0 1 1449 0 2
Refer: 182 -1 N 1 0 0 1 0 0 2
Refer: 140 -1 N 1 0 0 1 0 0 2
Fore
SplineSet
117 136 m 1
 41.4429203878 38.9426575653 53.7926851446 3.5095150353 170 24 c 0
 451.655017361 73.6633788127 1044.69622229 311.79900038 1608 819 c 1
 1620 804 l 5
 1052.25964768 292.80429066 458.401790731 55.5003630291 172 5 c 0
 47.7665019575 -16.9057176127 8.99923160894 28.3652087364 102 148 c 1
 117 136 l 1
EndSplineSet
Comment: "It is final part of 'e' and 'c' before glyphs like 's'."
Colour: ff5252
EndChar

StartChar: AMN
Encoding: 241 -1 217
Width: 3918
VWidth: 0
Flags: HW
AnchorPoint: "Cursive 1" 3887 2450 exit 0
LayerCount: 6
Back
Refer: 164 -1 N 1 0 0 1 2205 1639 2
Fore
SplineSet
3881 2458 m 1
 3366.17240343 2110.74440141 2866.90375405 1573.88932849 2665 1352 c 0
 2348.18608939 1003.82605835 2065.74316406 619.125976562 1705 317 c 0
 968.573242188 -299.765625 365 175.990322681 365 641 c 3
 365 1313 1360.7947503 1508.47346221 1861 820 c 1
 1877 831 l 1
 1363.77530696 1537.39318864 345.888671875 1329.06054688 345.888671875 642 c 3
 345.888671875 174.999986469 922.498046875 -318.598632812 1752 268 c 0
 2135.34667969 539.090820312 2382.18272933 973.840918583 2687 1332 c 0
 2881.43597032 1560.46149226 3405.32232707 2113.73141813 3892 2442 c 1
 3881 2458 l 1
EndSplineSet
EndChar

StartChar: Guid.K_R_X
Encoding: 196 -1 218
Width: 4096
VWidth: 0
LayerCount: 6
Back
SplineSet
1943 276 m 29
 1939 276 l 1053
1941 278 m 29
 1941 274 l 1053
1931 277 m 25
 1950 273 l 1049
2000 273 m 25
 1842 273 l 1049
EndSplineSet
EndChar

StartChar: M_
Encoding: 242 -1 219
Width: 5062
VWidth: 0
Flags: HW
HStem: 2438 20G<3196 3431 3803 4349>
AnchorPoint: "Cursive 1" 2884 279 entry 0
LayerCount: 6
Back
Refer: 228 -1 S 1 0 0 1 0 0 2
Fore
SplineSet
2892 273 m 1
 2836.92254013 143.245635857 2806.98392817 42.9773310322 2833 22.578125 c 0
 2883.36384141 -16.912171009 3183.26592271 169.797828682 3954 819 c 1
 3966 804 l 1
 2782.52246094 -189.055664062 2698.79616199 -132.754376288 2874 280 c 1
 2892 273 l 1
EndSplineSet
Substitution2: "* +- [t]" M_b
Substitution2: "* +- [o]" M_o
Substitution2: "* +- [p, r, s]" M_p
Substitution2: "* +- [m, n, v, x, y, z] - 1" M_m
Substitution2: "* +- [i, j, u, w]" M_i
Substitution2: "* +- [e]" M_e
Substitution2: "* +- [c]" M_c
Substitution2: "* +- [b, f, h, k, l]" M_b
Substitution2: "* +- [a, d, g, q]" M_a
Comment: "It is default final part of 'M'."
Colour: ff4057
EndChar

StartChar: M_a
Encoding: 243 -1 220
Width: 4430
VWidth: 0
Flags: HW
AnchorPoint: "Cursive 1" 4455 819 exit 0
AnchorPoint: "Cursive 1" 2884 279 entry 0
LayerCount: 6
Back
Refer: 160 -1 S 1 0 0 1 3543 0 2
Refer: 182 -1 N 1 0 0 1 2330 0 2
Refer: 182 -1 N 1 0 0 1 1554 0 2
Refer: 228 -1 N 1 0 0 1 0 0 2
Fore
SplineSet
2892 273 m 1
 2834.0876295 136.567004953 2828.76502901 53.5388434749 2873 31 c 0
 2978.62181746 -22.8170040172 3334.05889006 126.512169094 4134 646 c 1
 4145 630 l 1
 2955.15332031 -142.6953125 2698.79616199 -132.754376288 2874 280 c 1
 2892 273 l 1
EndSplineSet
Comment: "It is final part of 'M' before glyphs like 'a'."
Colour: ff4057
EndChar

StartChar: M_b
Encoding: 244 -1 221
Width: 4430
VWidth: 0
Flags: HW
AnchorPoint: "Cursive 1" 2884 279 entry 0
AnchorPoint: "Cursive 1" 4278 812 exit 0
LayerCount: 6
Back
Refer: 143 -1 S 1 0 0 1 4113 0 2
Refer: 182 -1 N 1 0 0 1 2330 0 2
Refer: 182 -1 N 1 0 0 1 1554 0 2
Refer: 228 -1 N 1 0 0 1 0 0 2
Fore
SplineSet
2892 273 m 1
 2824.5093316 114.001949191 2850.99612409 19 2979 19 c 3
 3180.0218435 19 3612.08496094 245.344726562 4272 819 c 1
 4284 804 l 1
 3141.83789062 -188.866210938 2698.79616199 -132.754376288 2874 280 c 1
 2892 273 l 1
EndSplineSet
Comment: "It is final part of 'M' before glyphs like 'h'."
Colour: ff4057
EndChar

StartChar: M_c
Encoding: 245 -1 222
Width: 4430
VWidth: 0
Flags: HW
AnchorPoint: "Cursive 1" 2884 279 entry 0
AnchorPoint: "Cursive 1" 4521 811 exit 0
LayerCount: 6
Back
Refer: 164 -1 S 1 0 0 1 2839 0 2
Refer: 182 -1 N 1 0 0 1 2330 0 2
Refer: 182 -1 N 1 0 0 1 1554 0 2
Refer: 228 -1 N 1 0 0 1 0 0 2
Fore
SplineSet
2892 273 m 1
 2817 97 2845.6 19 2948 19 c 3
 3146 19 3634.59270351 257.616730003 4515 819 c 1
 4526 803 l 1
 3230 -23 2654 -238 2874 280 c 1
 2892 273 l 1
EndSplineSet
Comment: "It is final part of 'M' before 'c'."
Colour: ff4057
EndChar

StartChar: M_e
Encoding: 246 -1 223
Width: 4430
VWidth: 0
Flags: HW
AnchorPoint: "Cursive 1" 2884 279 entry 0
AnchorPoint: "Cursive 1" 4043 418 exit 0
LayerCount: 6
Back
Refer: 141 -1 S 1 0 0 1 3620 0 2
Refer: 182 -1 N 1 0 0 1 2330 0 2
Refer: 182 -1 N 1 0 0 1 1554 0 2
Refer: 228 -1 N 1 0 0 1 0 0 2
Fore
SplineSet
2892 273 m 1
 2816.19816107 94.4220584302 2882 19 3037 19 c 3
 3244 19 3602.41934404 154.818997806 4038 427 c 1
 4048 410 l 1
 3250.2901949 -88.4644089229 2698.56172331 -133.3066792 2874 280 c 1
 2892 273 l 1
EndSplineSet
Comment: "It is final part 'M' before 'e'."
Colour: ff5466
EndChar

StartChar: M_i
Encoding: 247 -1 224
Width: 4550
VWidth: 0
Flags: HW
AnchorPoint: "Cursive 1" 2884 279 entry 0
AnchorPoint: "Cursive 1" 4256 814 exit 0
LayerCount: 6
Back
Refer: 140 -1 S 1 0 0 1 4146 671 2
Refer: 182 -1 N 1 0 0 1 2330 0 2
Refer: 182 -1 N 1 0 0 1 1554 0 2
Refer: 228 -1 N 1 0 0 1 0 0 2
Fore
SplineSet
2892 273 m 1
 2821.09549883 105.959463154 2845 19 2958 19 c 3
 3152 19 3604.53325297 276.997452597 4248 819 c 1
 4260 804 l 1
 3076.52246094 -189.055664062 2698.95245444 -132.386174347 2874 280 c 1
 2892 273 l 1
EndSplineSet
Comment: "It is final part of 'M' before glyphs like 'i'."
Colour: ff5466
EndChar

StartChar: M_m
Encoding: 248 -1 225
Width: 4430
VWidth: 0
Flags: HW
AnchorPoint: "Cursive 1" 2884 279 entry 0
AnchorPoint: "Cursive 1" 3660 418 exit 0
LayerCount: 6
Back
Refer: 164 -1 S 1 0 0 1 1978 -393 2
Refer: 139 -1 N 1 0 0 1 0 0 2
Refer: 182 -1 N 1 0 0 1 2330 0 2
Refer: 182 -1 N 1 0 0 1 1554 0 2
Refer: 228 -1 N 1 0 0 1 0 0 2
Fore
SplineSet
2892 273 m 1
 2670.22328829 -249.473190988 3318.89460001 163.58062569 3654 426 c 1
 3665 410 l 1
 3027.70842732 -87.9067456255 2698.56172331 -133.3066792 2874 280 c 1
 2892 273 l 1
EndSplineSet
Comment: "It is final part of 'M' before glyphs like 'm'."
Colour: ff5466
EndChar

StartChar: M_p
Encoding: 249 -1 226
Width: 4701
VWidth: 0
Flags: HW
AnchorPoint: "Cursive 1" 2884 279 entry 0
AnchorPoint: "Cursive 1" 4066 812 exit 0
LayerCount: 6
Back
Refer: 143 -1 S 1 0 0 1 3901 0 2
Refer: 182 -1 N 1 0 0 1 2330 0 2
Refer: 182 -1 N 1 0 0 1 1554 0 2
Refer: 228 -1 N 1 0 0 1 0 0 2
Fore
SplineSet
2892 273 m 1
 2823.35186077 111.27511878 2821 19 2900 19 c 3
 3058.01265772 19 3470.01451799 306.133444982 4060 819 c 1
 4072 804 l 1
 2929.36892919 -189.274036074 2698.79616199 -132.754376288 2874 280 c 1
 2892 273 l 1
EndSplineSet
Comment: "It is final part of 'M' before glyphs like 's'."
Colour: ff5466
EndChar

StartChar: M_o
Encoding: 250 -1 227
Width: 4430
VWidth: 0
Flags: HW
AnchorPoint: "Cursive 1" 2884 279 entry 0
AnchorPoint: "Cursive 1" 4274 819 exit 0
LayerCount: 6
Back
Refer: 182 -1 S 1 0 0 1 2330 0 2
Refer: 182 -1 S 1 0 0 1 1554 0 2
Refer: 228 -1 N 1 0 0 1 0 0 2
Fore
SplineSet
2892 273 m 1
 2819.21349681 101.525744268 2844 19 2944 19 c 3
 3127.42506068 19 3543.80714126 271.904983609 4089 731 c 1
 4101 716 l 1
 3048.88878138 -166.826222203 2698.79616199 -132.754376288 2874 280 c 1
 2892 273 l 1
EndSplineSet
Comment: "It final part of 'M' before 'o'."
Colour: ff5466
EndChar

StartChar: Guid.M
Encoding: 197 -1 228
Width: 4096
VWidth: 0
LayerCount: 6
Back
SplineSet
2886 279 m 25
 2882 279 l 1049
2884 281 m 25
 2884 277 l 1049
2874 280 m 29
 2892 273 l 1049
2943 273 m 25
 2785 273 l 1049
EndSplineSet
EndChar

StartChar: Guid.L_Q
Encoding: 198 -1 229
Width: 4096
VWidth: 0
LayerCount: 6
Back
SplineSet
646 116 m 29
 646 112 l 1053
644 114 m 29
 648 114 l 1053
646 124 m 29
 646 105 l 1053
EndSplineSet
Colour: ababab
EndChar

StartChar: UY
Encoding: 251 -1 230
Width: 4096
VWidth: 0
Flags: HW
AnchorPoint: "Cursive 1" 3306 1633 exit 0
LayerCount: 6
Back
Refer: 140 -1 S 1 0 0 1 3196 1490 2
Fore
SplineSet
1235 0 m 5
 936.274414062 382.350585938 793.95661075 1001.6958178 902 1510 c 0
 1236.90315605 3085.59547169 3248 2553 2122 967 c 0
 1910 668 1391 19 1632 19 c 3
 1769.95214844 19 2158.09838947 372.011005676 3298 1638 c 1
 3312 1625 l 1
 2168.00097656 354.459960938 1782 0 1632 0 c 3
 1360 0 1835.82600125 674.8658956 2064 983 c 0
 3214 2536 1249.45628823 3051.26534326 921 1506 c 0
 814.443179339 1004.68957315 953.01953125 392.397460938 1251 11 c 5
 1235 0 l 5
EndSplineSet
EndChar

StartChar: pound
Encoding: 252 163 231
Width: 3610
VWidth: 0
Flags: HW
AnchorPoint: "Cursive 1" 646 114 entry 0
AnchorPoint: "Cursive 1" 646 114 exit 0
LayerCount: 6
Fore
SplineSet
1727 1192 m 1
 2673.2421875 1192 l 1
 2662 1178 l 1
 1715 1177 l 1
 1727 1192 l 1
1780 1347 m 1
 2726.2421875 1347 l 1
 2715 1333 l 1
 1768 1332 l 1
 1780 1347 l 1
3059 2439 m 3
 2702.76269531 2439 2349 1138.42842992 1631.75 416 c 0
 1297.36339528 79.8651209409 897 0 646 0 c 3
 461 0 507.985508007 124 646 124 c 3
 923.006968557 124 1805.71975362 -375.757769671 2965 819 c 1
 2978 805 l 1
 1806.29641687 -398.288636241 924.007194152 105 646 105 c 3
 543.995098157 105 477.98828125 19 646 19 c 3
 2013.0234375 19 2557.70507812 2458 3059 2458 c 3
 3324.34952775 2458 3078.17075197 1939.53295463 2934.00000168 1939.53295463 c 3
 2799.03317334 1939.53295463 2933.89183599 2396.13648681 3286 2458.22265625 c 1
 3289 2439.22265625 l 1
 2960.02011738 2381.21462683 2833.75927094 1960.95385658 2936.99999864 1960.95385658 c 3
 3057.18622494 1960.95385658 3289.85091246 2439 3059 2439 c 3
EndSplineSet
EndChar
